<svg class="main-svg" xmlns="http://www.w3.org/2000/svg" xmlns:xlink="http://www.w3.org/1999/xlink" width="800" height="300" style="" viewBox="0 0 800 300"><rect x="0" y="0" width="800" height="300" style="fill: rgb(255, 255, 255); fill-opacity: 1;"/><defs id="defs-b4f4d0"><g class="clips"><clipPath id="clipb4f4d0xyplot" class="plotclip"><rect width="730" height="200"/></clipPath><clipPath class="axesclip" id="clipb4f4d0x"><rect x="50" y="0" width="730" height="300"/></clipPath><clipPath class="axesclip" id="clipb4f4d0y"><rect x="0" y="50" width="800" height="200"/></clipPath><clipPath class="axesclip" id="clipb4f4d0xy"><rect x="50" y="50" width="730" height="200"/></clipPath></g><g class="gradients"/></defs><g class="bglayer"/><g class="layer-below"><g class="imagelayer"/><g class="shapelayer"/></g><g class="cartesianlayer"><g class="subplot xy"><g class="layer-subplot"><g class="shapelayer"/><g class="imagelayer"/></g><g class="gridlayer"><g class="x"/><g class="y"><path class="ygrid crisp" transform="translate(0,200)" d="M50,0h730" style="stroke: rgb(238, 238, 238); stroke-opacity: 1; stroke-width: 1px;"/><path class="ygrid crisp" transform="translate(0,150)" d="M50,0h730" style="stroke: rgb(238, 238, 238); stroke-opacity: 1; stroke-width: 1px;"/><path class="ygrid crisp" transform="translate(0,100)" d="M50,0h730" style="stroke: rgb(238, 238, 238); stroke-opacity: 1; stroke-width: 1px;"/></g></g><g class="zerolinelayer"/><path class="xlines-below"/><path class="ylines-below"/><g class="overlines-below"/><g class="xaxislayer-below"/><g class="yaxislayer-below"/><g class="overaxes-below"/><g class="plot" transform="translate(50, 50)" clip-path="url('#clipb4f4d0xyplot')"><g class="barlayer mlayer"><g class="trace bars" style="opacity: 1;"><g class="points"><g class="point"><path d="M0.6,200V199.99H5.43V200Z" style="vector-effect: non-scaling-stroke; opacity: 1; stroke-width: 0px; fill: rgb(232, 62, 140); fill-opacity: 1;"/></g><g class="point"><path d="M6.64,200V200H11.46V200Z" style="vector-effect: non-scaling-stroke; opacity: 1; stroke-width: 0px; fill: rgb(232, 62, 140); fill-opacity: 1;"/></g><g class="point"><path d="M12.67,200V199.99H17.5V200Z" style="vector-effect: non-scaling-stroke; opacity: 1; stroke-width: 0px; fill: rgb(232, 62, 140); fill-opacity: 1;"/></g><g class="point"><path d="M18.7,200V199.76H23.53V200Z" style="vector-effect: non-scaling-stroke; opacity: 1; stroke-width: 0px; fill: rgb(232, 62, 140); fill-opacity: 1;"/></g><g class="point"><path d="M24.74,200V200H29.56V200Z" style="vector-effect: non-scaling-stroke; opacity: 1; stroke-width: 0px; fill: rgb(232, 62, 140); fill-opacity: 1;"/></g><g class="point"><path d="M30.77,200V199.98H35.6V200Z" style="vector-effect: non-scaling-stroke; opacity: 1; stroke-width: 0px; fill: rgb(232, 62, 140); fill-opacity: 1;"/></g><g class="point"><path d="M36.8,200V199.68H41.63V200Z" style="vector-effect: non-scaling-stroke; opacity: 1; stroke-width: 0px; fill: rgb(232, 62, 140); fill-opacity: 1;"/></g><g class="point"><path d="M42.83,200V199.99H47.66V200Z" style="vector-effect: non-scaling-stroke; opacity: 1; stroke-width: 0px; fill: rgb(232, 62, 140); fill-opacity: 1;"/></g><g class="point"><path d="M48.87,200V199.94H53.69V200Z" style="vector-effect: non-scaling-stroke; opacity: 1; stroke-width: 0px; fill: rgb(232, 62, 140); fill-opacity: 1;"/></g><g class="point"><path d="M54.9,200V200H59.73V200Z" style="vector-effect: non-scaling-stroke; opacity: 1; stroke-width: 0px; fill: rgb(232, 62, 140); fill-opacity: 1;"/></g><g class="point"><path d="M60.93,200V200H65.76V200Z" style="vector-effect: non-scaling-stroke; opacity: 1; stroke-width: 0px; fill: rgb(232, 62, 140); fill-opacity: 1;"/></g><g class="point"><path d="M66.97,200V199.99H71.79V200Z" style="vector-effect: non-scaling-stroke; opacity: 1; stroke-width: 0px; fill: rgb(232, 62, 140); fill-opacity: 1;"/></g><g class="point"><path d="M73,200V199.98H77.83V200Z" style="vector-effect: non-scaling-stroke; opacity: 1; stroke-width: 0px; fill: rgb(232, 62, 140); fill-opacity: 1;"/></g><g class="point"><path d="M79.03,200V199.9H83.86V200Z" style="vector-effect: non-scaling-stroke; opacity: 1; stroke-width: 0px; fill: rgb(232, 62, 140); fill-opacity: 1;"/></g><g class="point"><path d="M85.07,200V199.99H89.89V200Z" style="vector-effect: non-scaling-stroke; opacity: 1; stroke-width: 0px; fill: rgb(232, 62, 140); fill-opacity: 1;"/></g><g class="point"><path d="M91.1,200V199.94H95.93V200Z" style="vector-effect: non-scaling-stroke; opacity: 1; stroke-width: 0px; fill: rgb(232, 62, 140); fill-opacity: 1;"/></g><g class="point"><path d="M97.13,200V200H101.96V200Z" style="vector-effect: non-scaling-stroke; opacity: 1; stroke-width: 0px; fill: rgb(232, 62, 140); fill-opacity: 1;"/></g><g class="point"><path d="M103.17,200V199.98H107.99V200Z" style="vector-effect: non-scaling-stroke; opacity: 1; stroke-width: 0px; fill: rgb(232, 62, 140); fill-opacity: 1;"/></g><g class="point"><path d="M109.2,200V199.94H114.02V200Z" style="vector-effect: non-scaling-stroke; opacity: 1; stroke-width: 0px; fill: rgb(232, 62, 140); fill-opacity: 1;"/></g><g class="point"><path d="M115.23,200V199.99H120.06V200Z" style="vector-effect: non-scaling-stroke; opacity: 1; stroke-width: 0px; fill: rgb(232, 62, 140); fill-opacity: 1;"/></g><g class="point"><path d="M121.26,200V199.98H126.09V200Z" style="vector-effect: non-scaling-stroke; opacity: 1; stroke-width: 0px; fill: rgb(232, 62, 140); fill-opacity: 1;"/></g><g class="point"><path d="M127.3,200V200H132.12V200Z" style="vector-effect: non-scaling-stroke; opacity: 1; stroke-width: 0px; fill: rgb(232, 62, 140); fill-opacity: 1;"/></g><g class="point"><path d="M133.33,200V200H138.16V200Z" style="vector-effect: non-scaling-stroke; opacity: 1; stroke-width: 0px; fill: rgb(232, 62, 140); fill-opacity: 1;"/></g><g class="point"><path d="M139.36,200V199.7H144.19V200Z" style="vector-effect: non-scaling-stroke; opacity: 1; stroke-width: 0px; fill: rgb(232, 62, 140); fill-opacity: 1;"/></g><g class="point"><path d="M145.4,200V200H150.22V200Z" style="vector-effect: non-scaling-stroke; opacity: 1; stroke-width: 0px; fill: rgb(232, 62, 140); fill-opacity: 1;"/></g><g class="point"><path d="M151.43,200V199.97H156.26V200Z" style="vector-effect: non-scaling-stroke; opacity: 1; stroke-width: 0px; fill: rgb(232, 62, 140); fill-opacity: 1;"/></g><g class="point"><path d="M157.46,200V199.95H162.29V200Z" style="vector-effect: non-scaling-stroke; opacity: 1; stroke-width: 0px; fill: rgb(232, 62, 140); fill-opacity: 1;"/></g><g class="point"><path d="M163.5,200V199.97H168.32V200Z" style="vector-effect: non-scaling-stroke; opacity: 1; stroke-width: 0px; fill: rgb(232, 62, 140); fill-opacity: 1;"/></g><g class="point"><path d="M169.53,200V199.96H174.36V200Z" style="vector-effect: non-scaling-stroke; opacity: 1; stroke-width: 0px; fill: rgb(232, 62, 140); fill-opacity: 1;"/></g><g class="point"><path d="M175.56,200V199.97H180.39V200Z" style="vector-effect: non-scaling-stroke; opacity: 1; stroke-width: 0px; fill: rgb(232, 62, 140); fill-opacity: 1;"/></g><g class="point"><path d="M181.6,200V199.97H186.42V200Z" style="vector-effect: non-scaling-stroke; opacity: 1; stroke-width: 0px; fill: rgb(232, 62, 140); fill-opacity: 1;"/></g><g class="point"><path d="M187.63,200V199.28H192.45V200Z" style="vector-effect: non-scaling-stroke; opacity: 1; stroke-width: 0px; fill: rgb(232, 62, 140); fill-opacity: 1;"/></g><g class="point"><path d="M193.66,200V199.99H198.49V200Z" style="vector-effect: non-scaling-stroke; opacity: 1; stroke-width: 0px; fill: rgb(232, 62, 140); fill-opacity: 1;"/></g><g class="point"><path d="M199.69,200V199.98H204.52V200Z" style="vector-effect: non-scaling-stroke; opacity: 1; stroke-width: 0px; fill: rgb(232, 62, 140); fill-opacity: 1;"/></g><g class="point"><path d="M205.73,200V199.98H210.55V200Z" style="vector-effect: non-scaling-stroke; opacity: 1; stroke-width: 0px; fill: rgb(232, 62, 140); fill-opacity: 1;"/></g><g class="point"><path d="M211.76,200V200H216.59V200Z" style="vector-effect: non-scaling-stroke; opacity: 1; stroke-width: 0px; fill: rgb(232, 62, 140); fill-opacity: 1;"/></g><g class="point"><path d="M217.79,200V199.99H222.62V200Z" style="vector-effect: non-scaling-stroke; opacity: 1; stroke-width: 0px; fill: rgb(232, 62, 140); fill-opacity: 1;"/></g><g class="point"><path d="M223.83,200V199.78H228.65V200Z" style="vector-effect: non-scaling-stroke; opacity: 1; stroke-width: 0px; fill: rgb(232, 62, 140); fill-opacity: 1;"/></g><g class="point"><path d="M229.86,200V199.85H234.69V200Z" style="vector-effect: non-scaling-stroke; opacity: 1; stroke-width: 0px; fill: rgb(232, 62, 140); fill-opacity: 1;"/></g><g class="point"><path d="M235.89,200V199.53H240.72V200Z" style="vector-effect: non-scaling-stroke; opacity: 1; stroke-width: 0px; fill: rgb(232, 62, 140); fill-opacity: 1;"/></g><g class="point"><path d="M241.93,200V199.98H246.75V200Z" style="vector-effect: non-scaling-stroke; opacity: 1; stroke-width: 0px; fill: rgb(232, 62, 140); fill-opacity: 1;"/></g><g class="point"><path d="M247.96,200V200H252.79V200Z" style="vector-effect: non-scaling-stroke; opacity: 1; stroke-width: 0px; fill: rgb(232, 62, 140); fill-opacity: 1;"/></g><g class="point"><path d="M253.99,200V200H258.82V200Z" style="vector-effect: non-scaling-stroke; opacity: 1; stroke-width: 0px; fill: rgb(232, 62, 140); fill-opacity: 1;"/></g><g class="point"><path d="M260.02,200V199.48H264.85V200Z" style="vector-effect: non-scaling-stroke; opacity: 1; stroke-width: 0px; fill: rgb(232, 62, 140); fill-opacity: 1;"/></g><g class="point"><path d="M266.06,200V199.9H270.88V200Z" style="vector-effect: non-scaling-stroke; opacity: 1; stroke-width: 0px; fill: rgb(232, 62, 140); fill-opacity: 1;"/></g><g class="point"><path d="M272.09,200V199.75H276.92V200Z" style="vector-effect: non-scaling-stroke; opacity: 1; stroke-width: 0px; fill: rgb(232, 62, 140); fill-opacity: 1;"/></g><g class="point"><path d="M278.12,200V199.99H282.95V200Z" style="vector-effect: non-scaling-stroke; opacity: 1; stroke-width: 0px; fill: rgb(232, 62, 140); fill-opacity: 1;"/></g><g class="point"><path d="M284.16,200V199.94H288.98V200Z" style="vector-effect: non-scaling-stroke; opacity: 1; stroke-width: 0px; fill: rgb(232, 62, 140); fill-opacity: 1;"/></g><g class="point"><path d="M290.19,200V199.48H295.02V200Z" style="vector-effect: non-scaling-stroke; opacity: 1; stroke-width: 0px; fill: rgb(232, 62, 140); fill-opacity: 1;"/></g><g class="point"><path d="M296.22,200V199.95H301.05V200Z" style="vector-effect: non-scaling-stroke; opacity: 1; stroke-width: 0px; fill: rgb(232, 62, 140); fill-opacity: 1;"/></g><g class="point"><path d="M302.26,200V199.89H307.08V200Z" style="vector-effect: non-scaling-stroke; opacity: 1; stroke-width: 0px; fill: rgb(232, 62, 140); fill-opacity: 1;"/></g><g class="point"><path d="M308.29,200V199.24H313.12V200Z" style="vector-effect: non-scaling-stroke; opacity: 1; stroke-width: 0px; fill: rgb(232, 62, 140); fill-opacity: 1;"/></g><g class="point"><path d="M314.32,200V199.93H319.15V200Z" style="vector-effect: non-scaling-stroke; opacity: 1; stroke-width: 0px; fill: rgb(232, 62, 140); fill-opacity: 1;"/></g><g class="point"><path d="M320.36,200V199.51H325.18V200Z" style="vector-effect: non-scaling-stroke; opacity: 1; stroke-width: 0px; fill: rgb(232, 62, 140); fill-opacity: 1;"/></g><g class="point"><path d="M326.39,200V199.55H331.21V200Z" style="vector-effect: non-scaling-stroke; opacity: 1; stroke-width: 0px; fill: rgb(232, 62, 140); fill-opacity: 1;"/></g><g class="point"><path d="M332.42,200V199.56H337.25V200Z" style="vector-effect: non-scaling-stroke; opacity: 1; stroke-width: 0px; fill: rgb(232, 62, 140); fill-opacity: 1;"/></g><g class="point"><path d="M338.45,200V199.99H343.28V200Z" style="vector-effect: non-scaling-stroke; opacity: 1; stroke-width: 0px; fill: rgb(232, 62, 140); fill-opacity: 1;"/></g><g class="point"><path d="M344.49,200V199.9H349.31V200Z" style="vector-effect: non-scaling-stroke; opacity: 1; stroke-width: 0px; fill: rgb(232, 62, 140); fill-opacity: 1;"/></g><g class="point"><path d="M350.52,200V199.73H355.35V200Z" style="vector-effect: non-scaling-stroke; opacity: 1; stroke-width: 0px; fill: rgb(232, 62, 140); fill-opacity: 1;"/></g><g class="point"><path d="M356.55,200V199.66H361.38V200Z" style="vector-effect: non-scaling-stroke; opacity: 1; stroke-width: 0px; fill: rgb(232, 62, 140); fill-opacity: 1;"/></g><g class="point"><path d="M362.59,200V199.07H367.41V200Z" style="vector-effect: non-scaling-stroke; opacity: 1; stroke-width: 0px; fill: rgb(232, 62, 140); fill-opacity: 1;"/></g><g class="point"><path d="M368.62,200V199.76H373.45V200Z" style="vector-effect: non-scaling-stroke; opacity: 1; stroke-width: 0px; fill: rgb(232, 62, 140); fill-opacity: 1;"/></g><g class="point"><path d="M374.65,200V199.24H379.48V200Z" style="vector-effect: non-scaling-stroke; opacity: 1; stroke-width: 0px; fill: rgb(232, 62, 140); fill-opacity: 1;"/></g><g class="point"><path d="M380.69,200V199.06H385.51V200Z" style="vector-effect: non-scaling-stroke; opacity: 1; stroke-width: 0px; fill: rgb(232, 62, 140); fill-opacity: 1;"/></g><g class="point"><path d="M386.72,200V198.79H391.55V200Z" style="vector-effect: non-scaling-stroke; opacity: 1; stroke-width: 0px; fill: rgb(232, 62, 140); fill-opacity: 1;"/></g><g class="point"><path d="M392.75,200V198.74H397.58V200Z" style="vector-effect: non-scaling-stroke; opacity: 1; stroke-width: 0px; fill: rgb(232, 62, 140); fill-opacity: 1;"/></g><g class="point"><path d="M398.79,200V198.57H403.61V200Z" style="vector-effect: non-scaling-stroke; opacity: 1; stroke-width: 0px; fill: rgb(232, 62, 140); fill-opacity: 1;"/></g><g class="point"><path d="M404.82,200V199.18H409.64V200Z" style="vector-effect: non-scaling-stroke; opacity: 1; stroke-width: 0px; fill: rgb(232, 62, 140); fill-opacity: 1;"/></g><g class="point"><path d="M410.85,200V199.49H415.68V200Z" style="vector-effect: non-scaling-stroke; opacity: 1; stroke-width: 0px; fill: rgb(232, 62, 140); fill-opacity: 1;"/></g><g class="point"><path d="M416.88,200V198.79H421.71V200Z" style="vector-effect: non-scaling-stroke; opacity: 1; stroke-width: 0px; fill: rgb(232, 62, 140); fill-opacity: 1;"/></g><g class="point"><path d="M422.92,200V198.46H427.74V200Z" style="vector-effect: non-scaling-stroke; opacity: 1; stroke-width: 0px; fill: rgb(232, 62, 140); fill-opacity: 1;"/></g><g class="point"><path d="M428.95,200V199.15H433.78V200Z" style="vector-effect: non-scaling-stroke; opacity: 1; stroke-width: 0px; fill: rgb(232, 62, 140); fill-opacity: 1;"/></g><g class="point"><path d="M434.98,200V197.8H439.81V200Z" style="vector-effect: non-scaling-stroke; opacity: 1; stroke-width: 0px; fill: rgb(232, 62, 140); fill-opacity: 1;"/></g><g class="point"><path d="M441.02,200V198.79H445.84V200Z" style="vector-effect: non-scaling-stroke; opacity: 1; stroke-width: 0px; fill: rgb(232, 62, 140); fill-opacity: 1;"/></g><g class="point"><path d="M447.05,200V197.97H451.88V200Z" style="vector-effect: non-scaling-stroke; opacity: 1; stroke-width: 0px; fill: rgb(232, 62, 140); fill-opacity: 1;"/></g><g class="point"><path d="M453.08,200V198.36H457.91V200Z" style="vector-effect: non-scaling-stroke; opacity: 1; stroke-width: 0px; fill: rgb(232, 62, 140); fill-opacity: 1;"/></g><g class="point"><path d="M459.12,200V192.71H463.94V200Z" style="vector-effect: non-scaling-stroke; opacity: 1; stroke-width: 0px; fill: rgb(232, 62, 140); fill-opacity: 1;"/></g><g class="point"><path d="M465.15,200V195.06H469.98V200Z" style="vector-effect: non-scaling-stroke; opacity: 1; stroke-width: 0px; fill: rgb(232, 62, 140); fill-opacity: 1;"/></g><g class="point"><path d="M471.18,200V196.87H476.01V200Z" style="vector-effect: non-scaling-stroke; opacity: 1; stroke-width: 0px; fill: rgb(232, 62, 140); fill-opacity: 1;"/></g><g class="point"><path d="M477.21,200V197.73H482.04V200Z" style="vector-effect: non-scaling-stroke; opacity: 1; stroke-width: 0px; fill: rgb(232, 62, 140); fill-opacity: 1;"/></g><g class="point"><path d="M483.25,200V183.56H488.07V200Z" style="vector-effect: non-scaling-stroke; opacity: 1; stroke-width: 0px; fill: rgb(232, 62, 140); fill-opacity: 1;"/></g><g class="point"><path d="M489.28,200V193H494.11V200Z" style="vector-effect: non-scaling-stroke; opacity: 1; stroke-width: 0px; fill: rgb(232, 62, 140); fill-opacity: 1;"/></g><g class="point"><path d="M495.31,200V194.26H500.14V200Z" style="vector-effect: non-scaling-stroke; opacity: 1; stroke-width: 0px; fill: rgb(232, 62, 140); fill-opacity: 1;"/></g><g class="point"><path d="M501.35,200V191.65H506.17V200Z" style="vector-effect: non-scaling-stroke; opacity: 1; stroke-width: 0px; fill: rgb(232, 62, 140); fill-opacity: 1;"/></g><g class="point"><path d="M507.38,200V195.34H512.21V200Z" style="vector-effect: non-scaling-stroke; opacity: 1; stroke-width: 0px; fill: rgb(232, 62, 140); fill-opacity: 1;"/></g><g class="point"><path d="M513.41,200V191.44H518.24V200Z" style="vector-effect: non-scaling-stroke; opacity: 1; stroke-width: 0px; fill: rgb(232, 62, 140); fill-opacity: 1;"/></g><g class="point"><path d="M519.45,200V192.94H524.27V200Z" style="vector-effect: non-scaling-stroke; opacity: 1; stroke-width: 0px; fill: rgb(232, 62, 140); fill-opacity: 1;"/></g><g class="point"><path d="M525.48,200V192.61H530.31V200Z" style="vector-effect: non-scaling-stroke; opacity: 1; stroke-width: 0px; fill: rgb(232, 62, 140); fill-opacity: 1;"/></g><g class="point"><path d="M531.51,200V186.81H536.34V200Z" style="vector-effect: non-scaling-stroke; opacity: 1; stroke-width: 0px; fill: rgb(232, 62, 140); fill-opacity: 1;"/></g><g class="point"><path d="M537.55,200V186.29H542.37V200Z" style="vector-effect: non-scaling-stroke; opacity: 1; stroke-width: 0px; fill: rgb(232, 62, 140); fill-opacity: 1;"/></g><g class="point"><path d="M543.58,200V175.11H548.4V200Z" style="vector-effect: non-scaling-stroke; opacity: 1; stroke-width: 0px; fill: rgb(232, 62, 140); fill-opacity: 1;"/></g><g class="point"><path d="M549.61,200V181.2H554.44V200Z" style="vector-effect: non-scaling-stroke; opacity: 1; stroke-width: 0px; fill: rgb(232, 62, 140); fill-opacity: 1;"/></g><g class="point"><path d="M555.64,200V172.45H560.47V200Z" style="vector-effect: non-scaling-stroke; opacity: 1; stroke-width: 0px; fill: rgb(232, 62, 140); fill-opacity: 1;"/></g><g class="point"><path d="M561.68,200V174.5H566.5V200Z" style="vector-effect: non-scaling-stroke; opacity: 1; stroke-width: 0px; fill: rgb(232, 62, 140); fill-opacity: 1;"/></g><g class="point"><path d="M567.71,200V164.48H572.54V200Z" style="vector-effect: non-scaling-stroke; opacity: 1; stroke-width: 0px; fill: rgb(232, 62, 140); fill-opacity: 1;"/></g><g class="point"><path d="M573.74,200V122.46H578.57V200Z" style="vector-effect: non-scaling-stroke; opacity: 1; stroke-width: 0px; fill: rgb(232, 62, 140); fill-opacity: 1;"/></g><g class="point"><path d="M579.78,200V178.34H584.6V200Z" style="vector-effect: non-scaling-stroke; opacity: 1; stroke-width: 0px; fill: rgb(232, 62, 140); fill-opacity: 1;"/></g><g class="point"><path d="M585.81,200V179.87H590.64V200Z" style="vector-effect: non-scaling-stroke; opacity: 1; stroke-width: 0px; fill: rgb(232, 62, 140); fill-opacity: 1;"/></g><g class="point"><path d="M591.84,200V157.93H596.67V200Z" style="vector-effect: non-scaling-stroke; opacity: 1; stroke-width: 0px; fill: rgb(232, 62, 140); fill-opacity: 1;"/></g><g class="point"><path d="M597.88,200V143.88H602.7V200Z" style="vector-effect: non-scaling-stroke; opacity: 1; stroke-width: 0px; fill: rgb(232, 62, 140); fill-opacity: 1;"/></g><g class="point"><path d="M603.91,200V176.65H608.74V200Z" style="vector-effect: non-scaling-stroke; opacity: 1; stroke-width: 0px; fill: rgb(232, 62, 140); fill-opacity: 1;"/></g><g class="point"><path d="M609.94,200V186.46H614.77V200Z" style="vector-effect: non-scaling-stroke; opacity: 1; stroke-width: 0px; fill: rgb(232, 62, 140); fill-opacity: 1;"/></g><g class="point"><path d="M615.98,200V173.96H620.8V200Z" style="vector-effect: non-scaling-stroke; opacity: 1; stroke-width: 0px; fill: rgb(232, 62, 140); fill-opacity: 1;"/></g><g class="point"><path d="M622.01,200V165.08H626.83V200Z" style="vector-effect: non-scaling-stroke; opacity: 1; stroke-width: 0px; fill: rgb(232, 62, 140); fill-opacity: 1;"/></g><g class="point"><path d="M628.04,200V131.81H632.87V200Z" style="vector-effect: non-scaling-stroke; opacity: 1; stroke-width: 0px; fill: rgb(232, 62, 140); fill-opacity: 1;"/></g><g class="point"><path d="M634.07,200V92.4H638.9V200Z" style="vector-effect: non-scaling-stroke; opacity: 1; stroke-width: 0px; fill: rgb(232, 62, 140); fill-opacity: 1;"/></g><g class="point"><path d="M640.11,200V183.45H644.93V200Z" style="vector-effect: non-scaling-stroke; opacity: 1; stroke-width: 0px; fill: rgb(232, 62, 140); fill-opacity: 1;"/></g><g class="point"><path d="M646.14,200V162.79H650.97V200Z" style="vector-effect: non-scaling-stroke; opacity: 1; stroke-width: 0px; fill: rgb(232, 62, 140); fill-opacity: 1;"/></g><g class="point"><path d="M652.17,200V104.58H657V200Z" style="vector-effect: non-scaling-stroke; opacity: 1; stroke-width: 0px; fill: rgb(232, 62, 140); fill-opacity: 1;"/></g><g class="point"><path d="M658.21,200V176.61H663.03V200Z" style="vector-effect: non-scaling-stroke; opacity: 1; stroke-width: 0px; fill: rgb(232, 62, 140); fill-opacity: 1;"/></g><g class="point"><path d="M664.24,200V133.9H669.07V200Z" style="vector-effect: non-scaling-stroke; opacity: 1; stroke-width: 0px; fill: rgb(232, 62, 140); fill-opacity: 1;"/></g><g class="point"><path d="M670.27,200V17.95H675.1V200Z" style="vector-effect: non-scaling-stroke; opacity: 1; stroke-width: 0px; fill: rgb(232, 62, 140); fill-opacity: 1;"/></g><g class="point"><path d="M676.31,200V121.65H681.13V200Z" style="vector-effect: non-scaling-stroke; opacity: 1; stroke-width: 0px; fill: rgb(232, 62, 140); fill-opacity: 1;"/></g><g class="point"><path d="M682.34,200V139.68H687.17V200Z" style="vector-effect: non-scaling-stroke; opacity: 1; stroke-width: 0px; fill: rgb(232, 62, 140); fill-opacity: 1;"/></g><g class="point"><path d="M688.37,200V150.9H693.2V200Z" style="vector-effect: non-scaling-stroke; opacity: 1; stroke-width: 0px; fill: rgb(232, 62, 140); fill-opacity: 1;"/></g><g class="point"><path d="M694.4,200V158.23H699.23V200Z" style="vector-effect: non-scaling-stroke; opacity: 1; stroke-width: 0px; fill: rgb(232, 62, 140); fill-opacity: 1;"/></g><g class="point"><path d="M700.44,200V126.36H705.26V200Z" style="vector-effect: non-scaling-stroke; opacity: 1; stroke-width: 0px; fill: rgb(232, 62, 140); fill-opacity: 1;"/></g><g class="point"><path d="M706.47,200V36.96H711.3V200Z" style="vector-effect: non-scaling-stroke; opacity: 1; stroke-width: 0px; fill: rgb(232, 62, 140); fill-opacity: 1;"/></g><g class="point"><path d="M712.5,200V134.7H717.33V200Z" style="vector-effect: non-scaling-stroke; opacity: 1; stroke-width: 0px; fill: rgb(232, 62, 140); fill-opacity: 1;"/></g><g class="point"><path d="M718.54,200V148.72H723.36V200Z" style="vector-effect: non-scaling-stroke; opacity: 1; stroke-width: 0px; fill: rgb(232, 62, 140); fill-opacity: 1;"/></g><g class="point"><path d="M724.57,200V185.12H729.4V200Z" style="vector-effect: non-scaling-stroke; opacity: 1; stroke-width: 0px; fill: rgb(232, 62, 140); fill-opacity: 1;"/></g></g></g></g></g><g class="overplot"/><path class="xlines-above crisp" style="fill: none; stroke-width: 1px; stroke: rgb(196, 196, 196); stroke-opacity: 1;" d="M49,250.5H780"/><path class="ylines-above crisp" style="fill: none; stroke-width: 1px; stroke: rgb(196, 196, 196); stroke-opacity: 1;" d="M49.5,50V250"/><g class="overlines-above"/><g class="xaxislayer-above"><path class="xtick ticks crisp" d="M0,251v5" transform="translate(53.02,0)" style="stroke: rgb(196, 196, 196); stroke-opacity: 1; stroke-width: 1px;"/><path class="xtick ticks crisp" d="M0,251v5" transform="translate(173.68,0)" style="stroke: rgb(196, 196, 196); stroke-opacity: 1; stroke-width: 1px;"/><path class="xtick ticks crisp" d="M0,251v5" transform="translate(294.34000000000003,0)" style="stroke: rgb(196, 196, 196); stroke-opacity: 1; stroke-width: 1px;"/><path class="xtick ticks crisp" d="M0,251v5" transform="translate(415,0)" style="stroke: rgb(196, 196, 196); stroke-opacity: 1; stroke-width: 1px;"/><path class="xtick ticks crisp" d="M0,251v5" transform="translate(535.6600000000001,0)" style="stroke: rgb(196, 196, 196); stroke-opacity: 1; stroke-width: 1px;"/><path class="xtick ticks crisp" d="M0,251v5" transform="translate(656.32,0)" style="stroke: rgb(196, 196, 196); stroke-opacity: 1; stroke-width: 1px;"/><path class="xtick ticks crisp" d="M0,251v5" transform="translate(776.98,0)" style="stroke: rgb(196, 196, 196); stroke-opacity: 1; stroke-width: 1px;"/><g class="xtick"><text text-anchor="middle" x="0" y="270.4" transform="translate(53.02,0)" style="font-family: Menlo; font-size: 12px; fill: rgb(196, 196, 196); fill-opacity: 1; white-space: pre;">1900</text></g><g class="xtick"><text text-anchor="middle" x="0" y="270.4" transform="translate(173.68,0)" style="font-family: Menlo; font-size: 12px; fill: rgb(196, 196, 196); fill-opacity: 1; white-space: pre;">1920</text></g><g class="xtick"><text text-anchor="middle" x="0" y="270.4" transform="translate(294.34000000000003,0)" style="font-family: Menlo; font-size: 12px; fill: rgb(196, 196, 196); fill-opacity: 1; white-space: pre;">1940</text></g><g class="xtick"><text text-anchor="middle" x="0" y="270.4" transform="translate(415,0)" style="font-family: Menlo; font-size: 12px; fill: rgb(196, 196, 196); fill-opacity: 1; white-space: pre;">1960</text></g><g class="xtick"><text text-anchor="middle" x="0" y="270.4" transform="translate(535.6600000000001,0)" style="font-family: Menlo; font-size: 12px; fill: rgb(196, 196, 196); fill-opacity: 1; white-space: pre;">1980</text></g><g class="xtick"><text text-anchor="middle" x="0" y="270.4" transform="translate(656.32,0)" style="font-family: Menlo; font-size: 12px; fill: rgb(196, 196, 196); fill-opacity: 1; white-space: pre;">2000</text></g><g class="xtick"><text text-anchor="middle" x="0" y="270.4" transform="translate(776.98,0)" style="font-family: Menlo; font-size: 12px; fill: rgb(196, 196, 196); fill-opacity: 1; white-space: pre;">2020</text></g></g><g class="yaxislayer-above"><path class="ytick ticks crisp" d="M49,0h-5" transform="translate(0,250)" style="stroke: rgb(196, 196, 196); stroke-opacity: 1; stroke-width: 1px;"/><path class="ytick ticks crisp" d="M49,0h-5" transform="translate(0,200)" style="stroke: rgb(196, 196, 196); stroke-opacity: 1; stroke-width: 1px;"/><path class="ytick ticks crisp" d="M49,0h-5" transform="translate(0,150)" style="stroke: rgb(196, 196, 196); stroke-opacity: 1; stroke-width: 1px;"/><path class="ytick ticks crisp" d="M49,0h-5" transform="translate(0,100)" style="stroke: rgb(196, 196, 196); stroke-opacity: 1; stroke-width: 1px;"/><path class="ytick ticks crisp" d="M49,0h-5" transform="translate(0,50)" style="stroke: rgb(196, 196, 196); stroke-opacity: 1; stroke-width: 1px;"/><g class="ytick"><text text-anchor="end" x="41.6" y="4.199999999999999" transform="translate(0,250)" style="font-family: Menlo; font-size: 12px; fill: rgb(196, 196, 196); fill-opacity: 1; white-space: pre;">0</text></g><g class="ytick"><text text-anchor="end" x="41.6" y="4.199999999999999" transform="translate(0,200)" style="font-family: Menlo; font-size: 12px; fill: rgb(196, 196, 196); fill-opacity: 1; white-space: pre;">100M</text></g><g class="ytick"><text text-anchor="end" x="41.6" y="4.199999999999999" transform="translate(0,150)" style="font-family: Menlo; font-size: 12px; fill: rgb(196, 196, 196); fill-opacity: 1; white-space: pre;">200M</text></g><g class="ytick"><text text-anchor="end" x="41.6" y="4.199999999999999" transform="translate(0,100)" style="font-family: Menlo; font-size: 12px; fill: rgb(196, 196, 196); fill-opacity: 1; white-space: pre;">300M</text></g><g class="ytick"><text text-anchor="end" x="41.6" y="4.199999999999999" transform="translate(0,50)" style="font-family: Menlo; font-size: 12px; fill: rgb(196, 196, 196); fill-opacity: 1; white-space: pre;">400M</text></g></g><g class="overaxes-above"/></g></g><g class="polarlayer"/><g class="ternarylayer"/><g class="geolayer"/><g class="funnelarealayer"/><g class="pielayer"/><g class="treemaplayer"/><g class="sunburstlayer"/><g class="glimages"/><defs id="topdefs-b4f4d0"><g class="clips"/></defs><g class="layer-above"><g class="imagelayer"/><g class="shapelayer"><path data-index="0" fill-rule="evenodd" d="M535.6600000000001,250H776.98V50H535.6600000000001Z" clip-path="url('#clipb4f4d0x')" style="opacity: 0.25; stroke: rgb(0, 0, 0); stroke-opacity: 0; fill: rgb(96, 195, 155); fill-opacity: 1; stroke-width: 0px;"/></g></g><g class="infolayer"><g class="g-gtitle"><text class="gtitle" x="0" y="6" text-anchor="start" dy="0.7em" style="font-family: Menlo; font-size: 10px; fill: rgb(35, 35, 35); opacity: 1; font-weight: normal; white-space: pre;">Amount of Damage(US$) from Disasters | 1900-2020</text></g><g class="g-xtitle"><text class="xtitle" x="415" y="290" text-anchor="middle" style="font-family: Menlo; font-size: 10px; fill: rgb(196, 196, 196); opacity: 1; font-weight: normal; white-space: pre;">Year</text></g><g class="g-ytitle" transform="translate(-10.5,0)"><text class="ytitle" transform="rotate(-90,20,150)" x="20" y="150" text-anchor="middle" style="font-family: Menlo; font-size: 10px; fill: rgb(196, 196, 196); opacity: 1; font-weight: normal; white-space: pre;">Damages (US$)</text></g><g class="annotation" data-index="0" style="opacity: 1;"><g class="annotation-text-g" transform="rotate(0,753.48,57.5)"><g class="cursor-pointer" transform="translate(730, 50)"><rect class="bg" x="0.5" y="0.5" width="46" height="14" style="stroke-width: 1px; stroke: rgb(0, 0, 0); stroke-opacity: 0; fill: rgb(0, 0, 0); fill-opacity: 0;"/><text class="annotation-text" text-anchor="middle" x="23.6875" y="10.5" style="font-family: Menlo; font-size: 9px; fill: rgb(96, 195, 155); fill-opacity: 1; white-space: pre;">increase</text></g></g></g></g></svg>