<svg class="main-svg" xmlns="http://www.w3.org/2000/svg" xmlns:xlink="http://www.w3.org/1999/xlink" width="800" height="300" style="" viewBox="0 0 800 300"><rect x="0" y="0" width="800" height="300" style="fill: rgb(255, 255, 255); fill-opacity: 1;"/><defs id="defs-ab9d04"><g class="clips"><clipPath id="clipab9d04xyplot" class="plotclip"><rect width="730" height="200"/></clipPath><clipPath class="axesclip" id="clipab9d04x"><rect x="50" y="0" width="730" height="300"/></clipPath><clipPath class="axesclip" id="clipab9d04y"><rect x="0" y="50" width="800" height="200"/></clipPath><clipPath class="axesclip" id="clipab9d04xy"><rect x="50" y="50" width="730" height="200"/></clipPath></g><g class="gradients"/></defs><g class="bglayer"/><g class="layer-below"><g class="imagelayer"/><g class="shapelayer"/></g><g class="cartesianlayer"><g class="subplot xy"><g class="layer-subplot"><g class="shapelayer"/><g class="imagelayer"/></g><g class="gridlayer"><g class="x"><path class="xgrid crisp" transform="translate(73.02,0)" d="M0,50v200" style="stroke: rgb(238, 238, 238); stroke-opacity: 1; stroke-width: 1px;"/><path class="xgrid crisp" transform="translate(173.42000000000002,0)" d="M0,50v200" style="stroke: rgb(238, 238, 238); stroke-opacity: 1; stroke-width: 1px;"/><path class="xgrid crisp" transform="translate(273.81,0)" d="M0,50v200" style="stroke: rgb(238, 238, 238); stroke-opacity: 1; stroke-width: 1px;"/><path class="xgrid crisp" transform="translate(374.21,0)" d="M0,50v200" style="stroke: rgb(238, 238, 238); stroke-opacity: 1; stroke-width: 1px;"/><path class="xgrid crisp" transform="translate(474.61,0)" d="M0,50v200" style="stroke: rgb(238, 238, 238); stroke-opacity: 1; stroke-width: 1px;"/><path class="xgrid crisp" transform="translate(575.01,0)" d="M0,50v200" style="stroke: rgb(238, 238, 238); stroke-opacity: 1; stroke-width: 1px;"/><path class="xgrid crisp" transform="translate(675.41,0)" d="M0,50v200" style="stroke: rgb(238, 238, 238); stroke-opacity: 1; stroke-width: 1px;"/><path class="xgrid crisp" transform="translate(775.81,0)" d="M0,50v200" style="stroke: rgb(238, 238, 238); stroke-opacity: 1; stroke-width: 1px;"/></g><g class="y"><path class="ygrid crisp" transform="translate(0,243.72)" d="M50,0h730" style="stroke: rgb(238, 238, 238); stroke-opacity: 1; stroke-width: 1px;"/><path class="ygrid crisp" transform="translate(0,181.66)" d="M50,0h730" style="stroke: rgb(238, 238, 238); stroke-opacity: 1; stroke-width: 1px;"/><path class="ygrid crisp" transform="translate(0,119.59)" d="M50,0h730" style="stroke: rgb(238, 238, 238); stroke-opacity: 1; stroke-width: 1px;"/><path class="ygrid crisp" transform="translate(0,57.519999999999996)" d="M50,0h730" style="stroke: rgb(238, 238, 238); stroke-opacity: 1; stroke-width: 1px;"/></g></g><g class="zerolinelayer"/><path class="xlines-below"/><path class="ylines-below"/><g class="overlines-below"/><g class="xaxislayer-below"/><g class="yaxislayer-below"/><g class="overaxes-below"/><g class="plot" transform="translate(50, 50)" clip-path="url('#clipab9d04xyplot')"><g class="scatterlayer mlayer"><g class="trace scatter tracece78b2" style="stroke-miterlimit: 2; opacity: 1;"><g class="fills"/><g class="errorbars"/><g class="lines"><path class="js-line" d="M0,55.31L0.41,32.34L0.84,39.17L1.26,60.28L2.94,183.79L3.37,172.62L5.87,28.62L6.29,53.45L7.97,173.86L8.4,171.38L9.62,91.31L10.05,57.17L10.46,29.24L10.89,32.97L11.31,61.52L12.99,179.45L13.41,178.21L13.8,149.03L15.48,32.34L15.9,41.03L16.33,52.21L18,173.86L18.43,160.21L20.08,60.9L20.49,31.72L20.92,28.62L21.34,61.52L23.02,177.59L23.45,157.72L25.11,70.83L25.52,43.52L25.95,35.45L26.37,54.07L28.05,180.69L28.48,170.76L28.86,160.83L29.29,121.72L30.97,28L31.39,52.83L32.64,167.03L33.07,165.17L33.49,161.45L33.88,150.9L34.31,108.69L35.98,40.41L36.41,62.76L38.51,181.93L38.9,160.83L40.57,46.62L41,37.93L42.26,131.66L42.68,162.69L43.1,177.59L43.53,176.97L43.93,155.86L46.03,44.14L46.45,55.31L48.13,190L48.56,180.07L49.78,99.38L50.21,67.72L51.05,36.07L51.47,56.55L53.57,181.31L53.96,150.9L56.06,29.24L56.49,49.72L58.16,176.97L58.59,167.03L59.81,99.38L60.24,67.72L61.08,36.69L61.5,63.38L63.61,180.07L64.01,149.03L66.11,34.83L66.53,64L68.21,180.69L68.64,174.48L71.13,33.59L71.55,67.72L73.23,172.62L73.65,155.86L76.14,36.07L76.57,43.52L78.24,178.83L78.67,170.14L80.73,39.17L81.16,35.45L81.58,42.9L82,91.31L83.26,170.76L83.69,168.28L84.09,162.07L84.51,112.41L86.19,29.86L86.61,50.97L88.29,177.59L88.72,180.07L91.21,31.1L91.63,54.07L93.31,175.1L93.73,170.76L96.22,26.14L96.65,57.79L98.32,180.69L98.75,168.9L101.24,35.45L101.66,51.59L103.34,173.24L103.77,172L104.17,156.48L104.59,108.69L106.27,32.97L106.69,55.31L108.37,170.76L108.8,172L109.61,123.59L110.02,86.34L110.45,77.03L110.86,51.59L111.29,38.55L111.71,64L113.39,171.38L113.81,166.41L114.2,159.59L114.63,124.21L116.3,31.72L116.73,59.66L118.4,173.86L118.83,167.66L121.32,31.72L121.74,70.83L123.42,183.79L123.85,174.48L124.66,122.97L125.07,86.34L126.34,31.72L126.76,53.45L128.44,168.28L128.86,170.76L131.35,37.93L131.78,55.31L133.45,178.83L133.88,170.14L135.94,58.41L136.37,51.59L136.79,53.45L137.21,90.69L138.9,168.28L139.28,145.93L141.38,34.21L141.81,55.31L143.49,181.93L143.91,167.03L144.31,155.86L144.74,111.79L146.42,37.93L146.84,62.14L148.94,176.97L149.33,158.97L151.01,49.1L151.43,55.93L151.86,57.79L152.27,93.17L153.53,180.07L153.96,177.59L154.35,148.41L156.02,47.86L156.45,41.66L158.98,175.72L159.36,158.97L161.04,52.83L161.46,33.59L163.57,173.86L163.99,172.62L164.39,155.24L166.07,56.55L166.5,36.07L168.6,180.69L169.02,174.48L171.51,37.31L171.94,58.41L173.61,167.66L174.04,175.72L176.53,44.14L176.95,64L178.63,178.21L179.06,161.45L181.54,34.83L181.97,53.45L183.65,175.1L184.07,155.24L184.9,113.03L185.31,90.07L186.58,37.31L187,68.34L188.68,181.93L189.1,165.79L189.49,155.24L189.91,109.31L191.59,46L192.02,69.59L194.12,172L194.51,139.1L196.61,29.86L197.03,54.07L198.71,173.24L199.14,168.28L200.36,95.03L200.79,57.79L201.62,34.21L202.05,52.83L204.15,168.28L204.55,157.72L206.23,45.38L206.66,38.55L207.08,46.62L207.49,95.66L208.76,179.45L209.18,165.79L209.57,153.38L211.25,34.21L211.67,38.55L212.51,89.45L212.94,139.72L213.77,183.79L214.2,171.38L215.85,68.97L216.26,32.34L216.69,31.72L217.11,53.45L218.79,176.34L219.22,170.76L221.7,38.55L222.13,52.83L223.81,168.28L224.23,177.59L226.31,31.72L226.74,34.21L227.16,60.9L229.26,172L229.65,155.24L231.33,42.9L231.75,36.69L233.85,190L234.28,150.28L234.67,152.76L235.09,111.17L236.77,24.28L237.19,48.48L238.87,183.17L239.3,175.1L241.78,24.9L242.21,48.48L243.89,176.97L244.31,165.79L244.71,162.69L245.14,102.48L245.98,73.31L246.39,31.72L246.82,31.1L247.24,58.41L248.92,175.72L249.34,178.83L251.83,34.21L252.26,51.59L253.93,174.48L254.36,165.17L255.17,124.83L255.58,92.55L256.85,30.48L257.27,49.72L258.95,176.97L259.38,180.69L261.86,28.62L262.29,62.14L264.39,173.24L264.79,150.9L266.47,48.48L266.9,44.14L267.32,45.38L267.73,90.07L269,177.59L269.42,175.72L269.81,149.66L271.91,25.52L272.34,66.48L274.01,170.14L274.44,160.21L274.83,139.1L276.93,27.38L277.35,60.28L279.46,178.21L279.84,144.69L281.94,29.86L282.37,54.07L284.05,157.1L284.47,167.03L285.3,117.38L285.71,82L286.14,70.83L286.55,34.21L286.98,28L287.4,58.41L289.08,173.86L289.5,171.38L289.89,157.72L291.99,23.03L292.42,50.34L294.09,178.21L294.52,168.9L295.33,122.34L295.74,83.24L297.01,31.72L297.43,59.66L299.11,170.76L299.54,163.93L300.76,90.07L301.19,60.28L302.02,39.79L302.45,64.62L304.13,181.31L304.55,178.21L304.95,155.86L307.06,29.24L307.48,43.52L309.16,165.17L309.58,158.34L311.23,72.07L311.65,30.48L312.07,18.69L312.5,52.83L314.17,176.97L314.6,172.62L316.66,38.55L317.09,32.34L319.19,178.83L319.62,168.28L320,147.79L321.68,29.24L322.1,33.59L322.53,46.62L324.21,176.97L324.63,170.76L325.03,142.83L326.71,26.76L327.14,39.17L327.56,59.03L329.24,163.93L329.66,162.69L330.05,142.83L332.15,36.07L332.58,65.86L334.68,177.59L335.07,129.79L336.74,23.03L337.17,26.14L337.59,39.17L339.27,178.83L339.7,168.9L341.35,60.28L341.76,37.93L342.18,23.66L342.61,42.28L344.29,175.1L344.71,173.86L345.54,127.93L345.95,83.86L347.22,23.03L347.64,49.72L349.32,186.9L349.74,183.79L352.23,28L352.66,54.69L354.33,172L354.76,167.66L355.15,155.24L355.57,104.97L357.25,28L357.67,50.34L359.78,176.97L360.16,151.52L362.26,19.93L362.69,51.59L364.37,168.9L364.79,162.07L365.19,153.38L365.62,105.59L366.87,32.34L367.3,36.07L367.72,46L369.4,160.21L369.82,153.38L370.21,152.14L370.64,118.62L372.31,28.62L372.74,54.69L374.41,162.69L374.84,164.55L376.49,58.41L376.9,29.24L377.33,31.1L377.75,46L379.43,173.24L379.86,165.79L382.34,28L382.77,65.24L384.87,177.59L385.27,147.79L387.38,27.38L387.8,52.83L389.48,173.24L389.9,167.66L391.97,40.41L392.39,38.55L393.23,86.97L393.66,129.17L394.49,167.03L394.92,158.97L395.31,141.59L396.57,80.14L396.98,55.31L397.41,26.14L397.83,41.03L398.25,97.52L399.51,170.14L399.94,155.24L401.16,80.76L401.59,52.83L402,22.41L402.42,30.48L402.85,55.31L404.53,167.66L404.95,167.03L405.35,140.34L407.46,36.07L407.88,52.83L409.13,162.69L409.56,158.34L409.98,167.03L410.8,104.97L411.21,87.59L412.47,24.28L412.9,64.62L414.57,162.69L415,156.48L415.39,141.59L417.06,39.17L417.49,33.59L418.33,94.41L418.75,124.83L419.59,170.76L420.02,148.41L420.4,138.48L420.83,98.76L422.5,28L422.93,44.14L424.61,162.69L425.03,152.76L427.54,29.86L427.96,47.24L429.64,171.38L430.06,165.79L432.13,23.66L432.55,27.38L432.98,36.69L434.65,165.79L435.08,157.1L435.89,106.21L436.3,79.52L437.57,19.31L437.99,41.66L439.67,173.86L440.1,163.93L441.75,58.41L442.16,34.21L442.59,28.62L443.01,60.9L445.11,167.66L445.51,146.55L447.19,35.45L447.62,21.17L449.72,166.41L450.14,164.55L450.96,124.83L451.37,86.97L452.63,28L453.06,55.93L454.73,165.17L455.16,149.03L457.65,26.76L458.07,49.72L459.75,166.41L460.18,163.31L460.56,134.76L462.67,19.93L463.09,53.45L464.77,158.34L465.19,167.03L467.27,40.41L467.7,28.62L470.22,158.34L470.61,144.69L472.29,38.55L472.71,24.9L474.81,165.79L475.24,156.48L475.63,159.59L477.3,36.07L477.73,23.66L478.99,117.38L479.41,151.52L479.83,162.07L480.26,157.1L480.64,142.21L482.75,28L483.17,62.76L484.85,152.76L485.27,162.07L487.78,28.62L488.2,50.34L489.88,154.62L490.3,150.9L490.69,145.31L491.12,98.76L492.79,16.83L493.22,49.72L494.89,166.41L495.32,162.07L495.71,148.41L496.13,101.86L497.81,25.52L498.23,52.21L499.91,164.55L500.34,162.07L500.72,144.69L502.4,34.83L502.83,24.28L503.25,37.31L503.66,86.34L504.93,160.21L505.35,151.52L506.59,83.86L507.02,60.28L507.86,37.93L508.28,57.17L509.96,172.62L510.38,163.31L510.77,136L512.45,33.59L512.87,38.55L513.3,42.9L513.71,77.66L515.4,167.66L515.79,139.72L517.89,14.34L518.31,55.93L519.99,152.76L520.42,141.59L521.23,107.45L521.64,78.28L522.91,23.66L523.33,44.14L525.43,161.45L525.83,142.83L527.51,46L527.94,48.48L528.36,50.97L528.77,80.76L530.04,166.41L530.46,160.83L530.85,137.86L532.53,30.48L532.95,31.1L533.38,58.41L535.05,157.72L535.48,159.59L537.97,25.52L538.39,55.31L540.5,155.86L540.88,140.34L542.15,66.48L542.56,46L542.99,23.03L543.41,50.34L545.51,175.1L545.91,157.1L548.02,16.21L548.44,47.86L550.12,168.28L550.54,153.38L550.93,145.31L551.36,105.59L553.03,20.55L553.46,50.34L555.56,167.03L555.95,145.31L557.62,45.38L558.05,27.38L559.31,117.38L559.73,140.97L560.15,157.72L560.58,151.52L560.96,136L563.07,24.28L563.49,49.1L565.59,163.31L565.99,141.59L567.67,54.69L568.1,26.14L570.2,143.45L570.62,147.17L571.85,83.86L572.27,65.24L573.11,25.52L573.54,37.31L573.95,85.1L575.21,162.69L575.64,145.31L578.13,16.21L578.55,39.79L580.23,154.62L580.66,153.38L581.04,134.76L582.72,28L583.15,35.45L583.57,45.38L583.98,81.38L585.25,151.52L585.67,150.9L586.07,133.52L588.18,26.14L588.6,49.1L590.28,155.24L590.7,145.93L591.09,139.72L591.52,110.55L593.19,39.79L593.62,51.59L595.29,159.59L595.72,152.76L596.11,143.45L596.53,95.66L598.21,14.34L598.63,39.79L600.31,154.62L600.74,153.38L601.12,138.48L603.23,11.24L603.65,46.62L605.75,160.21L606.15,136.62L607.83,31.1L608.26,32.34L608.68,54.69L610.36,151.52L610.78,150.28L611.17,128.55L613.27,26.14L613.7,51.59L615.37,160.83L615.8,150.28L616.19,131.03L617.86,36.69L618.29,24.9L619.55,107.45L619.97,137.86L620.39,152.76L620.82,152.14L621.2,131.03L623.31,16.83L623.73,31.1L625.41,146.55L625.83,156.48L628.34,18.07L628.76,34.83L630.44,163.31L630.86,152.76L632.93,16.83L633.35,29.86L633.78,49.72L635.45,147.79L635.88,144.69L638.37,19.93L638.79,50.34L640.47,159.59L640.9,154L641.71,100L642.12,77.03L643.39,32.34L643.81,43.52L645.49,154.62L645.91,140.97L646.31,132.9L646.74,91.93L647.99,16.83L648.42,24.9L648.84,37.93L650.52,155.86L650.94,155.24L653.43,19.31L653.86,40.41L655.53,162.07L655.96,152.14L658.45,23.03L658.87,47.86L660.55,146.55L660.98,140.34L662.2,70.83L662.63,49.72L663.04,42.28L663.47,13.72L665.99,159.59L666.39,127.31L668.07,26.14L668.5,27.38L668.92,42.28L670.6,151.52L671.02,145.31L671.84,96.28L672.25,68.97L673.51,28.62L673.94,50.97L676.04,153.38L676.43,137.24L678.53,10L678.95,37.93L680.63,162.07L681.06,150.28L681.44,143.45L681.87,103.72L683.55,23.03L683.97,37.93L685.65,163.93L686.07,160.21L686.47,139.1L688.58,13.1L689,31.1L690.68,159.59L691.1,155.24L693.17,24.28L693.59,12.48L696.12,157.1L696.51,129.17L698.61,21.79L699.03,49.72L701.14,158.34L701.52,129.79L703.63,28L704.05,53.45L705.73,155.86L706.15,149.03L706.55,131.03L708.66,25.52L709.08,42.28L710.76,157.72L711.18,150.9L711.57,140.97L712,102.48L713.25,24.28L713.67,29.86L715.77,164.55L716.2,160.21L716.59,122.34L718.26,18.07L718.69,19.31L720.79,158.97L721.22,149.03L723.71,17.45L724.13,37.93L725.81,149.66L726.23,142.21L727.47,72.69L727.9,49.72L728.31,42.9L728.74,13.1L730,102.48" style="vector-effect: non-scaling-stroke; fill: none; stroke: rgb(196, 196, 196); stroke-opacity: 1; stroke-width: 2px; opacity: 1;"/></g><g class="points"/><g class="text"/></g><g class="trace scatter trace1055ba" style="stroke-miterlimit: 2; opacity: 1;"><g class="fills"/><g class="errorbars"/><g class="lines"><path class="js-line" d="M0,111.49L27.63,110.76L28.05,110.61L57.74,109.89L58.16,109.74L87.87,109.01L88.29,108.86L117.98,108.14L118.4,107.99L148.09,107.26L148.52,107.12L178.2,106.39L178.63,106.24L208.33,105.51L208.76,105.37L238.45,104.64L238.87,104.49L268.57,103.76L269,103.62L298.69,102.89L299.11,102.74L328.81,102.01L329.24,101.87L358.93,101.14L359.35,100.99L389.05,100.26L389.48,100.12L419.17,99.39L419.59,99.24L449.29,98.52L449.72,98.37L479.41,97.64L479.83,97.49L509.53,96.77L509.96,96.62L539.65,95.89L540.07,95.75L569.77,95.02L570.2,94.87L599.89,94.14L600.31,94L630.01,93.27L630.44,93.12L660.13,92.39L660.55,92.25L690.25,91.52L690.68,91.37L720.37,90.64L720.79,90.5L730,90.35" style="vector-effect: non-scaling-stroke; fill: none; stroke: rgb(53, 155, 208); stroke-opacity: 1; stroke-width: 2px; opacity: 1;"/></g><g class="points"/><g class="text"/></g></g></g><g class="overplot"/><path class="xlines-above crisp" d="M49,250.5H780" style="fill: none; stroke-width: 1px; stroke: rgb(196, 196, 196); stroke-opacity: 1;"/><path class="ylines-above crisp" d="M49.5,50V250" style="fill: none; stroke-width: 1px; stroke: rgb(196, 196, 196); stroke-opacity: 1;"/><g class="overlines-above"/><g class="xaxislayer-above"><path class="xtick ticks crisp" d="M0,251v5" transform="translate(73.02,0)" style="stroke: rgb(196, 196, 196); stroke-opacity: 1; stroke-width: 1px;"/><path class="xtick ticks crisp" d="M0,251v5" transform="translate(173.42000000000002,0)" style="stroke: rgb(196, 196, 196); stroke-opacity: 1; stroke-width: 1px;"/><path class="xtick ticks crisp" d="M0,251v5" transform="translate(273.81,0)" style="stroke: rgb(196, 196, 196); stroke-opacity: 1; stroke-width: 1px;"/><path class="xtick ticks crisp" d="M0,251v5" transform="translate(374.21,0)" style="stroke: rgb(196, 196, 196); stroke-opacity: 1; stroke-width: 1px;"/><path class="xtick ticks crisp" d="M0,251v5" transform="translate(474.61,0)" style="stroke: rgb(196, 196, 196); stroke-opacity: 1; stroke-width: 1px;"/><path class="xtick ticks crisp" d="M0,251v5" transform="translate(575.01,0)" style="stroke: rgb(196, 196, 196); stroke-opacity: 1; stroke-width: 1px;"/><path class="xtick ticks crisp" d="M0,251v5" transform="translate(675.41,0)" style="stroke: rgb(196, 196, 196); stroke-opacity: 1; stroke-width: 1px;"/><path class="xtick ticks crisp" d="M0,251v5" transform="translate(775.81,0)" style="stroke: rgb(196, 196, 196); stroke-opacity: 1; stroke-width: 1px;"/><g class="xtick"><text text-anchor="middle" x="0" y="270.4" transform="translate(73.02,0)" style="font-family: Menlo; font-size: 12px; fill: rgb(196, 196, 196); fill-opacity: 1; white-space: pre;">1880</text></g><g class="xtick"><text text-anchor="middle" x="0" y="270.4" transform="translate(173.42000000000002,0)" style="font-family: Menlo; font-size: 12px; fill: rgb(196, 196, 196); fill-opacity: 1; white-space: pre;">1900</text></g><g class="xtick"><text text-anchor="middle" x="0" y="270.4" transform="translate(273.81,0)" style="font-family: Menlo; font-size: 12px; fill: rgb(196, 196, 196); fill-opacity: 1; white-space: pre;">1920</text></g><g class="xtick"><text text-anchor="middle" x="0" y="270.4" transform="translate(374.21,0)" style="font-family: Menlo; font-size: 12px; fill: rgb(196, 196, 196); fill-opacity: 1; white-space: pre;">1940</text></g><g class="xtick"><text text-anchor="middle" x="0" y="270.4" transform="translate(474.61,0)" style="font-family: Menlo; font-size: 12px; fill: rgb(196, 196, 196); fill-opacity: 1; white-space: pre;">1960</text></g><g class="xtick"><text text-anchor="middle" x="0" y="270.4" transform="translate(575.01,0)" style="font-family: Menlo; font-size: 12px; fill: rgb(196, 196, 196); fill-opacity: 1; white-space: pre;">1980</text></g><g class="xtick"><text text-anchor="middle" x="0" y="270.4" transform="translate(675.41,0)" style="font-family: Menlo; font-size: 12px; fill: rgb(196, 196, 196); fill-opacity: 1; white-space: pre;">2000</text></g><g class="xtick"><text text-anchor="middle" x="0" y="270.4" transform="translate(775.81,0)" style="font-family: Menlo; font-size: 12px; fill: rgb(196, 196, 196); fill-opacity: 1; white-space: pre;">2020</text></g></g><g class="yaxislayer-above"><path class="ytick ticks crisp" d="M49,0h-5" transform="translate(0,243.72)" style="stroke: rgb(196, 196, 196); stroke-opacity: 1; stroke-width: 1px;"/><path class="ytick ticks crisp" d="M49,0h-5" transform="translate(0,181.66)" style="stroke: rgb(196, 196, 196); stroke-opacity: 1; stroke-width: 1px;"/><path class="ytick ticks crisp" d="M49,0h-5" transform="translate(0,119.59)" style="stroke: rgb(196, 196, 196); stroke-opacity: 1; stroke-width: 1px;"/><path class="ytick ticks crisp" d="M49,0h-5" transform="translate(0,57.519999999999996)" style="stroke: rgb(196, 196, 196); stroke-opacity: 1; stroke-width: 1px;"/><g class="ytick"><text text-anchor="end" x="41.6" y="4.199999999999999" transform="translate(0,243.72)" style="font-family: Menlo; font-size: 12px; fill: rgb(196, 196, 196); fill-opacity: 1; white-space: pre;">0</text></g><g class="ytick"><text text-anchor="end" x="41.6" y="4.199999999999999" transform="translate(0,181.66)" style="font-family: Menlo; font-size: 12px; fill: rgb(196, 196, 196); fill-opacity: 1; white-space: pre;">10</text></g><g class="ytick"><text text-anchor="end" x="41.6" y="4.199999999999999" transform="translate(0,119.59)" style="font-family: Menlo; font-size: 12px; fill: rgb(196, 196, 196); fill-opacity: 1; white-space: pre;">20</text></g><g class="ytick"><text text-anchor="end" x="41.6" y="4.199999999999999" transform="translate(0,57.519999999999996)" style="font-family: Menlo; font-size: 12px; fill: rgb(196, 196, 196); fill-opacity: 1; white-space: pre;">30</text></g></g><g class="overaxes-above"/></g></g><g class="polarlayer"/><g class="ternarylayer"/><g class="geolayer"/><g class="funnelarealayer"/><g class="pielayer"/><g class="treemaplayer"/><g class="sunburstlayer"/><g class="glimages"/><defs id="topdefs-ab9d04"><g class="clips"/></defs><g class="layer-above"><g class="imagelayer"/><g class="shapelayer"/></g><g class="infolayer"><g class="g-gtitle"><text class="gtitle" x="0" y="6" text-anchor="start" dy="0.7em" style="font-family: Menlo; font-size: 10px; fill: rgb(35, 35, 35); opacity: 1; font-weight: normal; white-space: pre;">Average Temperature | TOKYO 1876-2019</text></g><g class="g-xtitle"/><g class="g-ytitle"><text class="ytitle" transform="rotate(-90,20,150)" x="20" y="150" text-anchor="middle" style="font-family: Menlo; font-size: 10px; fill: rgb(196, 196, 196); opacity: 1; font-weight: normal; white-space: pre;">Temperature (ºC)</text></g></g></svg>