<svg class="main-svg" xmlns="http://www.w3.org/2000/svg" xmlns:xlink="http://www.w3.org/1999/xlink" width="800" height="300" style="" viewBox="0 0 800 300"><rect x="0" y="0" width="800" height="300" style="fill: rgb(255, 255, 255); fill-opacity: 1;"/><defs id="defs-4eb679"><g class="clips"><clipPath id="clip4eb679xyplot" class="plotclip"><rect width="730" height="200"/></clipPath><clipPath class="axesclip" id="clip4eb679x"><rect x="50" y="0" width="730" height="300"/></clipPath><clipPath class="axesclip" id="clip4eb679y"><rect x="0" y="50" width="800" height="200"/></clipPath><clipPath class="axesclip" id="clip4eb679xy"><rect x="50" y="50" width="730" height="200"/></clipPath></g><g class="gradients"/></defs><g class="bglayer"/><g class="layer-below"><g class="imagelayer"/><g class="shapelayer"/></g><g class="cartesianlayer"><g class="subplot xy"><g class="layer-subplot"><g class="shapelayer"/><g class="imagelayer"/></g><g class="gridlayer"><g class="x"><path class="xgrid crisp" transform="translate(94.62,0)" d="M0,50v200" style="stroke: rgb(238, 238, 238); stroke-opacity: 1; stroke-width: 1px;"/><path class="xgrid crisp" transform="translate(231.7,0)" d="M0,50v200" style="stroke: rgb(238, 238, 238); stroke-opacity: 1; stroke-width: 1px;"/><path class="xgrid crisp" transform="translate(368.77,0)" d="M0,50v200" style="stroke: rgb(238, 238, 238); stroke-opacity: 1; stroke-width: 1px;"/><path class="xgrid crisp" transform="translate(505.85,0)" d="M0,50v200" style="stroke: rgb(238, 238, 238); stroke-opacity: 1; stroke-width: 1px;"/><path class="xgrid crisp" transform="translate(642.92,0)" d="M0,50v200" style="stroke: rgb(238, 238, 238); stroke-opacity: 1; stroke-width: 1px;"/></g><g class="y"><path class="ygrid crisp" transform="translate(0,209.39)" d="M50,0h730" style="stroke: rgb(238, 238, 238); stroke-opacity: 1; stroke-width: 1px;"/><path class="ygrid crisp" transform="translate(0,158.75)" d="M50,0h730" style="stroke: rgb(238, 238, 238); stroke-opacity: 1; stroke-width: 1px;"/><path class="ygrid crisp" transform="translate(0,57.46)" d="M50,0h730" style="stroke: rgb(238, 238, 238); stroke-opacity: 1; stroke-width: 1px;"/></g></g><g class="zerolinelayer"><path class="yzl zl crisp" transform="translate(0,108.1)" d="M50,0h730" style="stroke: rgb(68, 68, 68); stroke-opacity: 1; stroke-width: 1px;"/></g><path class="xlines-below"/><path class="ylines-below"/><g class="overlines-below"/><g class="xaxislayer-below"/><g class="yaxislayer-below"/><g class="overaxes-below"/><g class="plot" transform="translate(50, 50)" clip-path="url('#clip4eb679xyplot')"><g class="scatterlayer mlayer"><g class="trace scatter traceeabc63" style="stroke-miterlimit: 2; opacity: 1;"><g class="fills"/><g class="errorbars"/><g class="lines"><path class="js-line" d="M0,15.3L0.74,23.64L1.31,26.3L3.05,34.75L3.69,25.93L3.13,38.61L5.39,26.68L6.89,33.65L6.45,35.87L8.81,21.53L8.41,26.09L9.03,31.89L10.69,25.45L11.27,32.66L10.69,38.61L12.78,21.7L12.9,19.14L14.79,26.27L14.56,32.44L16.22,17.86L18.24,22.25L18.24,33.27L19.38,18.15L20.64,25.5L20.82,28.42L22.43,37.99L22.11,41.9L23.03,28.81L22.66,45.88L24.61,22.92L24.62,26.71L24.88,29.56L25.5,15.63L25.89,19.28L25.98,34.5L26.53,22.98L27.09,25.45L27.09,29.77L28.69,43.94L28.56,46.84L29.77,29.75L30.59,36.36L33.35,24.76L34.27,29.97L36.12,32.95L35.93,39.02L38.1,32.34L37.96,37.88L39.12,21.34L39.33,28.66L40.91,31.28L42.38,39.77L42.2,44.34L43.65,32.85L43.94,23.71L43.86,28.14L44.04,18.73L45.08,41.31L44.96,43.55L47.17,28.53L48.28,32.15L47.91,35.23L48.33,19.38L48.28,23.8L48.65,10L49.01,27.37L50.44,45.09L52.15,35.8L52.15,42.04L53.07,46.98L53.49,57.5L55.46,47.72L55.83,43.28L54.91,52.33L57.29,46.32L58.78,37.65L58.78,43.76L60.33,55.66L60.12,59.3L60.76,62.47L60.49,66.2L61.5,70.15L60.99,73.44L62.42,56.71L62.28,67.14L63.66,38.04L62.65,70.15L64.07,33.64L64.86,29.75L65.6,45.31L65.78,34.36L66.15,52.33L66.89,56.07L67.17,66.48L67.81,70.7L69.57,33.46L68.55,63.98L71.31,31.85L71.31,39.02L72.79,41.36L73.15,60.28L75.09,40.33L75.18,46.98L75.5,36.03L76.65,41.36L77.76,55.48L79.79,41.93L79.23,49.99L80.34,31.57L81.81,41.63L81.45,38.07L82.37,51.5L82.37,54.79L83.66,66.04L83.88,69.88L85.87,41.81L87.53,47.98L87.87,52.68L88.45,40.53L89.37,50.95L89.37,54.18L89.55,63.02L90.5,40.96L90.47,37.24L91.95,47.48L91.58,53.97L93.05,41.17L94.53,50.95L95.38,40.81L95.63,37.52L96.31,46.66L96.74,41.36L97.62,51.39L97.51,55.23L98.95,48.12L99.63,51.05L99.58,55.67L99.87,58.27L101.24,39.98L101.72,46.8L103.42,47.53L105.22,54.06L105.03,57.89L105.03,60.01L106.69,46.38L106.14,49.86L108.9,34.31L110.74,37.98L110.74,50.37L113.2,32.67L112.96,45.2L115.31,32.99L115.2,36.36L117.19,30.11L117.93,45.1L119.11,24.96L120.08,35.19L121.62,28.14L121.8,31.07L123.77,35.28L123.64,44.37L125.67,36.25L125.72,38.97L127.33,45.88L127.51,38.43L128.8,46.16L130.46,27.99L130.46,22.43L132.67,47.66L132.67,51.37L134.46,34.3L133.78,37.79L135.89,28.09L135.99,32.72L137.09,35.49L137.65,24.22L137.95,31.21L139.53,35.19L139.12,46.98L140.19,37.46L141.7,34.09L142.52,36.77L142.55,47.99L143.54,28.74L144.39,36.31L145.25,43.82L145.75,49.9L145.57,54.47L147.41,34.6L147.71,37.9L147.57,43.28L147.66,46.84L149.75,43.73L149.55,47.28L151.1,32.81L152.39,44.33L153.49,36.36L153.31,28.47L153.31,31.76L155.89,37.21L157.36,34.96L157.92,37.88L158.65,43.92L159.94,46.48L159.21,38.07L160.26,50.05L161.49,45.69L161.42,50.95L162.71,38.2L163.63,35.6L163.9,30.8L164.18,27.92L164.55,43L165.74,34.95L165.66,38.7L167.31,35.23L167.31,38.25L168.24,46.43L169.32,49.98L168.97,53.97L171.26,45.51L171.92,48.08L173.76,48.29L174.91,52.22L175.42,62.56L176.75,46.81L177.13,38.54L176.53,57.81L177.82,40.26L180.21,52.23L180.21,46.02L181.39,61.21L182.34,65.37L182.06,74.49L183.8,57.61L182.79,60.83L187.21,46.7L186.48,50.41L186.48,54.66L188.04,36.15L188.27,40.22L189.61,45.54L189.61,22.98L190.09,40.59L191.64,46.57L191.64,54.11L192.74,35.94L192.88,39.81L195.21,38.61L196.98,41.29L197.57,51.37L199.67,32.61L198.76,40.81L198.64,47.12L200,26.71L199.93,30.39L201.15,35.05L201.22,25.72L201.51,40.04L202.51,47.16L202.32,42.18L204.11,48.49L205.46,42.45L206.56,47.02L208.59,42.23L209.88,47.8L210.06,50.41L211.22,41.08L211.72,32.88L211.76,37.57L211.61,26.38L214.41,55.78L214.12,59.78L216.64,37.63L218.05,33.95L217.99,25.91L217.8,29.93L218.76,41.96L218.91,37.33L220.24,49.31L220.75,42.86L219.83,55.75L221.91,39.83L223.17,35.38L223.15,30.66L226.28,76.12L227.46,55.77L227.75,50.77L227.38,66.59L228.81,43L228.67,34.73L229.23,37.24L229.96,50.41L229.96,44.92L230.48,54.36L231.44,57.88L231.07,61.1L231.99,64.67L231.62,71.25L231.62,74.54L231.73,82.6L233.83,43.77L233.1,60.83L234.39,39.23L233.28,64.12L234.57,35.32L235.7,44.69L237.55,55.07L239.39,44.8L238.81,51.14L240.1,38.61L241.55,45.63L243.14,43.96L243.42,51.57L244.76,37.67L244.34,42.73L246,35.87L247.65,46.29L249.4,39.68L250.93,35.73L250.79,31.21L252.94,42.27L254.51,39L255.64,42.5L256.22,34.91L256.13,46.02L256.13,27.92L256.38,30.84L257.24,39.07L258.89,63.84L260.92,46.6L260.55,53.88L262.03,57.45L262.8,46.27L263.13,48.9L264.42,54.25L265.53,61.1L264.9,65.22L267.45,56.71L268.54,63.39L268.66,58.63L270.5,77.15L271.98,66.77L271.42,69.88L271.79,73.31L274.19,56.07L274.93,69.5L274.56,59.73L275.29,73.72L276.28,77.07L277.4,70L276.84,82.49L276.58,86.2L278.24,74.06L278.32,64.36L279.24,57.84L278.98,31.76L279.35,49.49L278.8,69.33L280.53,61.21L280.64,56.44L282.93,40.03L282.88,44.88L284.47,47.28L284.32,38.61L284.51,42L285.91,49.42L287.82,42.97L288.01,50.22L289.11,35.19L288.56,47.12L290.17,27.51L290.48,21.56L290.86,36.69L291.69,39.89L291.79,43.48L293.06,45.96L294.46,58.73L296.12,46.35L296.42,50.77L296.67,42.18L297.59,49.04L297.68,53.08L298.14,55.34L298.14,60.92L298.88,68.37L299.62,71.73L299.32,79.92L299.16,84.28L301.64,55.96L300.72,71.8L303.62,49.39L303.49,52.97L302.57,63.71L305.15,45.14L305.7,48.85L306.25,53.97L307.83,45.08L307.17,49.86L308.78,36.85L309.84,42.45L310.94,57.96L311.2,53.46L312.96,57.65L313.44,49.97L313.44,54.11L315.32,57.92L315.1,60.04L315.28,65.95L315.65,69.47L317.27,72.24L317.86,73.85L318.35,68.51L319.64,49.77L319.7,56.71L321.48,60.16L321.18,52.05L321.83,69.02L323.02,62.15L323.89,59.38L324.31,54.98L324.31,62.2L325.68,42.9L325.6,50.68L326.15,38.16L326.89,55.34L326.8,59.59L326.89,47.12L326.89,50.41L327.94,63.45L327.63,89.35L330.16,62.84L329.47,76.73L330.76,57.47L330.94,64.8L332.09,71.98L333.76,74.02L333.75,82.56L335,65.05L335.45,55.53L335,71.8L335.55,50.13L339,73.87L338.68,76.79L338.31,83.13L340.16,66.23L340.99,61.89L341.81,65.22L342.27,78.31L343.1,81.33L343.84,84.41L343.66,88.44L343.77,95.82L343.66,99.5L343.84,103.54L344.65,76.73L345.94,65.98L345.44,68.78L348.02,62.11L347.89,66.86L349.37,69.7L352.98,47.88L353.13,41.41L352.69,43.82L353.42,57.17L353.24,66.31L353.65,70.98L353.67,78.2L353.42,53.15L354.48,81.36L354.16,88.98L355.4,91.61L355.86,95.05L356.19,79.61L356.25,86.42L357.79,90.92L357.85,105.44L358.77,80.03L360.61,100.39L360.5,104.43L362.27,73.1L361.9,95.11L363,64.9L362.45,69.33L364.01,62.24L364.48,55.53L364.85,68.92L365.49,84.28L366.8,87.16L366.32,94.18L366.2,97.76L366.51,100.39L367.8,80.39L367.8,87.16L368.9,52.6L369.13,63.12L369.27,67.23L368.72,48.76L370.19,59.18L370.65,89.21L371.64,92.56L371.67,95.98L372.55,100.1L375.11,72.35L375.9,68.58L377.01,76.16L376.64,63.94L377.32,72.82L377.93,68.51L377.19,84L379.11,76.73L380.33,67.59L381.06,63.57L382.44,98.13L383.55,101.01L383.46,114.95L383.46,118.05L384.38,128.02L385.75,93.84L385.36,104.16L384.75,106.9L384.75,114.86L386.59,78.84L386.78,88.39L387.7,91.76L388.12,109.45L389.05,112.11L390.28,95.75L391.31,77.89L391.29,89.62L390.46,92.09L391.75,61.92L393.04,87.84L393.69,97.51L394.7,101.55L393.96,118.24L396.25,91.98L395.62,95.93L395.8,100.73L397.52,87.52L397.65,76.25L397.49,80.81L397.83,64.94L399.44,91.39L399.81,88.02L399.31,97.58L399.42,101.42L399.31,104.02L401.04,74.76L400.87,79.89L401.92,69.77L400.96,88.25L402.62,57.81L403.39,76.42L403.36,72.07L404.1,82.77L404.28,88.8L404.65,96.21L405.66,99.09L406.31,102.97L406.86,81.95L406.68,92.64L407.72,74.63L407.78,78.65L406.86,99.22L408.33,58.09L408.33,62.47L408.33,52.97L409.99,92.37L412.02,83.08L412.09,76.84L412.46,90.89L412.76,93.74L412.76,97.99L413.31,84.07L414.5,76.39L414.35,79.75L414.78,70.7L415.52,84.21L415.71,78.93L417.07,100.01L416.81,104.53L416.99,111.02L418.36,76.08L417.92,95.79L419.28,67.71L419.3,71.52L418.28,86.33L419.57,59.32L420.68,70.98L421.23,92.85L422.56,86.17L422.04,103.45L423.81,78.59L423.08,92.18L424.34,85.2L424.37,70.7L426.09,78.56L425.95,82.33L426.68,85.33L426.95,73.99L427.5,81.95L428.9,86.61L428.47,93.94L430.02,80.57L432.38,97.78L433.76,100.32L433.95,111.38L433.7,114.81L435.74,99.57L435.5,118.11L435.68,105.59L435.24,121.16L436.98,82.97L436.9,94.29L436.9,74.81L437.08,78.16L437.51,102.56L438.37,97.68L438.06,107.27L439.87,86.84L439.94,95.11L439.84,76.32L439.66,82.77L442.04,86.58L441.87,102.56L442.06,76.09L442.06,82.49L442.98,89.62L443.71,98.67L443.62,102.38L444.78,106.19L444.5,110.58L445.14,113.8L445,117.51L444.87,120.65L446.93,104.41L446.29,117.32L446.29,120.61L447.89,88.34L447.03,111.02L449.4,103.77L449.35,86.76L449.79,110.74L451.22,89.11L452.82,73.29L453.11,77.47L452.93,68.51L453.81,81.67L454.54,85.96L455.69,89.53L456.06,96.25L456.61,98.9L456.69,86.28L457.35,82.99L457.84,89.49L457.44,101.76L459.01,72.53L459.01,75.82L459.01,79.11L460.08,90.01L461.22,96.94L462.09,100.67L461.93,104.24L462.93,90.92L463.39,96.64L463.98,83.43L465.09,90.66L465.46,97.85L465.83,86.61L466.47,90.93L466.62,102.01L468.04,97.58L467.98,105.22L467.55,111.88L467.89,115.84L467.59,120.45L470.98,71.25L473.01,80.85L472.46,97.58L475.09,82.92L474.3,92.28L475.93,78.77L475.78,75.09L476.42,89.35L477.62,92.31L477.83,106.86L477.89,111.22L480.57,82.33L480.57,85.62L480.75,98.95L481.67,91.18L483.7,98.99L483.33,90.17L484.8,119.11L485.8,101.2L485.91,104.98L488.12,75.36L488.12,78.65L488.12,81.67L489.6,76.46L489.6,79.75L489.53,87.06L490.79,89.62L490.7,100.09L490.89,103.39L491.07,116.09L492.31,78.46L492.51,93.57L494.09,101.33L493.65,104.57L495.2,90.84L495.31,94.67L495.68,100.8L496.84,104.25L496.83,108.19L497.31,112.84L496.97,116.91L497.22,127.58L497.98,100.8L499.55,87.57L499.73,91L500.28,94.42L500.38,101.49L501.2,114.95L501.2,118.24L501.94,124.89L502.84,129.12L503.71,132.68L503.49,136.41L503.6,139.26L504.23,119.19L503.97,126.65L505.58,94.08L505.26,100.87L505.63,84.48L505.26,91.41L505.63,79.11L507.03,104.05L506.73,100.87L507.93,94.77L509.87,80.95L509.87,76.19L512.08,104.71L512.08,108L512.54,119.31L513.73,121.99L513.45,126.07L515.8,95.44L515.02,108.27L514.84,122.53L516.13,77.19L516.13,81.26L515.58,83.32L517.24,101.97L517.24,105.26L518.16,124.73L519.19,129.28L519.26,134.33L520.44,123.25L521.37,107.7L520.37,131.04L521.29,88.66L521.47,101.75L522.76,108.82L522.86,122.53L523.95,126.95L523.87,131.31L524.61,135.56L526.45,79.07L526.26,86.79L526.45,89.35L526.68,72.28L526.45,75.09L527.12,96.48L526.63,68.14L527.83,92.57L527.74,78.93L528.55,107.07L529.21,110.06L529.95,118.53L529.95,121.77L529.58,132.45L530.76,90.89L530.5,105.8L531.36,72.44L530.69,86.06L530.69,109.1L531.98,64.26L533.55,74.63L533.82,69.88L533.9,80.06L534.37,86.33L534.74,106.54L535.75,109.51L535.66,117.23L536.4,120.07L538.69,78.08L538.61,82.77L539.11,73.21L540.08,86.24L540.27,71.8L540.64,103.25L541.19,107.86L541.08,111.4L541.85,114.35L542.43,117.79L542.3,121.89L542.48,127.33L543.68,87.98L543.22,113.48L544.57,74.42L544.62,79.15L544.51,84.55L544.51,60.83L544.32,70.06L545.8,78.93L546.53,107.08L547.46,110.6L547.27,121.11L547.09,124.45L547.05,127.8L548.82,105.75L548.75,111.84L550.17,98.01L550.22,103.13L551.6,97.3L551.97,108.27L553.08,110.74L553.01,125.59L553.43,130.06L553.17,135.79L554.91,96.79L554.27,115.4L555.75,92.4L555.75,86.61L555.01,89.9L556.73,97.3L556.91,109.64L557.96,113.21L558.54,117.4L558.33,121.89L559.01,125.71L558.7,130.16L558.88,139.95L559.88,88.8L559.62,111.29L560.78,65.43L559.8,84.96L559.8,114.58L559.8,121.16L561.09,59.27L561.28,54.25L562.01,64.12L562.63,98.58L562.93,106.49L564.41,143.51L564.22,147.58L564.04,150.23L566.14,127.75L565.7,133.78L565.7,138.3L568.18,82.22L568,86.2L568.59,77.75L570.42,82.85L569.94,78.93L572.38,98.83L573.44,101.87L574.54,119.61L575.43,124.23L575.4,139.72L575.65,143.03L578.3,93.63L578.41,96.75L579.63,103.61L580.25,108.96L581.18,99.91L580.99,103.61L583.94,58.66L583.94,62.47L583.94,52.14L584.12,55.07L585.05,66.31L585.6,104.21L585.97,110.83L587.63,136.8L587.32,140.09L587.44,142.46L589.01,102.72L588.73,111.84L588.73,115.13L588.73,128.29L589.65,89.21L589.84,99.22L588.92,132.54L589.73,82.11L589.28,84.96L591.31,102.97L592.05,97.85L592.23,106.52L591.94,120.18L592.31,124.23L592.14,131.24L593.71,102.75L593.89,98.54L594.38,106.99L594.81,112.39L596.55,106.73L596.55,101.03L597.76,114.75L598.13,124.56L598.31,128.02L598.5,135.29L598.87,106.67L599.79,67.65L599.79,59.46L599.23,114.31L601.08,76.19L603.66,115.73L604.34,118.97L604.76,125.94L604.95,129.66L604.89,138.72L605.68,109.78L607.62,132.41L608.26,136.38L609.87,148.08L610.59,152.32L610.47,156.63L613.05,85.4L613.24,88.34L612.94,75.42L613.61,82.04L614.9,87.4L614.9,81.12L615.36,96.14L615.73,100.05L618.77,111.67L618.95,106.76L620.09,140.03L621.43,143.93L621.53,151.33L622.16,128.29L621.9,138.99L622.76,110.24L622.27,113.9L622.27,120.34L622.27,123.63L623.27,91.36L623.37,106.49L623.19,82.77L623.37,86.33L624.54,111.29L625.03,124L625.46,128.29L626.51,137.89L626.51,141.41L627,144.89L626.69,148.63L626.69,150.92L628.5,128.46L627.98,139.26L629.75,123L629.82,127.38L629.64,115.34L630.74,132.54L632.16,124.64L631.85,128.57L631.88,137.93L631.74,148.59L633.02,133.23L633.14,144.47L634.43,93.12L635.35,81.74L635.72,91.73L636.53,96.15L636.7,105.44L636.82,109.46L637.38,125.69L637.75,129.44L639.26,146.34L640.14,150.17L641.91,156.76L641.98,152.98L642.35,167.15L643.29,171.44L643.27,178.62L643.53,183.36L643.46,190L645.01,127.42L644.75,151.6L644.56,171.08L645.74,69.82L645.85,91.13L646.04,94.79L645.85,64.67L648.21,99.83L647.42,111.29L648.06,114.44L648.43,87.7L648.62,91.36L650.3,99.8L650.17,115.79L651.47,95.93L651.38,74.54L652.55,101.23L652.97,113.32L653.22,116.64L654.05,140.02L655.09,144.11L655.07,152.43L656.43,138.77L656.36,145.16L657.4,124.23L656.91,126.65L658.02,115.82L658.57,106.9L658.57,110.19L659.49,123.36L659.57,127.82L660.5,116.5L661.7,105.17L661.15,108.55L661.52,116.78L663.36,86.97L664.41,106.2L664.1,101.42L664.79,115.88L664.83,124.51L665.02,117.87L665.57,127.56L665.94,137.07L666.49,140.54L666.36,150.59L667.54,153.25L667.97,138.72L668.33,148.59L668.7,152.7L669.44,166.69L670.55,171.45L670.73,184.79L671.65,164.59L671.47,168.33L671.84,156.82L671.84,160.11L672.84,111.24L672.02,153.52L673.31,94.36L673.13,107.52L673.68,89.35L675.23,58.33L675.15,66.31L675.15,46.75L676.07,73.72L676.07,77.01L676.81,94.83L676.9,98.88L679.39,127.47L680.13,130.85L682.61,154.48L682.89,158.37L684.07,115.46L683.81,147.49L683.87,151.42L684.46,90.72L684.18,110.74L685.35,73.93L685.38,85.51L684.37,87.7L685.47,59.13L685.66,62.34L686.58,73.99L687.31,87.7L687.5,91.09L687.35,94.71L688.24,97.85L688.42,108.18L689.43,111.84L689.3,118.15L689.52,125.33L689.3,135.48L691.37,105.91L691.46,118.97L692.84,125.19L692.84,118.83L693.76,128.98L693.8,149.41L695.68,151.37L697.2,118.74L696.9,126.37L696.53,152.43L697.63,78.38L697.45,81.12L699.48,124.56L699.97,110.74L699.11,116.78L699.66,128.16L699.66,144.61L700.29,103.06L700.21,106.63L701.22,85.61L700.4,93.19L700.4,96.48L700.21,99.22L703.06,80.13L703.53,85.11L703.53,74.72L704.63,105.99L704.63,109.19L704.82,125.83L704.82,129.12L704.91,132.75L705.85,137.07L706.18,143.49L707.4,135.97L708.93,158.92L710.41,164.37L710.22,168.45L710.84,171.63L710.53,178.07L712.08,166.58L712.01,176.7L713.71,80.99L713.63,84.8L713.66,87.84L713.85,91.43L712.93,94.29L712.93,117.32L713.63,42.18L713.66,55.62L713.85,58.69L713.66,72.07L713.85,75.2L713.85,77.83L714.95,82.22L714.95,85.51L715.91,90.12L715.51,105.94L717.53,95.38L718.45,109.46L718.45,112.75L718.82,115.22L719.62,99.95L721.77,143.61L721.96,147.58L723.25,129.39L723.25,135.97L723.43,140.18L724.23,150.37L726.01,155.91L726.01,151.33L727.12,162.89L727.7,165.54L727.36,169.8L727.76,181.84L728.29,151.88L727.85,184.79L728.66,120.29L728.41,146.94L729.03,88.03L728.77,115.13L728.59,162.3L729.14,61.38L729.14,80.85" style="vector-effect: non-scaling-stroke; fill: none; stroke: rgb(196, 196, 196); stroke-opacity: 1; stroke-width: 2px; opacity: 1;"/></g><g class="points"/><g class="text"/></g><g class="trace scatter trace8fe454" style="stroke-miterlimit: 2; opacity: 1;"><g class="fills"/><g class="errorbars"/><g class="lines"><path class="js-line" d="M0,26.86L25.5,30.35L25.89,30.4L228.81,58.18L228.67,58.16L229.04,58.21L264.98,63.13L265.53,63.21L264.9,63.12L393.04,80.67L393.04,80.67L393.1,80.67L729.14,126.68L729.14,126.68" style="vector-effect: non-scaling-stroke; fill: none; stroke: rgb(53, 155, 208); stroke-opacity: 1; stroke-width: 2px; opacity: 1;"/></g><g class="points"/><g class="text"/></g></g></g><g class="overplot"/><path class="xlines-above crisp" style="fill: none; stroke-width: 1px; stroke: rgb(196, 196, 196); stroke-opacity: 1;" d="M49,250.5H780"/><path class="ylines-above crisp" style="fill: none; stroke-width: 1px; stroke: rgb(196, 196, 196); stroke-opacity: 1;" d="M49.5,50V250"/><g class="overlines-above"/><g class="xaxislayer-above"><path class="xtick ticks crisp" d="M0,251v5" transform="translate(94.62,0)" style="stroke: rgb(196, 196, 196); stroke-opacity: 1; stroke-width: 1px;"/><path class="xtick ticks crisp" d="M0,251v5" transform="translate(231.7,0)" style="stroke: rgb(196, 196, 196); stroke-opacity: 1; stroke-width: 1px;"/><path class="xtick ticks crisp" d="M0,251v5" transform="translate(368.77,0)" style="stroke: rgb(196, 196, 196); stroke-opacity: 1; stroke-width: 1px;"/><path class="xtick ticks crisp" d="M0,251v5" transform="translate(505.85,0)" style="stroke: rgb(196, 196, 196); stroke-opacity: 1; stroke-width: 1px;"/><path class="xtick ticks crisp" d="M0,251v5" transform="translate(642.92,0)" style="stroke: rgb(196, 196, 196); stroke-opacity: 1; stroke-width: 1px;"/><path class="xtick ticks crisp" d="M0,251v5" transform="translate(780,0)" style="stroke: rgb(196, 196, 196); stroke-opacity: 1; stroke-width: 1px;"/><g class="xtick"><text text-anchor="middle" x="0" y="270.4" transform="translate(94.62,0)" style="font-family: Menlo; font-size: 12px; fill: rgb(196, 196, 196); fill-opacity: 1; white-space: pre;">−5M</text></g><g class="xtick"><text text-anchor="middle" x="0" y="270.4" transform="translate(231.7,0)" style="font-family: Menlo; font-size: 12px; fill: rgb(196, 196, 196); fill-opacity: 1; white-space: pre;">−4M</text></g><g class="xtick"><text text-anchor="middle" x="0" y="270.4" transform="translate(368.77,0)" style="font-family: Menlo; font-size: 12px; fill: rgb(196, 196, 196); fill-opacity: 1; white-space: pre;">−3M</text></g><g class="xtick"><text text-anchor="middle" x="0" y="270.4" transform="translate(505.85,0)" style="font-family: Menlo; font-size: 12px; fill: rgb(196, 196, 196); fill-opacity: 1; white-space: pre;">−2M</text></g><g class="xtick"><text text-anchor="middle" x="0" y="270.4" transform="translate(642.92,0)" style="font-family: Menlo; font-size: 12px; fill: rgb(196, 196, 196); fill-opacity: 1; white-space: pre;">−1M</text></g><g class="xtick"><text text-anchor="middle" x="0" y="270.4" transform="translate(780,0)" style="font-family: Menlo; font-size: 12px; fill: rgb(196, 196, 196); fill-opacity: 1; white-space: pre;">0</text></g></g><g class="yaxislayer-above"><path class="ytick ticks crisp" d="M49,0h-5" transform="translate(0,209.39)" style="stroke: rgb(196, 196, 196); stroke-opacity: 1; stroke-width: 1px;"/><path class="ytick ticks crisp" d="M49,0h-5" transform="translate(0,158.75)" style="stroke: rgb(196, 196, 196); stroke-opacity: 1; stroke-width: 1px;"/><path class="ytick ticks crisp" d="M49,0h-5" transform="translate(0,108.1)" style="stroke: rgb(196, 196, 196); stroke-opacity: 1; stroke-width: 1px;"/><path class="ytick ticks crisp" d="M49,0h-5" transform="translate(0,57.46)" style="stroke: rgb(196, 196, 196); stroke-opacity: 1; stroke-width: 1px;"/><g class="ytick"><text text-anchor="end" x="41.6" y="4.199999999999999" transform="translate(0,209.39)" style="font-family: Menlo; font-size: 12px; fill: rgb(196, 196, 196); fill-opacity: 1; white-space: pre;">−4</text></g><g class="ytick"><text text-anchor="end" x="41.6" y="4.199999999999999" transform="translate(0,158.75)" style="font-family: Menlo; font-size: 12px; fill: rgb(196, 196, 196); fill-opacity: 1; white-space: pre;">−2</text></g><g class="ytick"><text text-anchor="end" x="41.6" y="4.199999999999999" transform="translate(0,108.1)" style="font-family: Menlo; font-size: 12px; fill: rgb(196, 196, 196); fill-opacity: 1; white-space: pre;">0</text></g><g class="ytick"><text text-anchor="end" x="41.6" y="4.199999999999999" transform="translate(0,57.46)" style="font-family: Menlo; font-size: 12px; fill: rgb(196, 196, 196); fill-opacity: 1; white-space: pre;">2</text></g></g><g class="overaxes-above"/></g></g><g class="polarlayer"/><g class="ternarylayer"/><g class="geolayer"/><g class="funnelarealayer"/><g class="pielayer"/><g class="treemaplayer"/><g class="sunburstlayer"/><g class="glimages"/><defs id="topdefs-4eb679"><g class="clips"/></defs><g class="layer-above"><g class="imagelayer"/><g class="shapelayer"><path data-index="0" fill-rule="evenodd" d="M670.34,250H780V50H670.34Z" clip-path="url('#clip4eb679x')" style="opacity: 0.25; stroke: rgb(0, 0, 0); stroke-opacity: 0; fill: rgb(96, 195, 155); fill-opacity: 1; stroke-width: 0px;"/><path data-index="1" fill-rule="evenodd" d="M50,70.12L780,70.12" clip-path="url('#clip4eb679y')" style="opacity: 1; stroke: rgb(199, 71, 63); stroke-opacity: 1; fill: rgb(0, 0, 0); fill-opacity: 0; stroke-dasharray: 3px, 3px; stroke-width: 1px;"/></g></g><g class="infolayer"><g class="g-gtitle"><text class="gtitle" x="0" y="6" text-anchor="start" dy="0.7em" style="font-family: Menlo; font-size: 10px; fill: rgb(35, 35, 35); opacity: 1; font-weight: normal; white-space: pre;">Global Temperature Relative to Peak Holocene Temperature</text></g><g class="g-xtitle"><text class="xtitle" x="415" y="290" text-anchor="middle" style="font-family: Menlo; font-size: 10px; fill: rgb(196, 196, 196); opacity: 1; font-weight: normal; white-space: pre;">Time (Millions of Years Before Present)</text></g><g class="g-ytitle"><text class="ytitle" transform="rotate(-90,20,150)" x="20" y="150" text-anchor="middle" style="font-family: Menlo; font-size: 10px; fill: rgb(196, 196, 196); opacity: 1; font-weight: normal; white-space: pre;">Temperature (ºC)</text></g><g class="annotation" data-index="0" style="opacity: 1;"><g class="annotation-text-g" transform="rotate(0,729,57.5)"><g class="cursor-pointer" transform="translate(678, 50)"><rect class="bg" x="0.5" y="0.5" width="101" height="14" style="stroke-width: 1px; stroke: rgb(0, 0, 0); stroke-opacity: 0; fill: rgb(0, 0, 0); fill-opacity: 0;"/><text class="annotation-text" text-anchor="middle" x="50.78125" y="10.5" style="font-family: Menlo; font-size: 9px; fill: rgb(35, 35, 35); fill-opacity: 1; white-space: pre;">Last 800,000 Years</text></g></g></g><g class="annotation" data-index="1" style="opacity: 1;"><g class="annotation-text-g" transform="rotate(0,415,62.620000000000005)"><g class="cursor-pointer" transform="translate(400, 55)"><rect class="bg" x="0.5" y="0.5" width="30" height="14" style="stroke-width: 1px; stroke: rgb(0, 0, 0); stroke-opacity: 0; fill: rgb(0, 0, 0); fill-opacity: 0;"/><text class="annotation-text" text-anchor="middle" x="15.546875" y="10.5" style="font-family: Menlo; font-size: 9px; fill: rgb(199, 71, 63); fill-opacity: 1; white-space: pre;">1.5ºC</text></g></g></g><g class="annotation" data-index="2" style="opacity: 1;"><g class="annotation-text-g" transform="rotate(0,101,57.5)"><g class="cursor-pointer" transform="translate(50, 50)"><rect class="bg" x="0.5" y="0.5" width="101" height="14" style="stroke-width: 1px; stroke: rgb(0, 0, 0); stroke-opacity: 0; fill: rgb(0, 0, 0); fill-opacity: 0;"/><text class="annotation-text" text-anchor="middle" x="50.78125" y="10.5" style="font-family: Menlo; font-size: 9px; fill: rgb(53, 155, 208); fill-opacity: 1; white-space: pre;">trend = -0.74/1Myr</text></g></g></g></g></svg>