<svg class="main-svg" xmlns="http://www.w3.org/2000/svg" xmlns:xlink="http://www.w3.org/1999/xlink" width="800" height="300" style="" viewBox="0 0 800 300"><rect x="0" y="0" width="800" height="300" style="fill: rgb(255, 255, 255); fill-opacity: 1;"/><defs id="defs-324033"><g class="clips"><clipPath id="clip324033xyplot" class="plotclip"><rect width="730" height="200"/></clipPath><clipPath class="axesclip" id="clip324033x"><rect x="50" y="0" width="730" height="300"/></clipPath><clipPath class="axesclip" id="clip324033y"><rect x="0" y="50" width="800" height="200"/></clipPath><clipPath class="axesclip" id="clip324033xy"><rect x="50" y="50" width="730" height="200"/></clipPath></g><g class="gradients"/></defs><g class="bglayer"/><g class="layer-below"><g class="imagelayer"/><g class="shapelayer"/></g><g class="cartesianlayer"><g class="subplot xy"><g class="layer-subplot"><g class="shapelayer"/><g class="imagelayer"/></g><g class="gridlayer"><g class="x"><path class="xgrid crisp" transform="translate(138.49,0)" d="M0,50v200" style="stroke: rgb(238, 238, 238); stroke-opacity: 1; stroke-width: 1px;"/><path class="xgrid crisp" transform="translate(230.14,0)" d="M0,50v200" style="stroke: rgb(238, 238, 238); stroke-opacity: 1; stroke-width: 1px;"/><path class="xgrid crisp" transform="translate(321.78,0)" d="M0,50v200" style="stroke: rgb(238, 238, 238); stroke-opacity: 1; stroke-width: 1px;"/><path class="xgrid crisp" transform="translate(413.42,0)" d="M0,50v200" style="stroke: rgb(238, 238, 238); stroke-opacity: 1; stroke-width: 1px;"/><path class="xgrid crisp" transform="translate(505.07,0)" d="M0,50v200" style="stroke: rgb(238, 238, 238); stroke-opacity: 1; stroke-width: 1px;"/><path class="xgrid crisp" transform="translate(596.71,0)" d="M0,50v200" style="stroke: rgb(238, 238, 238); stroke-opacity: 1; stroke-width: 1px;"/><path class="xgrid crisp" transform="translate(688.36,0)" d="M0,50v200" style="stroke: rgb(238, 238, 238); stroke-opacity: 1; stroke-width: 1px;"/></g><g class="y"><path class="ygrid crisp" transform="translate(0,205.56)" d="M50,0h730" style="stroke: rgb(238, 238, 238); stroke-opacity: 1; stroke-width: 1px;"/><path class="ygrid crisp" transform="translate(0,161.11)" d="M50,0h730" style="stroke: rgb(238, 238, 238); stroke-opacity: 1; stroke-width: 1px;"/><path class="ygrid crisp" transform="translate(0,116.67)" d="M50,0h730" style="stroke: rgb(238, 238, 238); stroke-opacity: 1; stroke-width: 1px;"/><path class="ygrid crisp" transform="translate(0,72.22)" d="M50,0h730" style="stroke: rgb(238, 238, 238); stroke-opacity: 1; stroke-width: 1px;"/></g></g><g class="zerolinelayer"/><path class="xlines-below"/><path class="ylines-below"/><g class="overlines-below"/><g class="xaxislayer-below"/><g class="yaxislayer-below"/><g class="overaxes-below"/><g class="plot" transform="translate(50, 50)" clip-path="url('#clip324033xyplot')"><g class="scatterlayer mlayer"><g class="trace scatter trace53e8d5" style="stroke-miterlimit: 2;"><g class="fills"><g><path class="js-fill" d="M729.84,200L0,200L0,115.11L1.87,115.87L3.03,113.24L4.81,107.11L5.1,109.33L5.89,108.84L6.43,104.27L7.31,101.64L7.66,103.02L8.82,98L9.6,89.82L9.81,89.73L10.48,85.82L10.93,84.31L11.66,86.49L13.16,90.27L13.97,87.96L15.08,90.58L15.56,89.47L16.4,92.09L16.72,89.56L17.55,91.6L18.07,90.76L19.2,90.53L20.05,91.6L20.6,93.87L21.5,93.11L23.34,97.78L24.23,97.38L24.56,98L24.97,94.36L25.47,94.13L27,101.6L27.36,101.16L28.2,103.24L28.79,105.11L29.69,104.13L30.04,103.64L30.86,101.07L31.4,100.4L31.69,101.6L31.92,99.69L32.25,104.44L32.66,104L33.4,105.78L33.96,108.4L34.84,108.04L36.32,103.16L36.69,103.29L36.89,104.31L37.16,102.58L37.53,104.44L38.16,106.36L39.66,110.89L40.43,112.98L40.81,114.89L41.73,112.67L42.07,116.44L42.78,115.51L44.02,118.22L44.28,117.87L46.51,119.64L47.11,119.64L47.53,118.62L48.27,119.91L49.63,119.47L50.33,119.82L51.28,118.98L51.72,120.93L52.42,121.51L52.69,120.62L53.37,120.49L53.77,117.78L55.56,106.4L56.13,106.09L57.22,109.29L57.78,110.53L58.05,110.36L58.57,107.82L59.8,109.38L60.45,108.49L60.82,109.42L61.57,108.93L62.51,109.33L63.78,108.71L65.36,109.11L66.16,107.51L67.32,108.31L67.88,106.53L69.08,105.16L70.08,106.09L71.64,113.24L72.14,116.53L73.07,118.09L73.73,114.27L75.85,101.29L76.37,103.24L77.59,101.2L78.52,102.89L81.41,102.36L84.41,98.62L85.32,98.44L85.72,96.04L86.67,97.24L87.18,96.53L88.1,97.64L88.3,98.09L89.92,98.36L90.36,99.56L91.1,98.8L91.31,99.38L94.3,94.4L94.51,94.8L95.16,95.2L95.5,95.82L95.72,95.38L96.11,95.96L96.3,95.96L96.7,95.64L96.91,96.49L97.91,94.84L98.13,95.29L98.53,96L98.74,93.33L99.18,95.64L99.39,95.29L99.81,93.38L100.47,95.6L100.68,95.2L101.1,96.44L102.44,98.98L102.72,100.31L103.37,100.67L103.83,102.36L105.3,103.33L105.62,102.8L106.37,101.07L106.91,102.36L107.77,103.91L108.05,102.93L109.6,97.42L110.18,97.78L111.79,104.89L112.12,103.38L112.65,102.22L113.63,105.02L115.59,113.42L116.01,114.44L116.59,113.51L116.93,114.4L118,117.56L118.75,120.67L120,123.73L120.53,123.24L123.1,115.96L124,116L124.49,116.53L125.43,115.64L127.37,118.93L128.34,115.91L130.34,111.82L131.33,114.13L132,114.98L132.94,117.64L133.53,117.42L134.68,114.67L135.29,116.53L136.47,113.42L137.07,114.62L138.31,115.33L139.11,116.18L140.25,113.51L140.99,113.73L142.33,115.38L144.57,115.96L145.41,116.58L146.98,113.64L148.06,114.22L149.4,113.82L150.22,114.62L152.6,111.33L154.16,111.16L154.94,111.69L156.26,108.89L159.3,94.53L160.65,93.96L163.29,90.93L164.55,89.82L165.85,87.87L167.05,87.82L168.25,87.78L169.36,86.22L171.55,84.62L172.63,85.47L173.74,84.8L174.86,86.84L178.56,93.73L179.84,94.27L182.99,99.56L183.79,102.67L184.27,103.87L185.12,103.82L187.54,94.18L187.96,96.36L189,99.69L190.27,94.49L191.8,88.8L192.27,90.53L194.38,100.44L197.12,106.4L197.47,108.13L198.06,106.71L201.3,87.6L201.81,89.29L202.78,88.31L203.26,88.31L204.17,87.78L204.59,89.38L205.43,88.04L205.84,88.09L207.02,89.91L207.41,90.53L208.16,88.18L208.54,89.07L209.29,88.09L209.67,88.31L210.74,88.8L211.1,87.56L212.16,87.47L212.52,86.89L213.93,88.27L214.28,87.73L214.63,87.82L214.99,88.27L215.36,89.96L216.89,93.29L217.38,95.96L217.73,95.73L218.16,96.93L218.61,97.07L219.08,98.53L220.05,97.69L220.25,97.91L220.52,95.78L221.58,90.84L221.91,88.67L222.85,92.89L223.32,96.04L224.42,100.31L225.03,100.62L225.68,102.09L225.93,101.29L226.42,99.42L227.16,101.47L227.9,102.27L229.97,107.2L230.48,110L231.45,109.07L232.51,106.8L234.62,106.53L235.68,107.51L236.77,109.51L237.86,108.89L240.01,105.38L241.05,108.27L242.08,108.89L243.1,111.38L244.13,111.2L244.55,115.33L246.4,109.16L246.9,106.04L247.67,101.91L248.41,102.09L250.51,100.13L251.2,98.76L254.42,92.49L256.19,91.78L257.34,89.91L257.93,90.98L259.72,90.13L260.34,92L262.32,94.13L263.02,92.44L263.7,95.47L264.4,94.93L265.09,96.27L265.8,93.2L266.5,94.67L267.14,94.13L269.19,96.04L269.83,95.96L271.16,96.89L271.86,97.24L272.53,97.42L273.24,98.58L275.98,94.89L276.68,94.93L278.78,94.09L279.52,93.73L280.22,93.47L280.94,91.69L281.64,90.36L282.32,91.87L282.99,92.18L283.21,89.2L283.65,87.64L283.93,92.93L284.32,92.44L284.99,94.62L285.65,97.2L286.36,96.49L287.06,96.44L287.8,97.24L289.33,97.16L290.13,98.98L290.95,100.71L291.8,100.53L292.68,102.76L293.07,101.87L293.62,97.2L294.5,93.73L295.34,94.84L296.28,96.53L297.25,96.4L299.14,90.84L299.45,91.6L300.1,91.69L300.51,96.58L301.12,98.13L301.55,102.8L302.15,104.22L302.6,108.22L304.48,109.6L305.77,109.16L308.27,106.67L308.68,108.8L310.75,113.6L312.01,115.24L314.55,110.04L315.7,107.42L317.93,114.44L318.97,114.09L322.15,108.93L323.21,110.58L324.29,110.36L325.29,107.51L327.44,110.62L328.95,111.51L330.06,110.22L331.16,110.53L332.23,110.36L333.32,110.98L335.34,106.76L336.39,107.73L337.83,99.02L338.63,102.36L340.84,87.96L341.41,86.53L342.45,79.64L342.91,80.76L343.43,81.02L344.46,79.73L344.98,81.6L345.52,80.62L346.56,78.31L347.06,79.47L348.49,77.96L348.99,79.2L349.46,78.49L350.37,79.24L350.81,77.16L351.5,79.29L352.43,82.27L353.33,77.82L355.07,74L355.86,74.4L356.61,77.91L357.33,73.56L358.71,73.07L359.38,75.73L360.7,75.33L361.38,77.11L362.71,77.47L363.38,74.18L364.75,74.13L365.47,76.84L366.97,77.2L370.2,84.13L371.1,78.4L372.04,84.67L372.64,81.64L374.43,88.84L377.91,84.8L378.59,82.4L381.09,90.76L382.5,90.31L383.82,93.73L385.29,93.33L386.69,99.11L390.28,97.96L391.71,100.18L393.21,104.58L394.67,111.16L396.16,110.27L398.77,108.31L400.99,110.58L403.05,117.42L404.71,117.29L408.95,107.02L410.19,106.93L412.59,101.73L414.72,102.09L417.19,108.98L418.55,108.8L419.78,110.8L420.84,88.84L422.59,95.91L423.2,93.51L423.94,92.49L424.52,86.36L425.8,72.98L426.26,76.4L426.69,67.29L427.11,71.82L427.27,71.51L428.68,78.84L429.17,79.24L429.84,82.22L430.99,77.73L433.28,82.67L433.97,81.69L435.3,84.31L435.99,84.27L438.2,89.24L439,86.31L439.85,96.27L440.6,91.02L441.37,88.18L442.01,78.84L442.58,90.31L443.23,85.73L443.89,85.91L444.56,88.18L445.98,93.78L446.76,94.31L448.25,99.47L448.84,98.76L449.99,99.64L450.86,91.2L452.36,88.8L452.98,93.02L453.9,93.24L454.77,95.11L455.57,93.78L456.42,95.07L458.76,103.51L460.59,105.29L461.83,105.47L462.56,108.13L463.22,108.44L463.82,107.73L465.35,102.04L465.88,95.6L468.28,97.6L468.74,97.16L469.57,99.38L470.25,98.67L471.72,97.2L473.57,100.58L478.55,114.13L479.45,111.82L480.39,113.73L481.32,113.82L483.2,117.91L484.15,111.64L486.02,116.8L486.69,116.13L487.72,105.91L488.33,111.16L489.38,98.62L490.83,104.62L492.67,108.58L493.19,106.84L494.74,109.38L496.17,109.33L499.35,113.16L500.17,112.58L500.97,113.16L501.76,104.93L502.56,111.02L504.8,104.58L506.86,102.49L507.38,97.6L508.7,87.87L509.03,82.8L509.69,75.47L510,76L510.59,83.02L513.8,93.73L514.32,91.96L514.83,90.04L515.4,92.71L515.98,87.96L516.59,91.02L520.03,92.62L520.62,96.04L521.54,96.71L523.04,100.22L524.02,95.78L524.76,95.33L526.26,109.64L528.31,108.62L529.49,107.2L530.12,107.96L530.98,103.96L531.67,104.84L534.94,88.4L535.25,88.13L536.34,93.2L536.85,92.71L537.63,88.36L538.59,91.82L539.19,85.6L539.5,93.56L539.86,90.27L540.26,88L540.94,91.6L541.11,91.29L541.59,92.36L541.97,93.11L542.26,97.78L543.04,94.18L543.59,97.16L544.39,99.42L544.98,98.4L545.46,96.8L545.87,96.93L546.29,91.38L547.43,89.96L548.57,93.73L549.44,88.49L552,92.18L552.46,92.8L553.07,99.38L554.47,102.22L555,99.33L557.34,103.11L558.51,102.09L559.1,97.16L560.69,97.2L562.53,106.36L564.95,109.6L567.64,111.96L568.5,103.24L571.13,107.69L572.88,115.51L573.12,115.82L573.76,115.42L574.75,112.89L576.46,112.13L581.09,112.62L581.77,118.31L585.21,112.67L585.56,109.2L589.38,117.56L590.22,116L593.02,110.84L594.39,116.04L595.39,109.78L598.57,112.49L601.6,115.38L602.61,112.71L602.66,113.07L603.84,112.67L604.15,114.53L605.15,115.47L605.97,113.64L606.55,110.62L606.63,112.98L606.92,110.04L607.26,110.36L607.52,112L607.88,112L607.96,110.93L608.87,107.16L609.51,106.4L609.84,100.49L610.37,100.67L611.07,98.27L611.43,91.11L612.89,84.89L612.97,85.38L613.25,82.93L613.43,82.62L614.14,72.4L614.17,78.22L614.57,77.51L614.83,77.64L615.28,83.29L615.5,83.33L615.77,81.29L616.83,76.84L616.99,78.67L617.16,75.69L617.43,81.64L617.91,81.51L617.95,80.58L619,77.16L619.67,79.07L620.88,76.62L621.46,82.13L622.12,79.16L623.05,78.36L623.88,81.07L625.02,83.33L626.29,78.58L626.76,78L627.23,83.82L627.99,81.64L629.27,85.91L632.67,90.84L633.2,94.13L634.98,97.51L635.83,94.71L636.97,98.62L638.54,94.71L640.28,99.64L645.32,96.89L648.16,98.53L648.98,100.36L651.22,107.56L652.81,103.56L653.87,104.8L654.79,98.67L656.26,92.84L657.91,97.38L661.08,103.51L664.68,98.18L666.68,98.98L671.36,113.38L672.27,114.93L674.18,113.2L678.95,106.49L679.47,101.47L683.78,115.38L685.36,104.13L686.25,106.62L687.02,116.27L688.41,115.87L691.92,107.07L697.45,107.07L699.7,108.76L705.15,116.22L707.97,114.84L710.87,115.91L711.61,118.04L712.53,117.11L712.77,116.93L713,116.53L713.28,113.33L713.47,116.44L713.91,116.09L714.06,116.13L714.45,116.31L714.5,114.53L715.03,116.89L715.34,115.91L715.69,116.22L715.86,115.11L717.23,104.89L717.36,102.49L718.68,98.44L719,93.73L719.47,94.93L719.93,94.53L720.09,94.09L720.2,95.91L720.68,93.2L720.74,91.91L721.86,82.09L722.05,82.31L722.14,81.07L722.8,82.93L722.99,82.58L723.05,82.49L723.45,84.18L723.56,82.13L724.57,85.2L724.66,84.76L724.74,84.62L725.27,85.16L725.43,83.11L725.52,83.42L725.64,85.51L726.55,81.47L726.6,84.13L727.48,79.69L727.6,79.33L727.78,80.4L728.03,78.76L728.2,79.24L728.31,77.82L728.38,77.6L728.47,79.33L728.84,78.22L728.93,78.62L729.46,76.04L729.76,76.62L729.84,77.02" style="fill: rgb(196, 196, 196); fill-opacity: 0.5; stroke-width: 0;"/></g></g><g class="errorbars"/><g class="lines"><path class="js-line" d="M0,115.11L1.87,115.87L3.03,113.24L4.81,107.11L5.1,109.33L5.89,108.84L6.43,104.27L7.31,101.64L7.66,103.02L8.82,98L9.6,89.82L9.81,89.73L10.48,85.82L10.93,84.31L11.66,86.49L13.16,90.27L13.97,87.96L15.08,90.58L15.56,89.47L16.4,92.09L16.72,89.56L17.55,91.6L18.07,90.76L19.2,90.53L20.05,91.6L20.6,93.87L21.5,93.11L23.34,97.78L24.23,97.38L24.56,98L24.97,94.36L25.47,94.13L27,101.6L27.36,101.16L28.2,103.24L28.79,105.11L29.69,104.13L30.04,103.64L30.86,101.07L31.4,100.4L31.69,101.6L31.92,99.69L32.25,104.44L32.66,104L33.4,105.78L33.96,108.4L34.84,108.04L36.32,103.16L36.69,103.29L36.89,104.31L37.16,102.58L37.53,104.44L38.16,106.36L39.66,110.89L40.43,112.98L40.81,114.89L41.73,112.67L42.07,116.44L42.78,115.51L44.02,118.22L44.28,117.87L46.51,119.64L47.11,119.64L47.53,118.62L48.27,119.91L49.63,119.47L50.33,119.82L51.28,118.98L51.72,120.93L52.42,121.51L52.69,120.62L53.37,120.49L53.77,117.78L55.56,106.4L56.13,106.09L57.22,109.29L57.78,110.53L58.05,110.36L58.57,107.82L59.8,109.38L60.45,108.49L60.82,109.42L61.57,108.93L62.51,109.33L63.78,108.71L65.36,109.11L66.16,107.51L67.32,108.31L67.88,106.53L69.08,105.16L70.08,106.09L71.64,113.24L72.14,116.53L73.07,118.09L73.73,114.27L75.85,101.29L76.37,103.24L77.59,101.2L78.52,102.89L81.41,102.36L84.41,98.62L85.32,98.44L85.72,96.04L86.67,97.24L87.18,96.53L88.1,97.64L88.3,98.09L89.92,98.36L90.36,99.56L91.1,98.8L91.31,99.38L94.3,94.4L94.51,94.8L95.16,95.2L95.5,95.82L95.72,95.38L96.11,95.96L96.3,95.96L96.7,95.64L96.91,96.49L97.91,94.84L98.13,95.29L98.53,96L98.74,93.33L99.18,95.64L99.39,95.29L99.81,93.38L100.47,95.6L100.68,95.2L101.1,96.44L102.44,98.98L102.72,100.31L103.37,100.67L103.83,102.36L105.3,103.33L105.62,102.8L106.37,101.07L106.91,102.36L107.77,103.91L108.05,102.93L109.6,97.42L110.18,97.78L111.79,104.89L112.12,103.38L112.65,102.22L113.63,105.02L115.59,113.42L116.01,114.44L116.59,113.51L116.93,114.4L118,117.56L118.75,120.67L120,123.73L120.53,123.24L123.1,115.96L124,116L124.49,116.53L125.43,115.64L127.37,118.93L128.34,115.91L130.34,111.82L131.33,114.13L132,114.98L132.94,117.64L133.53,117.42L134.68,114.67L135.29,116.53L136.47,113.42L137.07,114.62L138.31,115.33L139.11,116.18L140.25,113.51L140.99,113.73L142.33,115.38L144.57,115.96L145.41,116.58L146.98,113.64L148.06,114.22L149.4,113.82L150.22,114.62L152.6,111.33L154.16,111.16L154.94,111.69L156.26,108.89L159.3,94.53L160.65,93.96L163.29,90.93L164.55,89.82L165.85,87.87L167.05,87.82L168.25,87.78L169.36,86.22L171.55,84.62L172.63,85.47L173.74,84.8L174.86,86.84L178.56,93.73L179.84,94.27L182.99,99.56L183.79,102.67L184.27,103.87L185.12,103.82L187.54,94.18L187.96,96.36L189,99.69L190.27,94.49L191.8,88.8L192.27,90.53L194.38,100.44L197.12,106.4L197.47,108.13L198.06,106.71L201.3,87.6L201.81,89.29L202.78,88.31L203.26,88.31L204.17,87.78L204.59,89.38L205.43,88.04L205.84,88.09L207.02,89.91L207.41,90.53L208.16,88.18L208.54,89.07L209.29,88.09L209.67,88.31L210.74,88.8L211.1,87.56L212.16,87.47L212.52,86.89L213.93,88.27L214.28,87.73L214.63,87.82L214.99,88.27L215.36,89.96L216.89,93.29L217.38,95.96L217.73,95.73L218.16,96.93L218.61,97.07L219.08,98.53L220.05,97.69L220.25,97.91L220.52,95.78L221.58,90.84L221.91,88.67L222.85,92.89L223.32,96.04L224.42,100.31L225.03,100.62L225.68,102.09L225.93,101.29L226.42,99.42L227.16,101.47L227.9,102.27L229.97,107.2L230.48,110L231.45,109.07L232.51,106.8L234.62,106.53L235.68,107.51L236.77,109.51L237.86,108.89L240.01,105.38L241.05,108.27L242.08,108.89L243.1,111.38L244.13,111.2L244.55,115.33L246.4,109.16L246.9,106.04L247.67,101.91L248.41,102.09L250.51,100.13L251.2,98.76L254.42,92.49L256.19,91.78L257.34,89.91L257.93,90.98L259.72,90.13L260.34,92L262.32,94.13L263.02,92.44L263.7,95.47L264.4,94.93L265.09,96.27L265.8,93.2L266.5,94.67L267.14,94.13L269.19,96.04L269.83,95.96L271.16,96.89L271.86,97.24L272.53,97.42L273.24,98.58L275.98,94.89L276.68,94.93L278.78,94.09L279.52,93.73L280.22,93.47L280.94,91.69L281.64,90.36L282.32,91.87L282.99,92.18L283.21,89.2L283.65,87.64L283.93,92.93L284.32,92.44L284.99,94.62L285.65,97.2L286.36,96.49L287.06,96.44L287.8,97.24L289.33,97.16L290.13,98.98L290.95,100.71L291.8,100.53L292.68,102.76L293.07,101.87L293.62,97.2L294.5,93.73L295.34,94.84L296.28,96.53L297.25,96.4L299.14,90.84L299.45,91.6L300.1,91.69L300.51,96.58L301.12,98.13L301.55,102.8L302.15,104.22L302.6,108.22L304.48,109.6L305.77,109.16L308.27,106.67L308.68,108.8L310.75,113.6L312.01,115.24L314.55,110.04L315.7,107.42L317.93,114.44L318.97,114.09L322.15,108.93L323.21,110.58L324.29,110.36L325.29,107.51L327.44,110.62L328.95,111.51L330.06,110.22L331.16,110.53L332.23,110.36L333.32,110.98L335.34,106.76L336.39,107.73L337.83,99.02L338.63,102.36L340.84,87.96L341.41,86.53L342.45,79.64L342.91,80.76L343.43,81.02L344.46,79.73L344.98,81.6L345.52,80.62L346.56,78.31L347.06,79.47L348.49,77.96L348.99,79.2L349.46,78.49L350.37,79.24L350.81,77.16L351.5,79.29L352.43,82.27L353.33,77.82L355.07,74L355.86,74.4L356.61,77.91L357.33,73.56L358.71,73.07L359.38,75.73L360.7,75.33L361.38,77.11L362.71,77.47L363.38,74.18L364.75,74.13L365.47,76.84L366.97,77.2L370.2,84.13L371.1,78.4L372.04,84.67L372.64,81.64L374.43,88.84L377.91,84.8L378.59,82.4L381.09,90.76L382.5,90.31L383.82,93.73L385.29,93.33L386.69,99.11L390.28,97.96L391.71,100.18L393.21,104.58L394.67,111.16L396.16,110.27L398.77,108.31L400.99,110.58L403.05,117.42L404.71,117.29L408.95,107.02L410.19,106.93L412.59,101.73L414.72,102.09L417.19,108.98L418.55,108.8L419.78,110.8L420.84,88.84L422.59,95.91L423.2,93.51L423.94,92.49L424.52,86.36L425.8,72.98L426.26,76.4L426.69,67.29L427.11,71.82L427.27,71.51L428.68,78.84L429.17,79.24L429.84,82.22L430.99,77.73L433.28,82.67L433.97,81.69L435.3,84.31L435.99,84.27L438.2,89.24L439,86.31L439.85,96.27L440.6,91.02L441.37,88.18L442.01,78.84L442.58,90.31L443.23,85.73L443.89,85.91L444.56,88.18L445.98,93.78L446.76,94.31L448.25,99.47L448.84,98.76L449.99,99.64L450.86,91.2L452.36,88.8L452.98,93.02L453.9,93.24L454.77,95.11L455.57,93.78L456.42,95.07L458.76,103.51L460.59,105.29L461.83,105.47L462.56,108.13L463.22,108.44L463.82,107.73L465.35,102.04L465.88,95.6L468.28,97.6L468.74,97.16L469.57,99.38L470.25,98.67L471.72,97.2L473.57,100.58L478.55,114.13L479.45,111.82L480.39,113.73L481.32,113.82L483.2,117.91L484.15,111.64L486.02,116.8L486.69,116.13L487.72,105.91L488.33,111.16L489.38,98.62L490.83,104.62L492.67,108.58L493.19,106.84L494.74,109.38L496.17,109.33L499.35,113.16L500.17,112.58L500.97,113.16L501.76,104.93L502.56,111.02L504.8,104.58L506.86,102.49L507.38,97.6L508.7,87.87L509.03,82.8L509.69,75.47L510,76L510.59,83.02L513.8,93.73L514.32,91.96L514.83,90.04L515.4,92.71L515.98,87.96L516.59,91.02L520.03,92.62L520.62,96.04L521.54,96.71L523.04,100.22L524.02,95.78L524.76,95.33L526.26,109.64L528.31,108.62L529.49,107.2L530.12,107.96L530.98,103.96L531.67,104.84L534.94,88.4L535.25,88.13L536.34,93.2L536.85,92.71L537.63,88.36L538.59,91.82L539.19,85.6L539.5,93.56L539.86,90.27L540.26,88L540.94,91.6L541.11,91.29L541.59,92.36L541.97,93.11L542.26,97.78L543.04,94.18L543.59,97.16L544.39,99.42L544.98,98.4L545.46,96.8L545.87,96.93L546.29,91.38L547.43,89.96L548.57,93.73L549.44,88.49L552,92.18L552.46,92.8L553.07,99.38L554.47,102.22L555,99.33L557.34,103.11L558.51,102.09L559.1,97.16L560.69,97.2L562.53,106.36L564.95,109.6L567.64,111.96L568.5,103.24L571.13,107.69L572.88,115.51L573.12,115.82L573.76,115.42L574.75,112.89L576.46,112.13L581.09,112.62L581.77,118.31L585.21,112.67L585.56,109.2L589.38,117.56L590.22,116L593.02,110.84L594.39,116.04L595.39,109.78L598.57,112.49L601.6,115.38L602.61,112.71L602.66,113.07L603.84,112.67L604.15,114.53L605.15,115.47L605.97,113.64L606.55,110.62L606.63,112.98L606.92,110.04L607.26,110.36L607.52,112L607.88,112L607.96,110.93L608.87,107.16L609.51,106.4L609.84,100.49L610.37,100.67L611.07,98.27L611.43,91.11L612.89,84.89L612.97,85.38L613.25,82.93L613.43,82.62L614.14,72.4L614.17,78.22L614.57,77.51L614.83,77.64L615.28,83.29L615.5,83.33L615.77,81.29L616.83,76.84L616.99,78.67L617.16,75.69L617.43,81.64L617.91,81.51L617.95,80.58L619,77.16L619.67,79.07L620.88,76.62L621.46,82.13L622.12,79.16L623.05,78.36L623.88,81.07L625.02,83.33L626.29,78.58L626.76,78L627.23,83.82L627.99,81.64L629.27,85.91L632.67,90.84L633.2,94.13L634.98,97.51L635.83,94.71L636.97,98.62L638.54,94.71L640.28,99.64L645.32,96.89L648.16,98.53L648.98,100.36L651.22,107.56L652.81,103.56L653.87,104.8L654.79,98.67L656.26,92.84L657.91,97.38L661.08,103.51L664.68,98.18L666.68,98.98L671.36,113.38L672.27,114.93L674.18,113.2L678.95,106.49L679.47,101.47L683.78,115.38L685.36,104.13L686.25,106.62L687.02,116.27L688.41,115.87L691.92,107.07L697.45,107.07L699.7,108.76L705.15,116.22L707.97,114.84L710.87,115.91L711.61,118.04L712.53,117.11L712.77,116.93L713,116.53L713.28,113.33L713.47,116.44L713.91,116.09L714.06,116.13L714.45,116.31L714.5,114.53L715.03,116.89L715.34,115.91L715.69,116.22L715.86,115.11L717.23,104.89L717.36,102.49L718.68,98.44L719,93.73L719.47,94.93L719.93,94.53L720.09,94.09L720.2,95.91L720.68,93.2L720.74,91.91L721.86,82.09L722.05,82.31L722.14,81.07L722.8,82.93L722.99,82.58L723.05,82.49L723.45,84.18L723.56,82.13L724.57,85.2L724.66,84.76L724.74,84.62L725.27,85.16L725.43,83.11L725.52,83.42L725.64,85.51L726.55,81.47L726.6,84.13L727.48,79.69L727.6,79.33L727.78,80.4L728.03,78.76L728.2,79.24L728.31,77.82L728.38,77.6L728.47,79.33L728.84,78.22L728.93,78.62L729.46,76.04L729.76,76.62L729.84,77.02" style="vector-effect: non-scaling-stroke; fill: none; stroke: rgb(196, 196, 196); stroke-opacity: 1; stroke-width: 2px; opacity: 1;"/></g><g class="points"/><g class="text"/></g><g class="trace scatter tracede72c9" style="stroke-miterlimit: 2; opacity: 1;"><g class="fills"/><g class="errorbars"/><g class="lines"><path class="js-line" d="M0,103.26L729.9,92.47" style="vector-effect: non-scaling-stroke; fill: none; stroke: rgb(53, 155, 208); stroke-opacity: 1; stroke-width: 2px; opacity: 1;"/></g><g class="points"/><g class="text"/></g></g></g><g class="overplot"/><path class="xlines-above crisp" style="fill: none; stroke-width: 1px; stroke: rgb(196, 196, 196); stroke-opacity: 1;" d="M49,250.5H780"/><path class="ylines-above crisp" style="fill: none; stroke-width: 1px; stroke: rgb(196, 196, 196); stroke-opacity: 1;" d="M49.5,50V250"/><g class="overlines-above"/><g class="xaxislayer-above"><path class="xtick ticks crisp" d="M0,251v5" transform="translate(138.49,0)" style="stroke: rgb(196, 196, 196); stroke-opacity: 1; stroke-width: 1px;"/><path class="xtick ticks crisp" d="M0,251v5" transform="translate(230.14,0)" style="stroke: rgb(196, 196, 196); stroke-opacity: 1; stroke-width: 1px;"/><path class="xtick ticks crisp" d="M0,251v5" transform="translate(321.78,0)" style="stroke: rgb(196, 196, 196); stroke-opacity: 1; stroke-width: 1px;"/><path class="xtick ticks crisp" d="M0,251v5" transform="translate(413.42,0)" style="stroke: rgb(196, 196, 196); stroke-opacity: 1; stroke-width: 1px;"/><path class="xtick ticks crisp" d="M0,251v5" transform="translate(505.07,0)" style="stroke: rgb(196, 196, 196); stroke-opacity: 1; stroke-width: 1px;"/><path class="xtick ticks crisp" d="M0,251v5" transform="translate(596.71,0)" style="stroke: rgb(196, 196, 196); stroke-opacity: 1; stroke-width: 1px;"/><path class="xtick ticks crisp" d="M0,251v5" transform="translate(688.36,0)" style="stroke: rgb(196, 196, 196); stroke-opacity: 1; stroke-width: 1px;"/><path class="xtick ticks crisp" d="M0,251v5" transform="translate(780,0)" style="stroke: rgb(196, 196, 196); stroke-opacity: 1; stroke-width: 1px;"/><g class="xtick"><text text-anchor="middle" x="0" y="270.4" transform="translate(138.49,0)" style="font-family: Menlo; font-size: 12px; fill: rgb(196, 196, 196); fill-opacity: 1; white-space: pre;">−700k</text></g><g class="xtick"><text text-anchor="middle" x="0" y="270.4" transform="translate(230.14,0)" style="font-family: Menlo; font-size: 12px; fill: rgb(196, 196, 196); fill-opacity: 1; white-space: pre;">−600k</text></g><g class="xtick"><text text-anchor="middle" x="0" y="270.4" transform="translate(321.78,0)" style="font-family: Menlo; font-size: 12px; fill: rgb(196, 196, 196); fill-opacity: 1; white-space: pre;">−500k</text></g><g class="xtick"><text text-anchor="middle" x="0" y="270.4" transform="translate(413.42,0)" style="font-family: Menlo; font-size: 12px; fill: rgb(196, 196, 196); fill-opacity: 1; white-space: pre;">−400k</text></g><g class="xtick"><text text-anchor="middle" x="0" y="270.4" transform="translate(505.07,0)" style="font-family: Menlo; font-size: 12px; fill: rgb(196, 196, 196); fill-opacity: 1; white-space: pre;">−300k</text></g><g class="xtick"><text text-anchor="middle" x="0" y="270.4" transform="translate(596.71,0)" style="font-family: Menlo; font-size: 12px; fill: rgb(196, 196, 196); fill-opacity: 1; white-space: pre;">−200k</text></g><g class="xtick"><text text-anchor="middle" x="0" y="270.4" transform="translate(688.36,0)" style="font-family: Menlo; font-size: 12px; fill: rgb(196, 196, 196); fill-opacity: 1; white-space: pre;">−100k</text></g><g class="xtick"><text text-anchor="middle" x="0" y="270.4" transform="translate(780,0)" style="font-family: Menlo; font-size: 12px; fill: rgb(196, 196, 196); fill-opacity: 1; white-space: pre;">0</text></g></g><g class="yaxislayer-above"><path class="ytick ticks crisp" d="M49,0h-5" transform="translate(0,250)" style="stroke: rgb(196, 196, 196); stroke-opacity: 1; stroke-width: 1px;"/><path class="ytick ticks crisp" d="M49,0h-5" transform="translate(0,205.56)" style="stroke: rgb(196, 196, 196); stroke-opacity: 1; stroke-width: 1px;"/><path class="ytick ticks crisp" d="M49,0h-5" transform="translate(0,161.11)" style="stroke: rgb(196, 196, 196); stroke-opacity: 1; stroke-width: 1px;"/><path class="ytick ticks crisp" d="M49,0h-5" transform="translate(0,116.67)" style="stroke: rgb(196, 196, 196); stroke-opacity: 1; stroke-width: 1px;"/><path class="ytick ticks crisp" d="M49,0h-5" transform="translate(0,72.22)" style="stroke: rgb(196, 196, 196); stroke-opacity: 1; stroke-width: 1px;"/><g class="ytick"><text text-anchor="end" x="41.6" y="4.199999999999999" transform="translate(0,250)" style="font-family: Menlo; font-size: 12px; fill: rgb(196, 196, 196); fill-opacity: 1; white-space: pre;">0</text></g><g class="ytick"><text text-anchor="end" x="41.6" y="4.199999999999999" transform="translate(0,205.56)" style="font-family: Menlo; font-size: 12px; fill: rgb(196, 196, 196); fill-opacity: 1; white-space: pre;">100</text></g><g class="ytick"><text text-anchor="end" x="41.6" y="4.199999999999999" transform="translate(0,161.11)" style="font-family: Menlo; font-size: 12px; fill: rgb(196, 196, 196); fill-opacity: 1; white-space: pre;">200</text></g><g class="ytick"><text text-anchor="end" x="41.6" y="4.199999999999999" transform="translate(0,116.67)" style="font-family: Menlo; font-size: 12px; fill: rgb(196, 196, 196); fill-opacity: 1; white-space: pre;">300</text></g><g class="ytick"><text text-anchor="end" x="41.6" y="4.199999999999999" transform="translate(0,72.22)" style="font-family: Menlo; font-size: 12px; fill: rgb(196, 196, 196); fill-opacity: 1; white-space: pre;">400</text></g></g><g class="overaxes-above"/></g></g><g class="polarlayer"/><g class="ternarylayer"/><g class="geolayer"/><g class="funnelarealayer"/><g class="pielayer"/><g class="treemaplayer"/><g class="sunburstlayer"/><g class="glimages"/><defs id="topdefs-324033"><g class="clips"/></defs><g class="layer-above"><g class="imagelayer"/><g class="shapelayer"><path data-index="0" fill-rule="evenodd" d="M775.42,250H780V50H775.42Z" clip-path="url('#clip324033x')" style="opacity: 0.25; stroke: rgb(0, 0, 0); stroke-opacity: 0; fill: rgb(96, 195, 155); fill-opacity: 1; stroke-width: 0px;"/></g></g><g class="infolayer"><g class="g-gtitle"><text class="gtitle" x="0" y="6" text-anchor="start" dy="0.7em" style="font-family: Menlo; font-size: 10px; fill: rgb(35, 35, 35); opacity: 1; font-weight: normal; white-space: pre;">Last 800,000 Years | Global CO2</text></g><g class="g-xtitle"><text class="xtitle" x="415" y="290" text-anchor="middle" style="font-family: Menlo; font-size: 10px; fill: rgb(196, 196, 196); opacity: 1; font-weight: normal; white-space: pre;">Time (Thousand of Years Before Present)</text></g><g class="g-ytitle" transform="translate(-4.578125,0)"><text class="ytitle" transform="rotate(-90,20,150)" x="20" y="150" text-anchor="middle" style="font-family: Menlo; font-size: 10px; fill: rgb(196, 196, 196); opacity: 1; font-weight: normal; white-space: pre;">CO2 (ppm)</text></g><g class="annotation" data-index="0" style="opacity: 1;"><g class="annotation-text-g" transform="rotate(0,734.5,57.5)"><g class="cursor-pointer" transform="translate(689, 50)"><rect class="bg" x="0.5" y="0.5" width="90" height="14" style="stroke-width: 1px; stroke: rgb(0, 0, 0); stroke-opacity: 0; fill: rgb(0, 0, 0); fill-opacity: 0;"/><text class="annotation-text" text-anchor="middle" x="45.359375" y="10.5" style="font-family: Menlo; font-size: 9px; fill: rgb(35, 35, 35); fill-opacity: 1; white-space: pre;">Last 5,000 Years</text></g></g></g><g class="annotation" data-index="1" style="opacity: 1;"><g class="annotation-text-g" transform="rotate(0,103.5,57.5)"><g class="cursor-pointer" transform="translate(50, 50)"><rect class="bg" x="0.5" y="0.5" width="106" height="14" style="stroke-width: 1px; stroke: rgb(0, 0, 0); stroke-opacity: 0; fill: rgb(0, 0, 0); fill-opacity: 0;"/><text class="annotation-text" text-anchor="middle" x="53.484375" y="10.5" style="font-family: Menlo; font-size: 9px; fill: rgb(53, 155, 208); fill-opacity: 1; white-space: pre;">trend = 3.05/100kyr</text></g></g></g></g></svg>