<svg class="main-svg" xmlns="http://www.w3.org/2000/svg" xmlns:xlink="http://www.w3.org/1999/xlink" width="800" height="300" style="" viewBox="0 0 800 300"><rect x="0" y="0" width="800" height="300" style="fill: rgb(255, 255, 255); fill-opacity: 1;"/><defs id="defs-9d634d"><g class="clips"><clipPath id="clip9d634dxyplot" class="plotclip"><rect width="686.1999999999999" height="200"/></clipPath><clipPath id="clip9d634dxy2plot" class="plotclip"><rect width="686.1999999999999" height="200"/></clipPath><clipPath class="axesclip" id="clip9d634dx"><rect x="50" y="0" width="686.1999999999999" height="300"/></clipPath><clipPath class="axesclip" id="clip9d634dy"><rect x="0" y="50" width="800" height="200"/></clipPath><clipPath class="axesclip" id="clip9d634dxy"><rect x="50" y="50" width="686.1999999999999" height="200"/></clipPath><clipPath class="axesclip" id="clip9d634dy2"><rect x="0" y="50" width="800" height="200"/></clipPath><clipPath class="axesclip" id="clip9d634dxy2"><rect x="50" y="50" width="686.1999999999999" height="200"/></clipPath></g><g class="gradients"/></defs><g class="bglayer"/><g class="layer-below"><g class="imagelayer"/><g class="shapelayer"/></g><g class="cartesianlayer"><g class="subplot xy"><g class="layer-subplot"><g class="shapelayer"/><g class="imagelayer"/></g><g class="gridlayer"><g class="x"><path class="xgrid crisp" transform="translate(103.19,0)" d="M0,50v200" style="stroke: rgb(238, 238, 238); stroke-opacity: 1; stroke-width: 1px;"/><path class="xgrid crisp" transform="translate(209.58,0)" d="M0,50v200" style="stroke: rgb(238, 238, 238); stroke-opacity: 1; stroke-width: 1px;"/><path class="xgrid crisp" transform="translate(315.97,0)" d="M0,50v200" style="stroke: rgb(238, 238, 238); stroke-opacity: 1; stroke-width: 1px;"/><path class="xgrid crisp" transform="translate(422.36,0)" d="M0,50v200" style="stroke: rgb(238, 238, 238); stroke-opacity: 1; stroke-width: 1px;"/><path class="xgrid crisp" transform="translate(528.74,0)" d="M0,50v200" style="stroke: rgb(238, 238, 238); stroke-opacity: 1; stroke-width: 1px;"/><path class="xgrid crisp" transform="translate(635.13,0)" d="M0,50v200" style="stroke: rgb(238, 238, 238); stroke-opacity: 1; stroke-width: 1px;"/></g><g class="y"><path class="ygrid crisp" transform="translate(0,191.18)" d="M50,0h686.1999999999999" style="stroke: rgb(238, 238, 238); stroke-opacity: 1; stroke-width: 1px;"/><path class="ygrid crisp" transform="translate(0,132.35)" d="M50,0h686.1999999999999" style="stroke: rgb(238, 238, 238); stroke-opacity: 1; stroke-width: 1px;"/><path class="ygrid crisp" transform="translate(0,73.53)" d="M50,0h686.1999999999999" style="stroke: rgb(238, 238, 238); stroke-opacity: 1; stroke-width: 1px;"/></g><g class="y2"><path class="y2grid crisp" transform="translate(0,192.31)" d="M50,0h686.1999999999999" style="stroke: rgb(238, 238, 238); stroke-opacity: 1; stroke-width: 1px;"/><path class="y2grid crisp" transform="translate(0,122.18)" d="M50,0h686.1999999999999" style="stroke: rgb(238, 238, 238); stroke-opacity: 1; stroke-width: 1px;"/><path class="y2grid crisp" transform="translate(0,52.05)" d="M50,0h686.1999999999999" style="stroke: rgb(238, 238, 238); stroke-opacity: 1; stroke-width: 1px;"/></g></g><g class="zerolinelayer"/><path class="xlines-below"/><path class="ylines-below"/><g class="overlines-below"><path class="xy2-x"/><path class="xy2-y"/></g><g class="xaxislayer-below"/><g class="yaxislayer-below"/><g class="overaxes-below"><g class="xy2-x"/><g class="xy2-y"/></g><g class="plot" transform="translate(50, 50)" clip-path="url('#clip9d634dxyplot')"><g class="scatterlayer mlayer"><g class="trace scatter traceb90546" style="stroke-miterlimit: 2;"><g class="fills"><g><path class="js-fill" d="M686.2,494.12L0,494.12L0,148.59L159.58,137.41L186.18,135.41L265.97,130.24L292.57,128.82L345.76,124.59L372.36,121.29L425.55,112.12L452.15,106.59L484.06,93.99L489.38,92.41L515.98,83.32L521.3,80.51L537.26,75.75L542.58,74.76L547.9,74L553.22,71.96L563.85,67.52L569.17,66.2L574.49,62.71L579.81,60.73L590.45,57.48L595.77,54.96L601.09,52L606.41,49.98L622.37,42.6L627.69,40.48L643.64,33.35L648.96,30.75L659.6,25.13L664.92,22.55L670.24,18.56L675.56,15.82L680.88,13.51L686.2,10.08" style="fill: rgb(196, 196, 196); fill-opacity: 0.5; stroke-width: 0;"/></g></g><g class="errorbars"/><g class="lines"><path class="js-line" d="M0,148.59L159.58,137.41L186.18,135.41L265.97,130.24L292.57,128.82L345.76,124.59L372.36,121.29L425.55,112.12L452.15,106.59L484.06,93.99L489.38,92.41L515.98,83.32L521.3,80.51L537.26,75.75L542.58,74.76L547.9,74L553.22,71.96L563.85,67.52L569.17,66.2L574.49,62.71L579.81,60.73L590.45,57.48L595.77,54.96L601.09,52L606.41,49.98L622.37,42.6L627.69,40.48L643.64,33.35L648.96,30.75L659.6,25.13L664.92,22.55L670.24,18.56L675.56,15.82L680.88,13.51L686.2,10.08" style="vector-effect: non-scaling-stroke; fill: none; stroke: rgb(196, 196, 196); stroke-opacity: 1; stroke-width: 2px; opacity: 1;"/></g><g class="points"/><g class="text"/></g></g></g><g class="overplot"><g class="xy2" transform="translate(50, 50)" clip-path="url('#clip9d634dxy2plot')"><g class="scatterlayer mlayer"><g class="trace scatter trace240eb5" style="stroke-miterlimit: 2; opacity: 1;"><g class="fills"/><g class="errorbars"/><g class="lines"><path class="js-line" d="M5.32,161.83L10.64,172.94L15.96,178.55L21.28,171.65L26.6,167.56L31.92,139.27L37.24,141.49L42.56,165.1L47.87,151.43L53.19,140.91L58.51,154L63.83,171.53L69.15,181.35L74.47,190L79.79,170.48L85.11,156.45L90.43,181.58L95.75,188.01L101.07,187.9L106.39,182.99L111.71,187.19L117.03,175.16L122.35,170.71L127.67,146.87L132.98,133.19L138.3,162.53L143.62,172L148.94,149.79L154.26,154.12L164.9,133.31L170.22,151.31L175.54,148.39L180.86,150.26L191.5,123.84L196.82,138.81L202.14,139.39L207.46,156.92L212.78,125.48L218.09,120.92L223.41,125.71L228.73,146.99L234.05,125.36L239.37,137.29L244.69,139.86L250.01,124.9L255.33,119.75L260.65,124.43L265.97,118L271.29,109.82L276.61,109.58L281.93,104.68L287.25,88.9L292.57,108.53L297.89,128.99L303.2,132.73L308.52,129.57L313.84,131.79L319.16,141.49L324.48,122.21L335.12,104.09L340.44,136.23L345.76,138.69L351.08,152.01L356.4,112.16L361.72,103.62L367.04,113.21L372.36,118.47L377.68,105.49L383,102.81L388.31,98.25L393.63,140.91L398.95,132.26L404.27,121.97L409.59,122.44L414.91,125.13L420.23,110.17L425.55,114.03L430.87,130.16L436.19,113.56L441.51,95.44L446.83,135.06L452.15,126.88L457.47,139.51L462.79,99.06L468.11,111.92L473.42,95.32L478.74,91.47L484.06,84.81L489.38,102.81L494.7,80.95L500.02,107.01L505.34,109.12L510.66,96.61L515.98,74.64L521.3,77.32L526.62,87.03L531.94,66.69L537.26,76.27L542.58,97.08L547.9,93.22L553.22,82.58L558.53,71.13L563.85,85.97L569.17,60.38L574.49,41.32L579.81,73.23L585.13,72.88L590.45,55.35L595.77,50.09L601.09,50.91L606.41,55.94L611.73,48.69L617.05,51.03L622.37,55.47L627.69,65.75L633.01,49.74L638.33,45.18L643.64,61.9L648.96,52.08L654.28,44.83L659.6,34.43L664.92,13.39L670.24,10L680.88,29.75L686.2,13.16" style="vector-effect: non-scaling-stroke; fill: none; stroke: rgb(53, 155, 208); stroke-opacity: 1; stroke-width: 2px; opacity: 1;"/></g><g class="points"/><g class="text"/></g></g></g></g><path class="xlines-above crisp" d="M49,250.5H737.1999999999999" style="fill: none; stroke-width: 1px; stroke: rgb(196, 196, 196); stroke-opacity: 1;"/><path class="ylines-above crisp" d="M49.5,50V250" style="fill: none; stroke-width: 1px; stroke: rgb(196, 196, 196); stroke-opacity: 1;"/><g class="overlines-above"><path class="xy2-x crisp" d="M0,0" style="fill: none;"/><path class="xy2-y crisp" d="M736.6999999999999,50V250" style="fill: none; stroke-width: 1px; stroke: rgb(196, 196, 196); stroke-opacity: 1;"/></g><g class="xaxislayer-above"><path class="xtick ticks crisp" d="M0,251v5" transform="translate(103.19,0)" style="stroke: rgb(196, 196, 196); stroke-opacity: 1; stroke-width: 1px;"/><path class="xtick ticks crisp" d="M0,251v5" transform="translate(209.58,0)" style="stroke: rgb(196, 196, 196); stroke-opacity: 1; stroke-width: 1px;"/><path class="xtick ticks crisp" d="M0,251v5" transform="translate(315.97,0)" style="stroke: rgb(196, 196, 196); stroke-opacity: 1; stroke-width: 1px;"/><path class="xtick ticks crisp" d="M0,251v5" transform="translate(422.36,0)" style="stroke: rgb(196, 196, 196); stroke-opacity: 1; stroke-width: 1px;"/><path class="xtick ticks crisp" d="M0,251v5" transform="translate(528.74,0)" style="stroke: rgb(196, 196, 196); stroke-opacity: 1; stroke-width: 1px;"/><path class="xtick ticks crisp" d="M0,251v5" transform="translate(635.13,0)" style="stroke: rgb(196, 196, 196); stroke-opacity: 1; stroke-width: 1px;"/><g class="xtick"><text text-anchor="middle" x="0" y="270.4" transform="translate(103.19,0)" style="font-family: Menlo; font-size: 12px; fill: rgb(196, 196, 196); fill-opacity: 1; white-space: pre;">1900</text></g><g class="xtick"><text text-anchor="middle" x="0" y="270.4" transform="translate(209.58,0)" style="font-family: Menlo; font-size: 12px; fill: rgb(196, 196, 196); fill-opacity: 1; white-space: pre;">1920</text></g><g class="xtick"><text text-anchor="middle" x="0" y="270.4" transform="translate(315.97,0)" style="font-family: Menlo; font-size: 12px; fill: rgb(196, 196, 196); fill-opacity: 1; white-space: pre;">1940</text></g><g class="xtick"><text text-anchor="middle" x="0" y="270.4" transform="translate(422.36,0)" style="font-family: Menlo; font-size: 12px; fill: rgb(196, 196, 196); fill-opacity: 1; white-space: pre;">1960</text></g><g class="xtick"><text text-anchor="middle" x="0" y="270.4" transform="translate(528.74,0)" style="font-family: Menlo; font-size: 12px; fill: rgb(196, 196, 196); fill-opacity: 1; white-space: pre;">1980</text></g><g class="xtick"><text text-anchor="middle" x="0" y="270.4" transform="translate(635.13,0)" style="font-family: Menlo; font-size: 12px; fill: rgb(196, 196, 196); fill-opacity: 1; white-space: pre;">2000</text></g></g><g class="yaxislayer-above"><path class="ytick ticks crisp" d="M49,0h-5" transform="translate(0,250)" style="stroke: rgb(196, 196, 196); stroke-opacity: 1; stroke-width: 1px;"/><path class="ytick ticks crisp" d="M49,0h-5" transform="translate(0,191.18)" style="stroke: rgb(196, 196, 196); stroke-opacity: 1; stroke-width: 1px;"/><path class="ytick ticks crisp" d="M49,0h-5" transform="translate(0,132.35)" style="stroke: rgb(196, 196, 196); stroke-opacity: 1; stroke-width: 1px;"/><path class="ytick ticks crisp" d="M49,0h-5" transform="translate(0,73.53)" style="stroke: rgb(196, 196, 196); stroke-opacity: 1; stroke-width: 1px;"/><g class="ytick"><text text-anchor="end" x="41.6" y="4.199999999999999" transform="translate(0,250)" style="font-family: Menlo; font-size: 12px; fill: rgb(196, 196, 196); fill-opacity: 1; white-space: pre;">250</text></g><g class="ytick"><text text-anchor="end" x="41.6" y="4.199999999999999" transform="translate(0,191.18)" style="font-family: Menlo; font-size: 12px; fill: rgb(196, 196, 196); fill-opacity: 1; white-space: pre;">300</text></g><g class="ytick"><text text-anchor="end" x="41.6" y="4.199999999999999" transform="translate(0,132.35)" style="font-family: Menlo; font-size: 12px; fill: rgb(196, 196, 196); fill-opacity: 1; white-space: pre;">350</text></g><g class="ytick"><text text-anchor="end" x="41.6" y="4.199999999999999" transform="translate(0,73.53)" style="font-family: Menlo; font-size: 12px; fill: rgb(196, 196, 196); fill-opacity: 1; white-space: pre;">400</text></g></g><g class="overaxes-above"><g class="xy2-x"/><g class="xy2-y"><path class="y2tick ticks crisp" d="M737.1999999999999,0h5" transform="translate(0,192.31)" style="stroke: rgb(196, 196, 196); stroke-opacity: 1; stroke-width: 1px;"/><path class="y2tick ticks crisp" d="M737.1999999999999,0h5" transform="translate(0,122.18)" style="stroke: rgb(196, 196, 196); stroke-opacity: 1; stroke-width: 1px;"/><path class="y2tick ticks crisp" d="M737.1999999999999,0h5" transform="translate(0,52.05)" style="stroke: rgb(196, 196, 196); stroke-opacity: 1; stroke-width: 1px;"/><g class="y2tick"><text text-anchor="start" x="744.5999999999999" y="4.199999999999999" transform="translate(0,192.31)" style="font-family: Menlo; font-size: 12px; fill: rgb(196, 196, 196); fill-opacity: 1; white-space: pre;">−0.5</text></g><g class="y2tick"><text text-anchor="start" x="744.5999999999999" y="4.199999999999999" transform="translate(0,122.18)" style="font-family: Menlo; font-size: 12px; fill: rgb(196, 196, 196); fill-opacity: 1; white-space: pre;">0</text></g><g class="y2tick"><text text-anchor="start" x="744.5999999999999" y="4.199999999999999" transform="translate(0,52.05)" style="font-family: Menlo; font-size: 12px; fill: rgb(196, 196, 196); fill-opacity: 1; white-space: pre;">0.5</text></g></g></g></g><g class="subplot xy2"/></g><g class="polarlayer"/><g class="ternarylayer"/><g class="geolayer"/><g class="funnelarealayer"/><g class="pielayer"/><g class="treemaplayer"/><g class="sunburstlayer"/><g class="glimages"/><defs id="topdefs-9d634d"><g class="clips"/></defs><g class="layer-above"><g class="imagelayer"/><g class="shapelayer"/></g><g class="infolayer"><g class="g-gtitle"><text class="gtitle" x="0" y="6" text-anchor="start" dy="0.7em" style="font-family: Menlo; font-size: 10px; fill: rgb(35, 35, 35); opacity: 1; font-weight: normal; white-space: pre;">Global Average Temperature Deviation and CO2 | 1890-2019</text></g><g class="g-xtitle"><text class="xtitle" x="393.09999999999997" y="290" text-anchor="middle" style="font-family: Menlo; font-size: 10px; fill: rgb(196, 196, 196); opacity: 1; font-weight: normal; white-space: pre;">Year</text></g><g class="g-ytitle" transform="translate(-4.578125,0)"><text class="ytitle" transform="rotate(-90,20,150)" x="20" y="150" text-anchor="middle" style="font-family: Menlo; font-size: 10px; fill: rgb(196, 196, 196); opacity: 1; font-weight: normal; white-space: pre;">CO2 (ppm)</text></g><g class="g-y2title" transform="translate(13.7998046875,0)"><text class="y2title" transform="rotate(-90,771.1999999999999,150)" x="771.1999999999999" y="150" text-anchor="middle" style="font-family: Menlo; font-size: 10px; fill: rgb(53, 155, 208); opacity: 1; font-weight: normal; white-space: pre;">Temperature (ºC)</text></g></g></svg>