<svg class="main-svg" xmlns="http://www.w3.org/2000/svg" xmlns:xlink="http://www.w3.org/1999/xlink" width="800" height="300" style="" viewBox="0 0 800 300"><rect x="0" y="0" width="800" height="300" style="fill: rgb(255, 255, 255); fill-opacity: 1;"/><defs id="defs-083fef"><g class="clips"><clipPath id="clip083fefxyplot" class="plotclip"><rect width="730" height="200"/></clipPath><clipPath class="axesclip" id="clip083fefx"><rect x="50" y="0" width="730" height="300"/></clipPath><clipPath class="axesclip" id="clip083fefy"><rect x="0" y="50" width="800" height="200"/></clipPath><clipPath class="axesclip" id="clip083fefxy"><rect x="50" y="50" width="730" height="200"/></clipPath></g><g class="gradients"/></defs><g class="bglayer"/><g class="layer-below"><g class="imagelayer"/><g class="shapelayer"/></g><g class="cartesianlayer"><g class="subplot xy"><g class="layer-subplot"><g class="shapelayer"/><g class="imagelayer"/></g><g class="gridlayer"><g class="x"><path class="xgrid crisp" transform="translate(175.86,0)" d="M0,50v200" style="stroke: rgb(238, 238, 238); stroke-opacity: 1; stroke-width: 1px;"/><path class="xgrid crisp" transform="translate(301.72,0)" d="M0,50v200" style="stroke: rgb(238, 238, 238); stroke-opacity: 1; stroke-width: 1px;"/><path class="xgrid crisp" transform="translate(427.59,0)" d="M0,50v200" style="stroke: rgb(238, 238, 238); stroke-opacity: 1; stroke-width: 1px;"/><path class="xgrid crisp" transform="translate(553.45,0)" d="M0,50v200" style="stroke: rgb(238, 238, 238); stroke-opacity: 1; stroke-width: 1px;"/><path class="xgrid crisp" transform="translate(679.31,0)" d="M0,50v200" style="stroke: rgb(238, 238, 238); stroke-opacity: 1; stroke-width: 1px;"/></g><g class="y"><path class="ygrid crisp" transform="translate(0,200)" d="M50,0h730" style="stroke: rgb(238, 238, 238); stroke-opacity: 1; stroke-width: 1px;"/><path class="ygrid crisp" transform="translate(0,150)" d="M50,0h730" style="stroke: rgb(238, 238, 238); stroke-opacity: 1; stroke-width: 1px;"/><path class="ygrid crisp" transform="translate(0,100)" d="M50,0h730" style="stroke: rgb(238, 238, 238); stroke-opacity: 1; stroke-width: 1px;"/></g></g><g class="zerolinelayer"/><path class="xlines-below"/><path class="ylines-below"/><g class="overlines-below"/><g class="xaxislayer-below"/><g class="yaxislayer-below"/><g class="overaxes-below"/><g class="plot" transform="translate(50, 50)" clip-path="url('#clip083fefxyplot')"><g class="scatterlayer mlayer"><g class="trace scatter traceeb86d3" style="stroke-miterlimit: 2;"><g class="fills"><g><path class="js-fill" d="M730,700L0,700L0,118.06Q16.76,114.07 25.17,112.32C33.54,110.58 41.93,107.77 50.34,107.6C58.72,107.43 67.79,114.02 75.52,111.27C84.88,107.94 91.39,89.32 100.69,83.82C108.45,79.24 117.47,79.71 125.86,77.69C134.25,75.67 142.6,72.12 151.03,71.71C159.38,71.31 168.26,71.77 176.21,75.17C185.16,79 192.92,95.02 201.38,95.21C209.7,95.39 217.9,81.95 226.55,76.91C234.71,72.16 243.22,66.04 251.72,65.46C260.01,64.9 268.71,73.95 276.9,73C285.51,72 293.39,61.59 302.07,58.51C310.2,55.63 318.83,54.74 327.24,54.48C335.61,54.22 344.03,57.09 352.41,56.91C360.81,56.73 369.37,52.15 377.59,53.37C386.17,54.64 394.58,65.76 402.76,65.02C411.38,64.24 420.15,45.92 427.93,47.25C437.18,48.83 444.68,70.97 453.1,82.7C461.46,94.35 469.49,116.76 478.28,117.41C486.33,118.01 495.03,100.2 503.45,91.72C511.81,83.3 520.04,74.46 528.62,66.72C536.84,59.31 544.83,50.27 553.79,46.12C561.74,42.44 571.18,39.01 578.97,41.49C588.21,44.44 595.5,59.51 604.14,67.35C612.31,74.76 620.52,82.41 629.31,87.49C637.36,92.14 646.03,94.37 654.48,97.32C662.82,100.23 671.75,100.54 679.66,105.08C688.67,110.25 696.25,121.09 704.83,128.16Q713.05,134.93 730,146.77" style="fill: rgb(196, 196, 196); fill-opacity: 0.5; stroke-width: 0;"/></g></g><g class="errorbars"/><g class="lines"><path class="js-line" d="M0,118.06Q16.76,114.07 25.17,112.32C33.54,110.58 41.93,107.77 50.34,107.6C58.72,107.43 67.79,114.02 75.52,111.27C84.88,107.94 91.39,89.32 100.69,83.82C108.45,79.24 117.47,79.71 125.86,77.69C134.25,75.67 142.6,72.12 151.03,71.71C159.38,71.31 168.26,71.77 176.21,75.17C185.16,79 192.92,95.02 201.38,95.21C209.7,95.39 217.9,81.95 226.55,76.91C234.71,72.16 243.22,66.04 251.72,65.46C260.01,64.9 268.71,73.95 276.9,73C285.51,72 293.39,61.59 302.07,58.51C310.2,55.63 318.83,54.74 327.24,54.48C335.61,54.22 344.03,57.09 352.41,56.91C360.81,56.73 369.37,52.15 377.59,53.37C386.17,54.64 394.58,65.76 402.76,65.02C411.38,64.24 420.15,45.92 427.93,47.25C437.18,48.83 444.68,70.97 453.1,82.7C461.46,94.35 469.49,116.76 478.28,117.41C486.33,118.01 495.03,100.2 503.45,91.72C511.81,83.3 520.04,74.46 528.62,66.72C536.84,59.31 544.83,50.27 553.79,46.12C561.74,42.44 571.18,39.01 578.97,41.49C588.21,44.44 595.5,59.51 604.14,67.35C612.31,74.76 620.52,82.41 629.31,87.49C637.36,92.14 646.03,94.37 654.48,97.32C662.82,100.23 671.75,100.54 679.66,105.08C688.67,110.25 696.25,121.09 704.83,128.16Q713.05,134.93 730,146.77" style="vector-effect: non-scaling-stroke; fill: none; stroke: rgb(196, 196, 196); stroke-opacity: 1; stroke-width: 2px; opacity: 1;"/></g><g class="points"/><g class="text"/></g><g class="trace scatter traceebdd7a" style="stroke-miterlimit: 2; opacity: 1;"><g class="fills"/><g class="errorbars"/><g class="lines"><path class="js-line" d="M0,82.39L730,83.08" style="vector-effect: non-scaling-stroke; fill: none; stroke: rgb(53, 155, 208); stroke-opacity: 1; stroke-width: 2px; opacity: 1;"/></g><g class="points"/><g class="text"/></g></g></g><g class="overplot"/><path class="xlines-above crisp" d="M49,250.5H780" style="fill: none; stroke-width: 1px; stroke: rgb(196, 196, 196); stroke-opacity: 1;"/><path class="ylines-above crisp" d="M49.5,50V250" style="fill: none; stroke-width: 1px; stroke: rgb(196, 196, 196); stroke-opacity: 1;"/><g class="overlines-above"/><g class="xaxislayer-above"><path class="xtick ticks crisp" d="M0,251v5" transform="translate(50,0)" style="stroke: rgb(196, 196, 196); stroke-opacity: 1; stroke-width: 1px;"/><path class="xtick ticks crisp" d="M0,251v5" transform="translate(175.86,0)" style="stroke: rgb(196, 196, 196); stroke-opacity: 1; stroke-width: 1px;"/><path class="xtick ticks crisp" d="M0,251v5" transform="translate(301.72,0)" style="stroke: rgb(196, 196, 196); stroke-opacity: 1; stroke-width: 1px;"/><path class="xtick ticks crisp" d="M0,251v5" transform="translate(427.59,0)" style="stroke: rgb(196, 196, 196); stroke-opacity: 1; stroke-width: 1px;"/><path class="xtick ticks crisp" d="M0,251v5" transform="translate(553.45,0)" style="stroke: rgb(196, 196, 196); stroke-opacity: 1; stroke-width: 1px;"/><path class="xtick ticks crisp" d="M0,251v5" transform="translate(679.31,0)" style="stroke: rgb(196, 196, 196); stroke-opacity: 1; stroke-width: 1px;"/><g class="xtick"><text text-anchor="middle" x="0" y="270.4" transform="translate(50,0)" style="font-family: Menlo; font-size: 12px; fill: rgb(196, 196, 196); fill-opacity: 1; white-space: pre;">1990</text></g><g class="xtick"><text text-anchor="middle" x="0" y="270.4" transform="translate(175.86,0)" style="font-family: Menlo; font-size: 12px; fill: rgb(196, 196, 196); fill-opacity: 1; white-space: pre;">1995</text></g><g class="xtick"><text text-anchor="middle" x="0" y="270.4" transform="translate(301.72,0)" style="font-family: Menlo; font-size: 12px; fill: rgb(196, 196, 196); fill-opacity: 1; white-space: pre;">2000</text></g><g class="xtick"><text text-anchor="middle" x="0" y="270.4" transform="translate(427.59,0)" style="font-family: Menlo; font-size: 12px; fill: rgb(196, 196, 196); fill-opacity: 1; white-space: pre;">2005</text></g><g class="xtick"><text text-anchor="middle" x="0" y="270.4" transform="translate(553.45,0)" style="font-family: Menlo; font-size: 12px; fill: rgb(196, 196, 196); fill-opacity: 1; white-space: pre;">2010</text></g><g class="xtick"><text text-anchor="middle" x="0" y="270.4" transform="translate(679.31,0)" style="font-family: Menlo; font-size: 12px; fill: rgb(196, 196, 196); fill-opacity: 1; white-space: pre;">2015</text></g></g><g class="yaxislayer-above"><path class="ytick ticks crisp" d="M49,0h-5" transform="translate(0,250)" style="stroke: rgb(196, 196, 196); stroke-opacity: 1; stroke-width: 1px;"/><path class="ytick ticks crisp" d="M49,0h-5" transform="translate(0,200)" style="stroke: rgb(196, 196, 196); stroke-opacity: 1; stroke-width: 1px;"/><path class="ytick ticks crisp" d="M49,0h-5" transform="translate(0,150)" style="stroke: rgb(196, 196, 196); stroke-opacity: 1; stroke-width: 1px;"/><path class="ytick ticks crisp" d="M49,0h-5" transform="translate(0,100)" style="stroke: rgb(196, 196, 196); stroke-opacity: 1; stroke-width: 1px;"/><path class="ytick ticks crisp" d="M49,0h-5" transform="translate(0,50)" style="stroke: rgb(196, 196, 196); stroke-opacity: 1; stroke-width: 1px;"/><g class="ytick"><text text-anchor="end" x="41.6" y="4.199999999999999" transform="translate(0,250)" style="font-family: Menlo; font-size: 12px; fill: rgb(196, 196, 196); fill-opacity: 1; white-space: pre;">1B</text></g><g class="ytick"><text text-anchor="end" x="41.6" y="4.199999999999999" transform="translate(0,200)" style="font-family: Menlo; font-size: 12px; fill: rgb(196, 196, 196); fill-opacity: 1; white-space: pre;">1.1B</text></g><g class="ytick"><text text-anchor="end" x="41.6" y="4.199999999999999" transform="translate(0,150)" style="font-family: Menlo; font-size: 12px; fill: rgb(196, 196, 196); fill-opacity: 1; white-space: pre;">1.2B</text></g><g class="ytick"><text text-anchor="end" x="41.6" y="4.199999999999999" transform="translate(0,100)" style="font-family: Menlo; font-size: 12px; fill: rgb(196, 196, 196); fill-opacity: 1; white-space: pre;">1.3B</text></g><g class="ytick"><text text-anchor="end" x="41.6" y="4.199999999999999" transform="translate(0,50)" style="font-family: Menlo; font-size: 12px; fill: rgb(196, 196, 196); fill-opacity: 1; white-space: pre;">1.4B</text></g></g><g class="overaxes-above"/></g></g><g class="polarlayer"/><g class="ternarylayer"/><g class="geolayer"/><g class="funnelarealayer"/><g class="pielayer"/><g class="treemaplayer"/><g class="sunburstlayer"/><g class="glimages"/><defs id="topdefs-083fef"><g class="clips"/></defs><g class="layer-above"><g class="imagelayer"/><g class="shapelayer"><path data-index="0" fill-rule="evenodd" d="M50,168.06L780,168.06" clip-path="url('#clip083fefy')" style="opacity: 1; stroke: rgb(199, 71, 63); stroke-opacity: 1; fill: rgb(0, 0, 0); fill-opacity: 0; stroke-dasharray: 3px, 3px; stroke-width: 1px;"/></g></g><g class="infolayer"><g class="g-gtitle"><text class="gtitle" x="0" y="6" text-anchor="start" dy="0.7em" style="font-family: Menlo; font-size: 10px; fill: rgb(35, 35, 35); opacity: 1; font-weight: normal; white-space: pre;">Greenhouse Gas Emissions in Japan | 2019</text></g><g class="g-xtitle"><text class="xtitle" x="415" y="290" text-anchor="middle" style="font-family: Menlo; font-size: 10px; fill: rgb(196, 196, 196); opacity: 1; font-weight: normal; white-space: pre;">Year</text></g><g class="g-ytitle" transform="translate(-10.5,0)"><text class="ytitle" transform="rotate(-90,20,150)" x="20" y="150" text-anchor="middle" style="font-family: Menlo; font-size: 10px; fill: rgb(196, 196, 196); opacity: 1; font-weight: normal; white-space: pre;">CO₂</text></g><g class="annotation" data-index="0" style="opacity: 1;"><g class="annotation-text-g" transform="rotate(0,73.5,175.56)"><g class="cursor-pointer" transform="translate(50, 168)"><rect class="bg" x="0.5" y="0.5" width="46" height="14" style="stroke-width: 1px; stroke: rgb(0, 0, 0); stroke-opacity: 0; fill: rgb(0, 0, 0); fill-opacity: 0;"/><text class="annotation-text" text-anchor="middle" x="23.6875" y="10.5" style="font-family: Menlo; font-size: 9px; fill: rgb(199, 71, 63); fill-opacity: 1; white-space: pre;">baseline</text></g></g></g><g class="annotation" data-index="1" style="opacity: 1;"><g class="annotation-text-g" transform="rotate(0,95.5,57.5)"><g class="cursor-pointer" transform="translate(50, 50)"><rect class="bg" x="0.5" y="0.5" width="90" height="14" style="stroke-width: 1px; stroke: rgb(0, 0, 0); stroke-opacity: 0; fill: rgb(0, 0, 0); fill-opacity: 0;"/><text class="annotation-text" text-anchor="middle" x="45.359375" y="10.5" style="font-family: Menlo; font-size: 9px; fill: rgb(53, 155, 208); fill-opacity: 1; white-space: pre;">trend = -0.05/yr</text></g></g></g></g></svg>