<svg class="main-svg" xmlns="http://www.w3.org/2000/svg" xmlns:xlink="http://www.w3.org/1999/xlink" width="800" height="300" style="" viewBox="0 0 800 300"><rect x="0" y="0" width="800" height="300" style="fill: rgb(255, 255, 255); fill-opacity: 1;"/><defs id="defs-8c09e6"><g class="clips"><clipPath id="clip8c09e6xyplot" class="plotclip"><rect width="730" height="200"/></clipPath><clipPath class="axesclip" id="clip8c09e6x"><rect x="50" y="0" width="730" height="300"/></clipPath><clipPath class="axesclip" id="clip8c09e6y"><rect x="0" y="50" width="800" height="200"/></clipPath><clipPath class="axesclip" id="clip8c09e6xy"><rect x="50" y="50" width="730" height="200"/></clipPath></g><g class="gradients"/></defs><g class="bglayer"/><g class="layer-below"><g class="imagelayer"/><g class="shapelayer"/></g><g class="cartesianlayer"><g class="subplot xy"><g class="layer-subplot"><g class="shapelayer"/><g class="imagelayer"/></g><g class="gridlayer"><g class="x"><path class="xgrid crisp" transform="translate(100.6,0)" d="M0,50v200" style="stroke: rgb(238, 238, 238); stroke-opacity: 1; stroke-width: 1px;"/><path class="xgrid crisp" transform="translate(213.04,0)" d="M0,50v200" style="stroke: rgb(238, 238, 238); stroke-opacity: 1; stroke-width: 1px;"/><path class="xgrid crisp" transform="translate(325.49,0)" d="M0,50v200" style="stroke: rgb(238, 238, 238); stroke-opacity: 1; stroke-width: 1px;"/><path class="xgrid crisp" transform="translate(437.94,0)" d="M0,50v200" style="stroke: rgb(238, 238, 238); stroke-opacity: 1; stroke-width: 1px;"/><path class="xgrid crisp" transform="translate(550.4,0)" d="M0,50v200" style="stroke: rgb(238, 238, 238); stroke-opacity: 1; stroke-width: 1px;"/><path class="xgrid crisp" transform="translate(662.85,0)" d="M0,50v200" style="stroke: rgb(238, 238, 238); stroke-opacity: 1; stroke-width: 1px;"/><path class="xgrid crisp" transform="translate(775.3,0)" d="M0,50v200" style="stroke: rgb(238, 238, 238); stroke-opacity: 1; stroke-width: 1px;"/></g><g class="y"><path class="ygrid crisp" transform="translate(0,210.91)" d="M50,0h730" style="stroke: rgb(238, 238, 238); stroke-opacity: 1; stroke-width: 1px;"/><path class="ygrid crisp" transform="translate(0,165.45)" d="M50,0h730" style="stroke: rgb(238, 238, 238); stroke-opacity: 1; stroke-width: 1px;"/><path class="ygrid crisp" transform="translate(0,120)" d="M50,0h730" style="stroke: rgb(238, 238, 238); stroke-opacity: 1; stroke-width: 1px;"/><path class="ygrid crisp" transform="translate(0,74.55)" d="M50,0h730" style="stroke: rgb(238, 238, 238); stroke-opacity: 1; stroke-width: 1px;"/></g></g><g class="zerolinelayer"/><path class="xlines-below"/><path class="ylines-below"/><g class="overlines-below"/><g class="xaxislayer-below"/><g class="yaxislayer-below"/><g class="overaxes-below"/><g class="plot" transform="translate(50, 50)" clip-path="url('#clip8c09e6xyplot')"><g class="scatterlayer mlayer"><g class="trace scatter trace223400" style="stroke-miterlimit: 2; opacity: 1;"><g class="fills"/><g class="errorbars"/><g class="lines"><path class="js-line" d="M0,148.18L0.48,148.18L0.91,137.27L1.85,119.09L2.32,126.36L2.79,125.45L3.26,122.73L3.74,110L4.2,120L4.68,141.82L5.14,110.91L5.62,138.18L6.1,116.36L6.54,141.82L7.02,139.09L7.48,130L7.96,129.09L8.42,135.45L8.9,135.45L9.37,120L10.31,146.36L10.78,163.64L11.25,190L11.73,171.82L12.16,140L12.64,142.73L13.1,145.45L14.04,119.09L14.52,123.64L14.99,125.45L15.46,120.91L16.87,148.18L17.35,133.64L18.26,136.36L18.72,133.64L19.2,136.36L19.66,125.45L22.01,137.27L22.49,150L22.97,166.36L23.4,144.55L24.82,129.09L25.28,127.27L26.23,114.55L26.69,118.18L27.17,118.18L27.63,125.45L28.11,123.64L28.59,118.18L29.03,134.55L29.51,130L29.97,106.36L30.45,105.45L30.91,107.27L32.33,101.82L32.8,120.91L33.27,104.55L33.74,122.73L34.22,118.18L34.65,130.91L35.59,98.18L36.07,107.27L37.01,109.09L37.48,100L38.89,138.18L39.36,109.09L40.27,170L40.75,142.73L41.69,121.82L42.15,123.64L42.63,120L43.1,118.18L43.57,141.82L44.98,113.64L45.46,148.18L45.89,148.18L46.37,125.45L46.83,122.73L47.31,132.73L48.72,107.27L49.18,104.55L49.66,90.91L50.12,131.82L50.6,124.55L51.08,127.27L51.51,130L52.92,107.27L53.39,111.82L53.86,113.64L54.34,112.73L54.8,97.27L55.28,118.18L55.74,101.82L56.7,133.64L57.13,128.18L58.07,113.64L58.54,110.91L59.48,116.36L59.96,129.09L60.42,123.64L60.9,129.09L61.36,139.09L61.84,125.45L63.22,140L63.69,130.91L64.16,136.36L64.62,135.45L65.1,129.09L65.58,129.09L66.04,132.73L66.98,147.27L67.46,129.09L67.93,124.55L68.36,137.27L68.84,142.73L69.3,137.27L69.78,142.73L70.24,139.09L70.72,147.27L71.2,142.73L71.66,144.55L72.14,146.36L72.6,155.45L73.08,162.73L73.55,157.27L74,160L74.48,150.91L74.94,142.73L75.42,147.27L75.88,148.18L77.29,137.27L77.77,128.18L78.71,147.27L79.19,166.36L80.56,130L81.03,126.36L81.5,125.45L81.97,126.36L82.45,123.64L82.91,130L83.39,115.45L83.85,117.27L84.33,113.64L85.24,132.73L85.71,108.18L86.18,123.64L86.65,122.73L87.11,121.82L87.59,122.73L88.07,130.91L88.53,129.09L89.01,137.27L89.47,125.45L89.95,144.55L90.42,146.36L90.86,135.45L91.79,148.18L92.27,144.55L93.69,130.91L94.15,130L94.63,146.36L95.09,143.64L95.57,139.09L96.04,144.55L96.49,162.73L97.43,141.82L97.91,140.91L98.37,140.91L98.85,142.73L99.32,137.27L99.78,148.18L100.72,148.18L101.2,153.64L101.68,153.64L102.11,162.73L104.46,128.18L104.94,130.91L105.4,134.55L105.88,130.91L106.34,152.73L106.82,133.64L107.3,147.27L107.73,142.73L108.2,139.09L109.14,140.91L109.61,138.18L110.08,139.09L110.56,131.82L111.96,156.36L112.44,149.09L112.92,165.45L113.35,159.09L113.82,160.91L114.76,144.55L115.22,140.91L115.7,141.82L116.18,137.27L116.64,136.36L117.12,128.18L117.58,124.55L118.06,134.55L118.53,125.45L118.98,139.09L120.4,124.55L120.86,137.27L122.27,152.73L122.75,142.73L123.21,138.18L123.69,140L124.17,144.55L124.6,147.27L125.08,138.18L125.54,139.09L126.02,142.73L127.43,130L127.89,130.91L128.37,111.82L128.83,113.64L129.31,109.09L130.7,129.09L131.16,121.82L131.63,120L132.1,123.64L133.51,108.18L133.99,109.09L134.45,116.36L135.41,104.55L135.84,123.64L136.31,106.36L136.78,110.91L137.25,108.18L138.19,100L138.67,107.27L139.13,117.27L139.61,106.36L141.47,140L141.95,118.18L142.89,134.55L143.35,120.91L143.83,125.45L144.3,122.73L145.24,135.45L145.7,153.64L146.18,148.18L146.66,169.09L147.09,165.45L147.57,134.55L148.03,150.91L148.51,125.45L148.97,110L149.45,117.27L149.92,103.64L151.32,150.91L151.8,136.36L152.28,137.27L152.71,131.82L153.19,134.55L153.65,129.09L154.12,110L154.59,120L155.06,114.55L155.54,111.82L156,97.27L157.42,120L157.9,119.09L158.33,135.45L158.8,110.91L159.27,119.09L159.74,115.45L160.21,121.82L160.68,121.82L161.16,112.73L161.62,119.09L162.1,139.09L162.56,142.73L163.04,120L163.52,126.36L163.96,112.73L164.44,123.64L164.9,109.09L165.84,113.64L166.32,112.73L166.79,108.18L167.26,112.73L168.2,125.45L168.67,106.36L169.58,114.55L170.06,111.82L170.52,111.82L171,102.73L171.46,102.73L171.94,117.27L172.87,102.73L173.35,120L173.81,105.45L174.29,132.73L175.68,120L176.14,120L176.62,120.91L177.08,118.18L177.55,122.73L178.03,116.36L179.43,120L179.91,117.27L180.82,137.27L181.3,130.91L182.23,116.36L182.7,121.82L183.17,127.27L183.65,114.55L184.11,112.73L184.59,97.27L185.05,98.18L185.53,126.36L186.01,118.18L186.45,128.18L187.87,112.73L188.33,116.36L188.81,116.36L189.28,117.27L189.75,115.45L190.22,120.91L190.69,142.73L191.16,126.36L193.01,113.64L193.49,113.64L193.95,112.73L194.43,106.36L194.9,105.45L195.37,113.64L196.78,90.91L197.26,99.09L197.69,100L198.17,110L198.63,111.82L199.11,100.91L199.57,108.18L200.05,99.09L200.52,103.64L200.98,100.91L201.46,101.82L202.4,120.91L202.88,112.73L203.31,126.36L203.79,118.18L204.25,119.09L205.19,105.45L205.66,106.36L206.14,104.55L206.6,93.64L207.08,105.45L207.54,132.73L208.02,100L208.94,131.82L209.42,121.82L209.88,115.45L210.36,125.45L210.82,108.18L211.3,111.82L211.78,109.09L212.71,103.64L213.18,117.27L214.13,163.64L214.56,133.64L215.5,121.82L215.98,124.55L216.44,124.55L216.92,110L217.39,113.64L217.86,104.55L218.33,98.18L218.8,130.91L220.66,109.09L221.12,110.91L223.01,93.64L223.48,96.36L223.95,80.91L224.41,101.82L224.89,98.18L225.37,117.27L227.68,93.64L228.15,92.73L228.63,92.73L229.09,91.82L229.57,105.45L230.03,103.64L230.51,84.55L231.43,119.09L231.91,100L232.85,108.18L233.31,102.73L233.79,105.45L234.27,93.64L235.67,109.09L236.14,128.18L237.05,129.09L237.53,115.45L237.99,115.45L238.47,113.64L239.41,108.18L239.89,110.91L240.35,108.18L240.82,115.45L241.29,137.27L241.76,116.36L242.24,107.27L242.67,127.27L244.55,96.36L245.03,98.18L245.5,101.82L245.97,100L246.44,91.82L247.38,117.27L247.86,82.73L248.77,120.91L249.23,119.09L249.71,106.36L250.17,108.18L250.65,106.36L251.12,110.91L251.58,101.82L252.52,126.36L253,126.36L253.48,141.82L253.92,129.09L254.4,125.45L254.86,114.55L255.34,110.91L255.8,99.09L256.76,103.64L257.22,101.82L257.7,106.36L258.16,103.64L258.63,120.91L259.11,103.64L259.54,132.73L260.96,100.91L261.42,94.55L262.38,86.36L262.84,88.18L263.31,99.09L263.78,110L264.25,101.82L264.73,102.73L265.16,97.27L265.64,95.45L266.1,103.64L266.58,105.45L267.04,100L268.46,88.18L268.93,94.55L269.4,130.91L269.87,112.73L270.35,112.73L270.78,130L271.26,115.45L273.14,96.36L273.61,97.27L274.08,108.18L274.55,96.36L275.01,67.27L275.49,135.45L276.89,98.18L277.35,98.18L278.29,88.18L278.77,96.36L279.25,88.18L279.71,93.64L280.19,98.18L280.65,86.36L282.03,112.73L282.51,93.64L282.97,96.36L283.45,85.45L283.91,85.45L284.39,90.91L284.87,103.64L285.33,76.36L286.27,104.55L286.74,85.45L287.22,116.36L287.65,100.91L288.13,95.45L289.07,85.45L289.53,95.45L290.01,96.36L290.49,90.91L290.95,82.73L291.42,90L292.36,121.82L292.84,92.73L293.27,117.27L293.75,91.82L294.21,85.45L294.69,99.09L295.15,82.73L295.63,87.27L296.1,88.18L296.57,69.09L297.04,85.45L297.98,60L298.46,77.27L299.38,97.27L299.84,81.82L300.32,81.82L300.78,75.45L301.26,76.36L301.74,63.64L302.2,70.91L302.68,91.82L303.14,108.18L303.62,102.73L304.09,110L305,88.18L305.46,99.09L305.94,90.91L306.4,97.27L306.88,66.36L307.36,80L307.82,79.09L308.3,88.18L308.76,117.27L309.24,87.27L309.71,90L310.14,118.18L310.62,93.64L311.08,113.64L311.56,122.73L312.02,108.18L312.5,109.09L312.98,99.09L313.91,104.55L314.38,133.64L316.24,102.73L316.7,107.27L317.64,104.55L318.12,105.45L318.59,106.36L319.06,93.64L319.53,100L320,120.91L320.47,90L320.95,122.73L321.4,124.55L321.87,112.73L322.34,97.27L322.81,99.09L323.27,110.91L323.75,102.73L324.23,105.45L324.69,100L325.63,115.45L326.11,90.91L327.02,124.55L327.49,107.27L327.95,103.64L328.43,116.36L329.85,100.91L330.31,102.73L330.79,104.55L331.25,121.82L331.73,132.73L332.2,125.45L333.57,103.64L334.05,109.09L334.51,106.36L334.99,109.09L335.47,104.55L335.93,106.36L336.41,133.64L336.87,117.27L337.34,128.18L337.82,141.82L338.25,129.09L339.67,96.36L340.13,92.73L341.09,84.55L341.55,88.18L342.02,96.36L342.49,80L343.44,94.55L343.89,114.55L344.83,94.55L345.3,92.73L346.24,90.91L346.72,86.36L347.66,114.55L348.12,101.82L349.07,90L349.51,88.18L349.98,86.36L350.44,90L350.92,88.18L351.38,93.64L352.8,88.18L353.28,104.55L353.74,88.18L354.22,125.45L354.69,110L355.12,119.09L355.6,120L356.06,120.91L356.54,110.91L357,111.82L357.48,105.45L357.96,101.82L358.42,103.64L358.9,90.91L359.36,118.18L359.84,91.82L360.74,136.36L361.22,122.73L363.1,99.09L363.58,107.27L364.04,108.18L364.52,120.91L364.98,121.82L365.45,120L365.93,135.45L366.38,128.18L366.85,128.18L367.79,117.27L368.26,118.18L368.73,116.36L369.21,122.73L369.67,115.45L370.15,120.91L370.61,115.45L371.09,111.82L371.57,112.73L372,112.73L373.41,90.91L373.87,94.55L374.35,87.27L374.83,90L375.29,94.55L376.71,70L377.18,81.82L377.62,95.45L378.09,92.73L378.55,90.91L379.03,96.36L379.49,94.55L379.97,96.36L380.45,97.27L380.91,92.73L381.85,88.18L382.33,90L382.8,95.45L383.23,90.91L384.17,100L384.65,94.55L385.11,94.55L385.59,95.45L386.07,91.82L386.53,101.82L387.01,110L387.47,100.91L387.94,100.91L388.42,85.45L388.87,129.09L389.35,111.82L389.81,110.91L390.28,97.27L390.75,98.18L391.22,96.36L391.7,90.91L392.16,95.45L392.64,103.64L393.1,80L393.58,90L394.06,80.91L394.96,91.82L395.43,90L395.9,86.36L396.37,95.45L396.84,88.18L397.32,97.27L397.78,97.27L398.26,92.73L398.72,99.09L399.2,90.91L399.68,88.18L400.11,96.36L400.58,92.73L401.05,95.45L401.52,94.55L401.98,87.27L402.46,90L402.94,87.27L403.4,82.73L403.88,83.64L404.34,89.09L404.82,99.09L405.29,78.18L405.72,105.45L406.2,99.09L406.66,90.91L407.14,95.45L407.6,80.91L408.08,82.73L408.56,80L409.02,70L409.5,71.82L409.96,89.09L410.44,95.45L410.91,114.55L411.36,123.64L411.84,115.45L412.3,109.09L412.78,110L413.24,109.09L414.19,119.09L414.65,118.18L415.13,114.55L415.59,128.18L416.07,107.27L416.55,124.55L418.39,108.18L418.86,112.73L420.27,96.36L420.75,104.55L421.21,98.18L421.69,109.09L422.6,104.55L423.07,108.18L423.54,107.27L424.01,93.64L424.47,91.82L424.95,95.45L425.43,95.45L425.89,101.82L426.37,100L426.83,115.45L427.31,112.73L427.78,121.82L429.15,90.91L429.63,102.73L430.57,98.18L431.05,102.73L431.51,85.45L431.99,100.91L433.4,120.91L433.85,91.82L434.79,111.82L435.27,101.82L435.73,101.82L436.21,102.73L437.14,93.64L437.62,94.55L438.08,103.64L438.56,118.18L439.04,116.36L439.47,99.09L439.95,87.27L440.41,88.18L440.88,96.36L441.35,92.73L441.82,93.64L442.3,92.73L442.76,91.82L443.24,80.91L443.7,78.18L444.18,92.73L444.66,83.64L445.09,103.64L445.56,90L446.03,97.27L446.5,97.27L446.97,97.27L447.44,101.82L447.92,97.27L448.38,99.09L448.86,96.36L450.28,122.73L450.71,120.91L452.58,103.64L453.06,105.45L454.48,92.73L454.94,104.55L455.42,127.27L455.89,122.73L456.34,108.18L458.22,89.09L458.7,87.27L459.17,92.73L459.63,85.45L460.11,85.45L460.57,73.64L461.05,77.27L461.53,68.18L462.9,82.73L463.38,80.91L464.79,92.73L465.25,90.91L466.19,100L466.67,124.55L467.15,129.09L467.58,114.55L469.46,102.73L469.93,102.73L470.87,109.09L471.35,104.55L471.81,111.82L472.29,97.27L472.77,107.27L473.2,100.91L473.67,101.82L474.14,99.09L474.61,100L475.07,100.91L475.55,110L476.03,101.82L477.43,118.18L477.91,111.82L478.83,136.36L479.31,110.91L479.77,116.36L480.25,110.91L481.19,111.82L481.66,104.55L482.13,119.09L482.6,107.27L483.06,103.64L483.54,110L484.45,80.91L484.93,83.64L485.39,82.73L485.87,79.09L486.81,90.91L487.28,86.36L487.74,89.09L488.22,76.36L488.68,93.64L489.16,91.82L489.64,96.36L490.07,91.82L490.55,97.27L491.48,102.73L491.95,98.18L492.42,105.45L492.9,92.73L493.36,96.36L493.84,84.55L495.26,100L495.69,88.18L496.16,96.36L496.63,91.82L497.1,86.36L497.57,88.18L498.04,85.45L499.46,76.36L499.92,58.18L501.32,89.09L501.8,80.91L502.26,76.36L502.74,82.73L504.62,87.27L505.09,72.73L505.56,83.64L506.03,65.45L506.51,75.45L506.94,71.82L507.42,76.36L507.88,83.64L508.36,80L508.82,83.64L509.3,81.82L509.77,82.73L510.23,85.45L510.71,82.73L511.17,69.09L511.65,96.36L512.13,94.55L512.56,101.82L513.5,86.36L513.98,92.73L514.44,92.73L514.91,91.82L515.39,86.36L515.85,88.18L516.33,88.18L517.27,60.91L517.75,67.27L519.12,81.82L519.59,80.91L521.01,74.55L521.47,81.82L521.95,65.45L522.41,82.73L522.89,83.64L523.37,90.91L523.81,89.09L524.29,92.73L524.75,81.82L525.23,93.64L525.69,93.64L526.17,89.09L527.11,91.82L527.58,99.09L528.05,115.45L528.52,93.64L529,108.18L529.43,96.36L530.37,90L530.85,95.45L531.31,95.45L531.79,89.09L532.26,90.91L532.73,90L533.2,95.45L534.14,78.18L534.62,85.45L535.05,86.36L535.53,85.45L535.99,85.45L536.47,81.82L536.93,90.91L537.41,88.18L537.88,87.27L538.34,87.27L538.82,90L539.76,80.91L540.24,63.64L540.67,87.27L541.15,79.09L541.61,76.36L542.09,75.45L542.55,66.36L543.02,70L543.5,62.73L544.44,70.91L544.9,56.36L545.38,58.18L545.86,72.73L546.3,68.18L546.78,69.09L547.24,73.64L547.72,70.91L548.18,74.55L548.66,77.27L549.14,73.64L550.07,87.27L550.54,76.36L551.01,86.36L551.49,80L552.4,83.64L552.86,82.73L553.34,82.73L553.8,75.45L554.28,78.18L554.75,77.27L555.22,75.45L555.69,80.91L556.16,71.82L556.63,73.64L557.11,69.09L557.54,47.27L558.02,65.45L558.96,71.82L559.42,70.91L559.9,70L560.37,72.73L561.31,56.36L561.77,66.36L563.16,78.18L563.64,66.36L564.1,69.09L564.58,66.36L565.04,65.45L565.51,73.64L565.99,73.64L566.45,75.45L567.39,83.64L567.87,70.91L568.35,72.73L568.79,78.18L569.27,82.73L569.73,79.09L571.15,94.55L571.63,94.55L572.57,99.09L573.03,86.36L573.5,77.27L573.98,81.82L574.41,77.27L574.89,84.55L575.35,79.09L577.25,91.82L577.71,83.64L578.18,89.09L578.65,80.91L579.12,76.36L579.6,100L580.51,76.36L580.97,73.64L581.91,79.09L582.39,78.18L582.86,76.36L583.33,70L583.8,64.55L584.26,70.91L585.22,54.55L585.65,71.82L586.59,79.09L587.07,70L588.01,65.45L588.48,73.64L588.94,67.27L589.42,68.18L589.88,76.36L590.36,80.91L590.84,75.45L591.76,82.73L592.22,75.45L592.7,77.27L593.16,76.36L593.64,77.27L594.58,84.55L595.06,80L595.52,73.64L596,79.09L596.9,70.91L597.38,74.55L598.78,61.82L599.26,60L600.67,48.18L601.14,44.55L601.61,51.82L602.09,30.91L602.52,53.64L603,41.82L603.46,45.45L603.94,46.36L604.4,42.73L604.88,44.55L605.35,57.27L606.29,65.45L606.76,60L607.23,66.36L607.71,53.64L608.14,77.27L608.62,68.18L609.08,72.73L609.56,73.64L610.02,71.82L610.5,76.36L610.97,72.73L611.44,75.45L611.91,72.73L612.37,67.27L612.85,79.09L613.33,63.64L613.78,64.55L614.25,58.18L615.65,71.82L616.13,65.45L617.55,80.91L618.01,77.27L618.49,66.36L618.96,73.64L619.39,57.27L619.87,59.09L620.33,56.36L620.81,59.09L621.27,57.27L621.75,53.64L622.23,60L622.69,59.09L623.17,46.36L623.63,60.91L624.1,43.64L625.01,46.36L625.49,57.27L625.95,58.18L626.43,55.45L626.89,56.36L627.37,60.91L627.85,58.18L628.31,63.64L628.78,58.18L629.25,65.45L629.72,55.45L630.2,66.36L631.57,55.45L632.05,57.27L632.51,57.27L632.99,54.55L633.46,53.64L633.93,48.18L634.4,53.64L634.86,47.27L635.34,59.09L635.82,50.91L636.74,57.27L637.2,70L639.56,56.36L640.04,48.18L641.45,69.09L641.88,57.27L642.36,51.82L642.82,53.64L643.3,50.91L643.76,48.18L644.24,55.45L644.72,50L645.18,52.73L645.66,50.91L646.6,67.27L647.07,64.55L647.98,60.91L648.44,61.82L649.38,53.64L649.86,54.55L650.34,53.64L650.8,49.09L651.27,48.18L651.74,44.55L652.21,43.64L652.69,53.64L654.06,59.09L654.54,60.91L655,60.91L655.48,61.82L655.95,58.18L656.42,60.91L657.36,71.82L657.83,89.09L658.31,81.82L658.76,58.18L659.23,70.91L659.7,70L660.17,67.27L660.63,58.18L661.11,60.91L661.59,60L662.05,53.64L662.53,55.45L662.99,64.55L663.47,65.45L663.94,63.64L664.38,62.73L664.85,59.09L665.31,57.27L665.79,50.91L666.25,50.91L666.73,49.09L667.21,50L667.67,52.73L668.15,49.09L668.61,54.55L669.09,50.91L669.56,54.55L669.99,44.55L670.47,45.45L670.93,49.09L671.41,46.36L671.87,48.18L673.29,60L673.77,52.73L674.7,76.36L675.18,73.64L676.09,57.27L676.55,63.64L677.03,55.45L677.49,56.36L677.97,57.27L679.85,68.18L680.32,73.64L680.8,80L681.25,66.36L682.66,50L683.13,50L684.08,47.27L684.54,50L685.02,47.27L685.48,64.55L686.43,58.18L686.87,58.18L687.34,59.09L687.8,50.91L688.28,51.82L688.74,49.09L689.22,49.09L689.7,46.36L690.16,50.91L690.64,41.82L692.05,68.18L692.48,50L693.42,41.82L693.9,40L694.36,44.55L694.84,40L695.32,38.18L695.78,39.09L696.26,48.18L696.72,41.82L697.2,43.64L697.67,46.36L699.52,32.73L699.98,35.45L701.4,21.82L701.88,20.91L702.34,10L702.81,22.73L703.74,11.82L704.22,20.91L704.68,35.45L705.15,32.73L705.62,30.91L706.09,30.91L706.57,31.82L707.51,44.55L707.97,38.18L709.36,26.36L709.83,34.55L710.77,37.27L711.23,32.73L712.19,38.18L712.65,42.73L713.13,42.73L713.59,44.55L714.54,52.73L714.98,39.09L715.45,40.91L715.91,39.09L717.33,46.36L717.81,40.91L718.27,35.45L718.75,41.82L719.69,34.55L720.16,40.91L720.59,30L721.07,30.91L721.53,39.09L722.01,29.09L722.47,30L722.95,31.82L723.43,29.09L723.89,31.82L724.37,33.64L724.83,20L725.3,17.27L725.78,18.18L726.23,16.36L727.17,32.73L727.64,31.82L728.11,34.55L729.06,30L729.52,39.09L730,29.09" style="vector-effect: non-scaling-stroke; fill: none; stroke: rgb(196, 196, 196); stroke-opacity: 1; stroke-width: 2px; opacity: 1;"/></g><g class="points"/><g class="text"/></g><g class="trace scatter trace009278" style="stroke-miterlimit: 2; opacity: 1;"><g class="fills"/><g class="errorbars"/><g class="lines"><path class="js-line" d="M0,141.19L10.78,140.5L11.25,139.82L22.01,139.13L22.49,138.45L33.27,137.77L33.74,137.08L44.5,136.4L44.98,135.71L55.74,135.03L56.22,134.35L66.98,133.66L67.46,132.98L78.23,132.29L78.71,131.61L89.47,130.92L89.95,130.24L100.72,129.56L101.2,128.87L111.96,128.19L112.44,127.5L123.21,126.82L123.69,126.13L134.45,125.45L134.93,124.77L145.7,124.08L146.18,123.4L156.94,122.71L157.42,122.03L168.2,121.34L168.67,120.66L179.43,119.98L179.91,119.29L190.69,118.61L191.16,117.92L201.92,117.24L202.4,116.55L213.18,115.87L213.65,115.19L224.41,114.5L224.89,113.82L235.67,113.13L236.14,112.45L246.9,111.77L247.38,111.08L258.16,110.4L258.63,109.71L269.4,109.03L269.87,108.34L280.65,107.66L281.13,106.98L291.89,106.29L292.36,105.61L303.14,104.92L303.62,104.24L314.38,103.55L314.85,102.87L325.63,102.19L326.11,101.5L336.87,100.82L337.34,100.13L348.12,99.45L348.6,98.76L359.36,98.08L359.84,97.4L370.61,96.71L371.09,96.03L381.85,95.34L382.33,94.66L393.1,93.98L393.58,93.29L404.34,92.61L404.82,91.92L415.59,91.24L416.07,90.55L426.83,89.87L427.31,89.19L438.08,88.5L438.56,87.82L449.32,87.13L449.8,86.45L460.57,85.76L461.05,85.08L471.81,84.4L472.29,83.71L483.06,83.03L483.54,82.34L494.3,81.66L494.78,80.97L505.56,80.29L506.03,79.61L516.79,78.92L517.27,78.24L528.05,77.55L528.52,76.87L539.28,76.19L539.76,75.5L550.54,74.82L551.01,74.13L561.77,73.45L562.25,72.76L573.03,72.08L573.5,71.4L584.26,70.71L584.74,70.03L595.52,69.34L596,68.66L606.76,67.97L607.23,67.29L618.01,66.61L618.49,65.92L629.25,65.24L629.72,64.55L640.5,63.87L640.98,63.18L651.74,62.5L652.21,61.82L662.99,61.13L663.47,60.45L674.23,59.76L674.7,59.08L685.48,58.4L685.96,57.71L696.72,57.03L697.2,56.34L707.97,55.66L708.45,54.97L719.21,54.29L719.69,53.61L730,52.92" style="vector-effect: non-scaling-stroke; fill: none; stroke: rgb(53, 155, 208); stroke-opacity: 1; stroke-width: 2px; opacity: 1;"/></g><g class="points"/><g class="text"/></g></g></g><g class="overplot"/><path class="xlines-above crisp" style="fill: none; stroke-width: 1px; stroke: rgb(196, 196, 196); stroke-opacity: 1;" d="M49,250.5H780"/><path class="ylines-above crisp" style="fill: none; stroke-width: 1px; stroke: rgb(196, 196, 196); stroke-opacity: 1;" d="M49.5,50V250"/><g class="overlines-above"/><g class="xaxislayer-above"><path class="xtick ticks crisp" d="M0,251v5" transform="translate(100.6,0)" style="stroke: rgb(196, 196, 196); stroke-opacity: 1; stroke-width: 1px;"/><path class="xtick ticks crisp" d="M0,251v5" transform="translate(213.04,0)" style="stroke: rgb(196, 196, 196); stroke-opacity: 1; stroke-width: 1px;"/><path class="xtick ticks crisp" d="M0,251v5" transform="translate(325.49,0)" style="stroke: rgb(196, 196, 196); stroke-opacity: 1; stroke-width: 1px;"/><path class="xtick ticks crisp" d="M0,251v5" transform="translate(437.94,0)" style="stroke: rgb(196, 196, 196); stroke-opacity: 1; stroke-width: 1px;"/><path class="xtick ticks crisp" d="M0,251v5" transform="translate(550.4,0)" style="stroke: rgb(196, 196, 196); stroke-opacity: 1; stroke-width: 1px;"/><path class="xtick ticks crisp" d="M0,251v5" transform="translate(662.85,0)" style="stroke: rgb(196, 196, 196); stroke-opacity: 1; stroke-width: 1px;"/><path class="xtick ticks crisp" d="M0,251v5" transform="translate(775.3,0)" style="stroke: rgb(196, 196, 196); stroke-opacity: 1; stroke-width: 1px;"/><g class="xtick"><text text-anchor="middle" x="0" y="270.4" transform="translate(100.6,0)" style="font-family: Menlo; font-size: 12px; fill: rgb(196, 196, 196); fill-opacity: 1; white-space: pre;">1900</text></g><g class="xtick"><text text-anchor="middle" x="0" y="270.4" transform="translate(213.04,0)" style="font-family: Menlo; font-size: 12px; fill: rgb(196, 196, 196); fill-opacity: 1; white-space: pre;">1920</text></g><g class="xtick"><text text-anchor="middle" x="0" y="270.4" transform="translate(325.49,0)" style="font-family: Menlo; font-size: 12px; fill: rgb(196, 196, 196); fill-opacity: 1; white-space: pre;">1940</text></g><g class="xtick"><text text-anchor="middle" x="0" y="270.4" transform="translate(437.94,0)" style="font-family: Menlo; font-size: 12px; fill: rgb(196, 196, 196); fill-opacity: 1; white-space: pre;">1960</text></g><g class="xtick"><text text-anchor="middle" x="0" y="270.4" transform="translate(550.4,0)" style="font-family: Menlo; font-size: 12px; fill: rgb(196, 196, 196); fill-opacity: 1; white-space: pre;">1980</text></g><g class="xtick"><text text-anchor="middle" x="0" y="270.4" transform="translate(662.85,0)" style="font-family: Menlo; font-size: 12px; fill: rgb(196, 196, 196); fill-opacity: 1; white-space: pre;">2000</text></g><g class="xtick"><text text-anchor="middle" x="0" y="270.4" transform="translate(775.3,0)" style="font-family: Menlo; font-size: 12px; fill: rgb(196, 196, 196); fill-opacity: 1; white-space: pre;">2020</text></g></g><g class="yaxislayer-above"><path class="ytick ticks crisp" d="M49,0h-5" transform="translate(0,210.91)" style="stroke: rgb(196, 196, 196); stroke-opacity: 1; stroke-width: 1px;"/><path class="ytick ticks crisp" d="M49,0h-5" transform="translate(0,165.45)" style="stroke: rgb(196, 196, 196); stroke-opacity: 1; stroke-width: 1px;"/><path class="ytick ticks crisp" d="M49,0h-5" transform="translate(0,120)" style="stroke: rgb(196, 196, 196); stroke-opacity: 1; stroke-width: 1px;"/><path class="ytick ticks crisp" d="M49,0h-5" transform="translate(0,74.55)" style="stroke: rgb(196, 196, 196); stroke-opacity: 1; stroke-width: 1px;"/><g class="ytick"><text text-anchor="end" x="41.6" y="4.199999999999999" transform="translate(0,210.91)" style="font-family: Menlo; font-size: 12px; fill: rgb(196, 196, 196); fill-opacity: 1; white-space: pre;">−1</text></g><g class="ytick"><text text-anchor="end" x="41.6" y="4.199999999999999" transform="translate(0,165.45)" style="font-family: Menlo; font-size: 12px; fill: rgb(196, 196, 196); fill-opacity: 1; white-space: pre;">−0.5</text></g><g class="ytick"><text text-anchor="end" x="41.6" y="4.199999999999999" transform="translate(0,120)" style="font-family: Menlo; font-size: 12px; fill: rgb(196, 196, 196); fill-opacity: 1; white-space: pre;">0</text></g><g class="ytick"><text text-anchor="end" x="41.6" y="4.199999999999999" transform="translate(0,74.55)" style="font-family: Menlo; font-size: 12px; fill: rgb(196, 196, 196); fill-opacity: 1; white-space: pre;">0.5</text></g></g><g class="overaxes-above"/></g></g><g class="polarlayer"/><g class="ternarylayer"/><g class="geolayer"/><g class="funnelarealayer"/><g class="pielayer"/><g class="treemaplayer"/><g class="sunburstlayer"/><g class="glimages"/><defs id="topdefs-8c09e6"><g class="clips"/></defs><g class="layer-above"><g class="imagelayer"/><g class="shapelayer"><path data-index="0" fill-rule="evenodd" d="M634.74,250H775.3V50H634.74Z" clip-path="url('#clip8c09e6x')" style="opacity: 0.25; stroke: rgb(0, 0, 0); stroke-opacity: 0; fill: rgb(96, 195, 155); fill-opacity: 1; stroke-width: 0px;"/></g></g><g class="infolayer"><g class="g-gtitle"><text class="gtitle" x="0" y="6" text-anchor="start" dy="0.7em" style="font-family: Menlo; font-size: 10px; fill: rgb(35, 35, 35); opacity: 1; font-weight: normal; white-space: pre;">Global Average Temperature Deviation</text></g><g class="g-xtitle"><text class="xtitle" x="415" y="290" text-anchor="middle" style="font-family: Menlo; font-size: 10px; fill: rgb(196, 196, 196); opacity: 1; font-weight: normal; white-space: pre;">Year</text></g><g class="g-ytitle" transform="translate(-10.5,0)"><text class="ytitle" transform="rotate(-90,20,150)" x="20" y="150" text-anchor="middle" style="font-family: Menlo; font-size: 10px; fill: rgb(196, 196, 196); opacity: 1; font-weight: normal; white-space: pre;">Temperature (ºC)</text></g><g class="annotation" data-index="0" style="opacity: 1;"><g class="annotation-text-g" transform="rotate(0,751.8,57.5)"><g class="cursor-pointer" transform="translate(728, 50)"><rect class="bg" x="0.5" y="0.5" width="46" height="14" style="stroke-width: 1px; stroke: rgb(0, 0, 0); stroke-opacity: 0; fill: rgb(0, 0, 0); fill-opacity: 0;"/><text class="annotation-text" text-anchor="middle" x="23.6875" y="10.5" style="font-family: Menlo; font-size: 9px; fill: rgb(35, 35, 35); fill-opacity: 1; white-space: pre;">increase</text></g></g></g><g class="annotation" data-index="1" style="opacity: 1;"><g class="annotation-text-g" transform="rotate(0,106,57.5)"><g class="cursor-pointer" transform="translate(50, 50)"><rect class="bg" x="0.5" y="0.5" width="111" height="14" style="stroke-width: 1px; stroke: rgb(0, 0, 0); stroke-opacity: 0; fill: rgb(0, 0, 0); fill-opacity: 0;"/><text class="annotation-text" text-anchor="middle" x="56.1875" y="10.5" style="font-family: Menlo; font-size: 9px; fill: rgb(53, 155, 208); fill-opacity: 1; white-space: pre;">trend = 0.75ºC/100yr</text></g></g></g></g></svg>