<svg class="main-svg" xmlns="http://www.w3.org/2000/svg" xmlns:xlink="http://www.w3.org/1999/xlink" width="200" height="200" style="" viewBox="0 0 200 200"><rect x="0" y="0" width="200" height="200" style="fill: rgb(255, 255, 255); fill-opacity: 1;"/><defs id="defs-1a26b1"><g class="clips"><clipPath id="clip1a26b1xyplot" class="plotclip"><rect width="160" height="140"/></clipPath><clipPath class="axesclip" id="clip1a26b1x"><rect x="30" y="0" width="160" height="200"/></clipPath><clipPath class="axesclip" id="clip1a26b1y"><rect x="0" y="30" width="200" height="140"/></clipPath><clipPath class="axesclip" id="clip1a26b1xy"><rect x="30" y="30" width="160" height="140"/></clipPath></g><g class="gradients"/></defs><g class="bglayer"/><g class="layer-below"><g class="imagelayer"/><g class="shapelayer"/></g><g class="cartesianlayer"><g class="subplot xy"><g class="layer-subplot"><g class="shapelayer"/><g class="imagelayer"/></g><g class="gridlayer"><g class="x"><path class="xgrid crisp" transform="translate(32.62,0)" d="M0,30v140" style="stroke: rgb(238, 238, 238); stroke-opacity: 1; stroke-width: 1px;"/><path class="xgrid crisp" transform="translate(98.2,0)" d="M0,30v140" style="stroke: rgb(238, 238, 238); stroke-opacity: 1; stroke-width: 1px;"/><path class="xgrid crisp" transform="translate(163.77,0)" d="M0,30v140" style="stroke: rgb(238, 238, 238); stroke-opacity: 1; stroke-width: 1px;"/></g><g class="y"><path class="ygrid crisp" transform="translate(0,156)" d="M30,0h160" style="stroke: rgb(238, 238, 238); stroke-opacity: 1; stroke-width: 1px;"/><path class="ygrid crisp" transform="translate(0,100)" d="M30,0h160" style="stroke: rgb(238, 238, 238); stroke-opacity: 1; stroke-width: 1px;"/><path class="ygrid crisp" transform="translate(0,44)" d="M30,0h160" style="stroke: rgb(238, 238, 238); stroke-opacity: 1; stroke-width: 1px;"/></g></g><g class="zerolinelayer"/><path class="xlines-below"/><path class="ylines-below"/><g class="overlines-below"/><g class="xaxislayer-below"/><g class="yaxislayer-below"/><g class="overaxes-below"/><g class="plot" transform="translate(30, 30)" clip-path="url('#clip1a26b1xyplot')"><g class="scatterlayer mlayer"><g class="trace scatter traceb1e8e7" style="stroke-miterlimit: 2; opacity: 1;"><g class="fills"/><g class="errorbars"/><g class="lines"><path class="js-line" d="M0,94.64L1.31,77.28L2.62,107.8L3.93,90.72L5.25,116.2L6.56,49.28L7.87,108.08L9.18,85.68L10.49,93.52L11.8,95.48L13.11,115.08L14.43,109.2L15.74,98L17.05,106.96L18.36,78.96L19.67,110.88L20.98,80.92L22.3,84.84L23.61,61.88L26.23,120.96L27.54,103.04L28.85,89.32L30.16,89.88L31.48,96.88L32.79,119.28L34.1,92.96L35.41,112.28L36.72,85.96L38.03,119.28L39.34,94.08L40.66,117.04L41.97,67.2L43.28,105.56L44.59,69.16L45.9,102.48L47.21,103.04L48.52,74.2L49.84,127.12L51.15,59.64L52.46,113.96L53.77,113.12L55.08,112.84L56.39,71.68L57.7,103.04L59.02,112.84L60.33,106.4L61.64,153.72L62.95,99.68L64.26,108.92L65.57,98.56L66.89,33.88L69.51,96.88L70.82,81.76L72.13,106.12L73.44,54.6L74.75,77.56L76.07,81.76L77.38,97.44L78.69,63.84L80,50.4L81.31,68.04L82.62,106.12L83.93,77L85.25,105L86.56,75.6L87.87,80.08L89.18,76.72L90.49,110.88L91.8,119L93.11,61.6L94.43,103.6L95.74,92.12L97.05,56.28L98.36,50.96L99.67,105L100.98,99.68L102.3,77.84L103.61,126L104.92,86.8L106.23,43.68L107.54,77.56L108.85,103.88L110.16,88.2L111.48,74.48L112.79,126L114.1,95.76L115.41,124.32L116.72,67.76L118.03,73.92L119.34,44.24L120.66,52.08L121.97,52.64L123.28,51.52L124.59,43.12L125.9,66.92L127.21,66.64L128.52,87.36L131.15,56L132.46,58.24L135.08,84.56L136.39,57.68L137.7,79.8L139.02,51.8L140.33,64.96L141.64,90.72L142.95,34.44L144.26,72.24L145.57,39.76L146.89,54.32L149.51,94.08L150.82,92.68L152.13,71.68L153.44,70L154.75,41.72L156.07,50.4L157.38,91L158.69,42L160,23.52" style="vector-effect: non-scaling-stroke; fill: none; stroke: rgb(196, 196, 196); stroke-opacity: 1; stroke-width: 2px; opacity: 1;"/></g><g class="points"/><g class="text"/></g><g class="trace scatter trace07c02b" style="stroke-miterlimit: 2; opacity: 1;"><g class="fills"/><g class="errorbars"/><g class="lines"><path class="js-line" d="M0,104.71L160,63.97" style="vector-effect: non-scaling-stroke; fill: none; stroke: rgb(53, 155, 208); stroke-opacity: 1; stroke-width: 2px; opacity: 1;"/></g><g class="points"/><g class="text"/></g></g></g><g class="overplot"/><path class="xlines-above crisp" style="fill: none; stroke-width: 1px; stroke: rgb(196, 196, 196); stroke-opacity: 1;" d="M29,170.5H190"/><path class="ylines-above crisp" style="fill: none; stroke-width: 1px; stroke: rgb(196, 196, 196); stroke-opacity: 1;" d="M29.5,30V170"/><g class="overlines-above"/><g class="xaxislayer-above"><path class="xtick ticks crisp" d="M0,171v5" transform="translate(32.62,0)" style="stroke: rgb(196, 196, 196); stroke-opacity: 1; stroke-width: 1px;"/><path class="xtick ticks crisp" d="M0,171v5" transform="translate(98.2,0)" style="stroke: rgb(196, 196, 196); stroke-opacity: 1; stroke-width: 1px;"/><path class="xtick ticks crisp" d="M0,171v5" transform="translate(163.77,0)" style="stroke: rgb(196, 196, 196); stroke-opacity: 1; stroke-width: 1px;"/><g class="xtick"><text text-anchor="middle" x="0" y="190.4" transform="translate(32.62,0)" style="font-family: Menlo; font-size: 12px; fill: rgb(196, 196, 196); fill-opacity: 1; white-space: pre;">1900</text></g><g class="xtick"><text text-anchor="middle" x="0" y="190.4" transform="translate(98.2,0)" style="font-family: Menlo; font-size: 12px; fill: rgb(196, 196, 196); fill-opacity: 1; white-space: pre;">1950</text></g><g class="xtick"><text text-anchor="middle" x="0" y="190.4" transform="translate(163.77,0)" style="font-family: Menlo; font-size: 12px; fill: rgb(196, 196, 196); fill-opacity: 1; white-space: pre;">2000</text></g></g><g class="yaxislayer-above"><path class="ytick ticks crisp" d="M29,0h-5" transform="translate(0,156)" style="stroke: rgb(196, 196, 196); stroke-opacity: 1; stroke-width: 1px;"/><path class="ytick ticks crisp" d="M29,0h-5" transform="translate(0,100)" style="stroke: rgb(196, 196, 196); stroke-opacity: 1; stroke-width: 1px;"/><path class="ytick ticks crisp" d="M29,0h-5" transform="translate(0,44)" style="stroke: rgb(196, 196, 196); stroke-opacity: 1; stroke-width: 1px;"/><g class="ytick"><text text-anchor="end" x="21.6" y="4.199999999999999" transform="translate(0,156)" style="font-family: Menlo; font-size: 12px; fill: rgb(196, 196, 196); fill-opacity: 1; white-space: pre;">−2</text></g><g class="ytick"><text text-anchor="end" x="21.6" y="4.199999999999999" transform="translate(0,100)" style="font-family: Menlo; font-size: 12px; fill: rgb(196, 196, 196); fill-opacity: 1; white-space: pre;">0</text></g><g class="ytick"><text text-anchor="end" x="21.6" y="4.199999999999999" transform="translate(0,44)" style="font-family: Menlo; font-size: 12px; fill: rgb(196, 196, 196); fill-opacity: 1; white-space: pre;">2</text></g></g><g class="overaxes-above"/></g></g><g class="polarlayer"/><g class="ternarylayer"/><g class="geolayer"/><g class="funnelarealayer"/><g class="pielayer"/><g class="treemaplayer"/><g class="sunburstlayer"/><g class="glimages"/><defs id="topdefs-1a26b1"><g class="clips"/></defs><g class="layer-above"><g class="imagelayer"/><g class="shapelayer"/></g><g class="infolayer"><g class="g-gtitle"><text class="gtitle" x="0" y="4" text-anchor="start" dy="0.7em" style="font-family: Menlo; font-size: 10px; fill: rgb(35, 35, 35); opacity: 1; font-weight: normal; white-space: pre;">Winter(12-2)</text></g><g class="g-xtitle"/><g class="g-ytitle"/><g class="annotation" data-index="0" style="opacity: 1;"><g class="annotation-text-g" transform="rotate(0,86,37.5)"><g class="cursor-pointer" transform="translate(30, 30)"><rect class="bg" x="0.5" y="0.5" width="111" height="14" style="stroke-width: 1px; stroke: rgb(0, 0, 0); stroke-opacity: 0; fill: rgb(0, 0, 0); fill-opacity: 0;"/><text class="annotation-text" text-anchor="middle" x="56.1875" y="10.5" style="font-family: Menlo; font-size: 9px; fill: rgb(53, 155, 208); fill-opacity: 1; white-space: pre;">trend = 1.19ºC/100yr</text></g></g></g></g></svg>