<svg class="main-svg" xmlns="http://www.w3.org/2000/svg" xmlns:xlink="http://www.w3.org/1999/xlink" width="200" height="200" style="" viewBox="0 0 200 200"><rect x="0" y="0" width="200" height="200" style="fill: rgb(255, 255, 255); fill-opacity: 1;"/><defs id="defs-224d4c"><g class="clips"><clipPath id="clip224d4cxyplot" class="plotclip"><rect width="160" height="140"/></clipPath><clipPath class="axesclip" id="clip224d4cx"><rect x="30" y="0" width="160" height="200"/></clipPath><clipPath class="axesclip" id="clip224d4cy"><rect x="0" y="30" width="200" height="140"/></clipPath><clipPath class="axesclip" id="clip224d4cxy"><rect x="30" y="30" width="160" height="140"/></clipPath></g><g class="gradients"/></defs><g class="bglayer"/><g class="layer-below"><g class="imagelayer"/><g class="shapelayer"/></g><g class="cartesianlayer"><g class="subplot xy"><g class="layer-subplot"><g class="shapelayer"/><g class="imagelayer"/></g><g class="gridlayer"><g class="x"><path class="xgrid crisp" transform="translate(32.62,0)" d="M0,30v140" style="stroke: rgb(238, 238, 238); stroke-opacity: 1; stroke-width: 1px;"/><path class="xgrid crisp" transform="translate(98.2,0)" d="M0,30v140" style="stroke: rgb(238, 238, 238); stroke-opacity: 1; stroke-width: 1px;"/><path class="xgrid crisp" transform="translate(163.77,0)" d="M0,30v140" style="stroke: rgb(238, 238, 238); stroke-opacity: 1; stroke-width: 1px;"/></g><g class="y"><path class="ygrid crisp" transform="translate(0,156)" d="M30,0h160" style="stroke: rgb(238, 238, 238); stroke-opacity: 1; stroke-width: 1px;"/><path class="ygrid crisp" transform="translate(0,100)" d="M30,0h160" style="stroke: rgb(238, 238, 238); stroke-opacity: 1; stroke-width: 1px;"/><path class="ygrid crisp" transform="translate(0,44)" d="M30,0h160" style="stroke: rgb(238, 238, 238); stroke-opacity: 1; stroke-width: 1px;"/></g></g><g class="zerolinelayer"/><path class="xlines-below"/><path class="ylines-below"/><g class="overlines-below"/><g class="xaxislayer-below"/><g class="yaxislayer-below"/><g class="overaxes-below"/><g class="plot" transform="translate(30, 30)" clip-path="url('#clip224d4cxyplot')"><g class="scatterlayer mlayer"><g class="trace scatter tracee52290" style="stroke-miterlimit: 2; opacity: 1;"><g class="fills"/><g class="errorbars"/><g class="lines"><path class="js-line" d="M0,117.6L1.31,75.6L2.62,100.52L3.93,94.92L5.25,94.36L6.56,75.32L7.87,91L9.18,110.6L10.49,100.8L11.8,103.04L13.11,109.76L14.43,104.16L15.74,110.6L17.05,89.04L18.36,92.4L19.67,105.84L20.98,76.16L22.3,120.12L23.61,109.48L24.92,116.76L26.23,106.12L27.54,88.2L28.85,96.32L30.16,99.12L31.48,96.32L32.79,85.12L34.1,111.44L35.41,120.68L36.72,118.44L38.03,106.68L39.34,87.92L40.66,113.12L41.97,67.2L43.28,106.96L44.59,102.48L45.9,103.32L47.21,112.84L48.52,92.96L49.84,126L52.46,66.92L53.77,102.76L55.08,104.16L56.39,90.72L57.7,78.4L59.02,113.12L60.33,119.56L61.64,117.32L62.95,98L64.26,119.56L65.57,78.96L66.89,110.88L68.2,77.84L69.51,91.56L70.82,89.32L72.13,93.24L73.44,79.52L74.75,73.92L76.07,79.24L77.38,98.56L80,57.68L81.31,82.32L82.62,65.52L83.93,80.92L85.25,73.92L86.56,60.48L87.87,118.72L89.18,77.56L90.49,63.84L91.8,83.44L93.11,87.08L94.43,107.8L97.05,75.04L98.36,74.2L99.67,85.12L100.98,85.12L102.3,83.44L103.61,78.4L106.23,91L107.54,85.96L108.85,91.84L110.16,66.08L111.48,57.4L112.79,126.84L114.1,71.68L115.41,90.16L116.72,75.32L118.03,86.8L120.66,58.24L121.97,55.72L124.59,91.84L125.9,65.8L127.21,70L128.52,102.2L131.15,26.32L132.46,59.36L133.77,73.64L135.08,59.92L136.39,33.32L137.7,66.36L139.02,50.96L140.33,81.2L141.64,77.84L142.95,68.32L145.57,53.48L146.89,83.44L148.2,90.44L149.51,68.6L150.82,67.2L152.13,62.16L153.44,32.48L154.75,31.64L156.07,52.08L157.38,30.8L160,49.28" style="vector-effect: non-scaling-stroke; fill: none; stroke: rgb(196, 196, 196); stroke-opacity: 1; stroke-width: 2px; opacity: 1;"/></g><g class="points"/><g class="text"/></g><g class="trace scatter trace9b81c4" style="stroke-miterlimit: 2; opacity: 1;"><g class="fills"/><g class="errorbars"/><g class="lines"><path class="js-line" d="M0,110.1L160,59.29" style="vector-effect: non-scaling-stroke; fill: none; stroke: rgb(53, 155, 208); stroke-opacity: 1; stroke-width: 2px; opacity: 1;"/></g><g class="points"/><g class="text"/></g></g></g><g class="overplot"/><path class="xlines-above crisp" style="fill: none; stroke-width: 1px; stroke: rgb(196, 196, 196); stroke-opacity: 1;" d="M29,170.5H190"/><path class="ylines-above crisp" style="fill: none; stroke-width: 1px; stroke: rgb(196, 196, 196); stroke-opacity: 1;" d="M29.5,30V170"/><g class="overlines-above"/><g class="xaxislayer-above"><path class="xtick ticks crisp" d="M0,171v5" transform="translate(32.62,0)" style="stroke: rgb(196, 196, 196); stroke-opacity: 1; stroke-width: 1px;"/><path class="xtick ticks crisp" d="M0,171v5" transform="translate(98.2,0)" style="stroke: rgb(196, 196, 196); stroke-opacity: 1; stroke-width: 1px;"/><path class="xtick ticks crisp" d="M0,171v5" transform="translate(163.77,0)" style="stroke: rgb(196, 196, 196); stroke-opacity: 1; stroke-width: 1px;"/><g class="xtick"><text text-anchor="middle" x="0" y="190.4" transform="translate(32.62,0)" style="font-family: Menlo; font-size: 12px; fill: rgb(196, 196, 196); fill-opacity: 1; white-space: pre;">1900</text></g><g class="xtick"><text text-anchor="middle" x="0" y="190.4" transform="translate(98.2,0)" style="font-family: Menlo; font-size: 12px; fill: rgb(196, 196, 196); fill-opacity: 1; white-space: pre;">1950</text></g><g class="xtick"><text text-anchor="middle" x="0" y="190.4" transform="translate(163.77,0)" style="font-family: Menlo; font-size: 12px; fill: rgb(196, 196, 196); fill-opacity: 1; white-space: pre;">2000</text></g></g><g class="yaxislayer-above"><path class="ytick ticks crisp" d="M29,0h-5" transform="translate(0,156)" style="stroke: rgb(196, 196, 196); stroke-opacity: 1; stroke-width: 1px;"/><path class="ytick ticks crisp" d="M29,0h-5" transform="translate(0,100)" style="stroke: rgb(196, 196, 196); stroke-opacity: 1; stroke-width: 1px;"/><path class="ytick ticks crisp" d="M29,0h-5" transform="translate(0,44)" style="stroke: rgb(196, 196, 196); stroke-opacity: 1; stroke-width: 1px;"/><g class="ytick"><text text-anchor="end" x="21.6" y="4.199999999999999" transform="translate(0,156)" style="font-family: Menlo; font-size: 12px; fill: rgb(196, 196, 196); fill-opacity: 1; white-space: pre;">−2</text></g><g class="ytick"><text text-anchor="end" x="21.6" y="4.199999999999999" transform="translate(0,100)" style="font-family: Menlo; font-size: 12px; fill: rgb(196, 196, 196); fill-opacity: 1; white-space: pre;">0</text></g><g class="ytick"><text text-anchor="end" x="21.6" y="4.199999999999999" transform="translate(0,44)" style="font-family: Menlo; font-size: 12px; fill: rgb(196, 196, 196); fill-opacity: 1; white-space: pre;">2</text></g></g><g class="overaxes-above"/></g></g><g class="polarlayer"/><g class="ternarylayer"/><g class="geolayer"/><g class="funnelarealayer"/><g class="pielayer"/><g class="treemaplayer"/><g class="sunburstlayer"/><g class="glimages"/><defs id="topdefs-224d4c"><g class="clips"/></defs><g class="layer-above"><g class="imagelayer"/><g class="shapelayer"/></g><g class="infolayer"><g class="g-gtitle"><text class="gtitle" x="0" y="4" text-anchor="start" dy="0.7em" style="font-family: Menlo; font-size: 10px; fill: rgb(35, 35, 35); opacity: 1; font-weight: normal; white-space: pre;">Spring(3-5)</text></g><g class="g-xtitle"/><g class="g-ytitle"/><g class="annotation" data-index="0" style="opacity: 1;"><g class="annotation-text-g" transform="rotate(0,86,37.5)"><g class="cursor-pointer" transform="translate(30, 30)"><rect class="bg" x="0.5" y="0.5" width="111" height="14" style="stroke-width: 1px; stroke: rgb(0, 0, 0); stroke-opacity: 0; fill: rgb(0, 0, 0); fill-opacity: 0;"/><text class="annotation-text" text-anchor="middle" x="56.1875" y="10.5" style="font-family: Menlo; font-size: 9px; fill: rgb(53, 155, 208); fill-opacity: 1; white-space: pre;">trend = 1.49ºC/100yr</text></g></g></g></g></svg>