<svg class="main-svg" xmlns="http://www.w3.org/2000/svg" xmlns:xlink="http://www.w3.org/1999/xlink" width="200" height="200" style="" viewBox="0 0 200 200"><rect x="0" y="0" width="200" height="200" style="fill: rgb(255, 255, 255); fill-opacity: 1;"/><defs id="defs-509e8f"><g class="clips"><clipPath id="clip509e8fxyplot" class="plotclip"><rect width="160" height="140"/></clipPath><clipPath class="axesclip" id="clip509e8fx"><rect x="30" y="0" width="160" height="200"/></clipPath><clipPath class="axesclip" id="clip509e8fy"><rect x="0" y="30" width="200" height="140"/></clipPath><clipPath class="axesclip" id="clip509e8fxy"><rect x="30" y="30" width="160" height="140"/></clipPath></g><g class="gradients"/></defs><g class="bglayer"/><g class="layer-below"><g class="imagelayer"/><g class="shapelayer"/></g><g class="cartesianlayer"><g class="subplot xy"><g class="layer-subplot"><g class="shapelayer"/><g class="imagelayer"/></g><g class="gridlayer"><g class="x"><path class="xgrid crisp" transform="translate(32.62,0)" d="M0,30v140" style="stroke: rgb(238, 238, 238); stroke-opacity: 1; stroke-width: 1px;"/><path class="xgrid crisp" transform="translate(98.2,0)" d="M0,30v140" style="stroke: rgb(238, 238, 238); stroke-opacity: 1; stroke-width: 1px;"/><path class="xgrid crisp" transform="translate(163.77,0)" d="M0,30v140" style="stroke: rgb(238, 238, 238); stroke-opacity: 1; stroke-width: 1px;"/></g><g class="y"><path class="ygrid crisp" transform="translate(0,156)" d="M30,0h160" style="stroke: rgb(238, 238, 238); stroke-opacity: 1; stroke-width: 1px;"/><path class="ygrid crisp" transform="translate(0,100)" d="M30,0h160" style="stroke: rgb(238, 238, 238); stroke-opacity: 1; stroke-width: 1px;"/><path class="ygrid crisp" transform="translate(0,44)" d="M30,0h160" style="stroke: rgb(238, 238, 238); stroke-opacity: 1; stroke-width: 1px;"/></g></g><g class="zerolinelayer"/><path class="xlines-below"/><path class="ylines-below"/><g class="overlines-below"/><g class="xaxislayer-below"/><g class="yaxislayer-below"/><g class="overaxes-below"/><g class="plot" transform="translate(30, 30)" clip-path="url('#clip509e8fxyplot')"><g class="scatterlayer mlayer"><g class="trace scatter trace6f3a29" style="stroke-miterlimit: 2; opacity: 1;"><g class="fills"/><g class="errorbars"/><g class="lines"><path class="js-line" d="M0,88.76L1.31,129.36L2.62,81.48L3.93,94.36L5.25,81.76L7.87,116.76L9.18,93.8L10.49,114.24L11.8,98.56L13.11,121.24L14.43,99.4L15.74,103.32L17.05,80.64L18.36,128.24L19.67,120.68L20.98,77.84L22.3,61.04L23.61,65.24L24.92,98.28L26.23,94.08L27.54,83.44L28.85,80.08L30.16,113.12L31.48,79.52L32.79,81.76L34.1,106.96L35.41,78.4L36.72,106.68L38.03,93.8L39.34,67.2L40.66,98L41.97,100.52L43.28,84L44.59,98.84L45.9,90.72L47.21,108.92L48.52,89.6L49.84,82.04L51.15,82.32L52.46,88.2L53.77,69.44L56.39,95.2L57.7,97.72L59.02,84.28L60.33,87.64L61.64,88.2L62.95,67.48L64.26,107.8L65.57,78.96L66.89,94.08L68.2,88.76L69.51,98.28L70.82,83.44L72.13,92.4L73.44,83.72L74.75,92.68L76.07,81.48L77.38,95.76L78.69,88.48L80,68.32L81.31,70.56L82.62,43.96L83.93,85.68L85.25,97.16L86.56,92.4L87.87,97.72L89.18,82.88L91.8,97.16L93.11,94.64L94.43,76.16L95.74,100.8L97.05,87.64L98.36,97.72L99.67,101.92L100.98,62.72L102.3,117.04L103.61,57.4L104.92,85.12L106.23,63.84L108.85,113.68L110.16,75.04L111.48,87.92L112.79,90.72L114.1,78.12L115.41,98L116.72,72.8L118.03,99.12L120.66,45.64L121.97,72.24L123.28,82.88L124.59,84L125.9,49L127.21,79.52L128.52,80.92L129.84,74.48L131.15,44.52L132.46,42.28L136.39,91.28L137.7,57.4L139.02,47.88L140.33,48.16L141.64,54.6L142.95,49.56L145.57,68.6L146.89,48.44L148.2,43.12L149.51,50.68L150.82,52.64L152.13,63.84L153.44,62.72L154.75,55.72L156.07,74.76L157.38,53.76L158.69,37.52L160,43.96" style="vector-effect: non-scaling-stroke; fill: none; stroke: rgb(196, 196, 196); stroke-opacity: 1; stroke-width: 2px; opacity: 1;"/></g><g class="points"/><g class="text"/></g><g class="trace scatter trace5535cf" style="stroke-miterlimit: 2; opacity: 1;"><g class="fills"/><g class="errorbars"/><g class="lines"><path class="js-line" d="M0,103.67L160,60.74" style="vector-effect: non-scaling-stroke; fill: none; stroke: rgb(53, 155, 208); stroke-opacity: 1; stroke-width: 2px; opacity: 1;"/></g><g class="points"/><g class="text"/></g></g></g><g class="overplot"/><path class="xlines-above crisp" style="fill: none; stroke-width: 1px; stroke: rgb(196, 196, 196); stroke-opacity: 1;" d="M29,170.5H190"/><path class="ylines-above crisp" style="fill: none; stroke-width: 1px; stroke: rgb(196, 196, 196); stroke-opacity: 1;" d="M29.5,30V170"/><g class="overlines-above"/><g class="xaxislayer-above"><path class="xtick ticks crisp" d="M0,171v5" transform="translate(32.62,0)" style="stroke: rgb(196, 196, 196); stroke-opacity: 1; stroke-width: 1px;"/><path class="xtick ticks crisp" d="M0,171v5" transform="translate(98.2,0)" style="stroke: rgb(196, 196, 196); stroke-opacity: 1; stroke-width: 1px;"/><path class="xtick ticks crisp" d="M0,171v5" transform="translate(163.77,0)" style="stroke: rgb(196, 196, 196); stroke-opacity: 1; stroke-width: 1px;"/><g class="xtick"><text text-anchor="middle" x="0" y="190.4" transform="translate(32.62,0)" style="font-family: Menlo; font-size: 12px; fill: rgb(196, 196, 196); fill-opacity: 1; white-space: pre;">1900</text></g><g class="xtick"><text text-anchor="middle" x="0" y="190.4" transform="translate(98.2,0)" style="font-family: Menlo; font-size: 12px; fill: rgb(196, 196, 196); fill-opacity: 1; white-space: pre;">1950</text></g><g class="xtick"><text text-anchor="middle" x="0" y="190.4" transform="translate(163.77,0)" style="font-family: Menlo; font-size: 12px; fill: rgb(196, 196, 196); fill-opacity: 1; white-space: pre;">2000</text></g></g><g class="yaxislayer-above"><path class="ytick ticks crisp" d="M29,0h-5" transform="translate(0,156)" style="stroke: rgb(196, 196, 196); stroke-opacity: 1; stroke-width: 1px;"/><path class="ytick ticks crisp" d="M29,0h-5" transform="translate(0,100)" style="stroke: rgb(196, 196, 196); stroke-opacity: 1; stroke-width: 1px;"/><path class="ytick ticks crisp" d="M29,0h-5" transform="translate(0,44)" style="stroke: rgb(196, 196, 196); stroke-opacity: 1; stroke-width: 1px;"/><g class="ytick"><text text-anchor="end" x="21.6" y="4.199999999999999" transform="translate(0,156)" style="font-family: Menlo; font-size: 12px; fill: rgb(196, 196, 196); fill-opacity: 1; white-space: pre;">−2</text></g><g class="ytick"><text text-anchor="end" x="21.6" y="4.199999999999999" transform="translate(0,100)" style="font-family: Menlo; font-size: 12px; fill: rgb(196, 196, 196); fill-opacity: 1; white-space: pre;">0</text></g><g class="ytick"><text text-anchor="end" x="21.6" y="4.199999999999999" transform="translate(0,44)" style="font-family: Menlo; font-size: 12px; fill: rgb(196, 196, 196); fill-opacity: 1; white-space: pre;">2</text></g></g><g class="overaxes-above"/></g></g><g class="polarlayer"/><g class="ternarylayer"/><g class="geolayer"/><g class="funnelarealayer"/><g class="pielayer"/><g class="treemaplayer"/><g class="sunburstlayer"/><g class="glimages"/><defs id="topdefs-509e8f"><g class="clips"/></defs><g class="layer-above"><g class="imagelayer"/><g class="shapelayer"/></g><g class="infolayer"><g class="g-gtitle"><text class="gtitle" x="0" y="4" text-anchor="start" dy="0.7em" style="font-family: Menlo; font-size: 10px; fill: rgb(35, 35, 35); opacity: 1; font-weight: normal; white-space: pre;">Autumn(9-11)</text></g><g class="g-xtitle"/><g class="g-ytitle"/><g class="annotation" data-index="0" style="opacity: 1;"><g class="annotation-text-g" transform="rotate(0,86,37.5)"><g class="cursor-pointer" transform="translate(30, 30)"><rect class="bg" x="0.5" y="0.5" width="111" height="14" style="stroke-width: 1px; stroke: rgb(0, 0, 0); stroke-opacity: 0; fill: rgb(0, 0, 0); fill-opacity: 0;"/><text class="annotation-text" text-anchor="middle" x="56.1875" y="10.5" style="font-family: Menlo; font-size: 9px; fill: rgb(53, 155, 208); fill-opacity: 1; white-space: pre;">trend = 1.26ºC/100yr</text></g></g></g></g></svg>