<svg class="main-svg" xmlns="http://www.w3.org/2000/svg" xmlns:xlink="http://www.w3.org/1999/xlink" width="200" height="200" style="" viewBox="0 0 200 200"><rect x="0" y="0" width="200" height="200" style="fill: rgb(255, 255, 255); fill-opacity: 1;"/><defs id="defs-22b117"><g class="clips"><clipPath id="clip22b117xyplot" class="plotclip"><rect width="160" height="140"/></clipPath><clipPath class="axesclip" id="clip22b117x"><rect x="30" y="0" width="160" height="200"/></clipPath><clipPath class="axesclip" id="clip22b117y"><rect x="0" y="30" width="200" height="140"/></clipPath><clipPath class="axesclip" id="clip22b117xy"><rect x="30" y="30" width="160" height="140"/></clipPath></g><g class="gradients"/></defs><g class="bglayer"/><g class="layer-below"><g class="imagelayer"/><g class="shapelayer"/></g><g class="cartesianlayer"><g class="subplot xy"><g class="layer-subplot"><g class="shapelayer"/><g class="imagelayer"/></g><g class="gridlayer"><g class="x"><path class="xgrid crisp" transform="translate(32.62,0)" d="M0,30v140" style="stroke: rgb(238, 238, 238); stroke-opacity: 1; stroke-width: 1px;"/><path class="xgrid crisp" transform="translate(98.2,0)" d="M0,30v140" style="stroke: rgb(238, 238, 238); stroke-opacity: 1; stroke-width: 1px;"/><path class="xgrid crisp" transform="translate(163.77,0)" d="M0,30v140" style="stroke: rgb(238, 238, 238); stroke-opacity: 1; stroke-width: 1px;"/></g><g class="y"><path class="ygrid crisp" transform="translate(0,156)" d="M30,0h160" style="stroke: rgb(238, 238, 238); stroke-opacity: 1; stroke-width: 1px;"/><path class="ygrid crisp" transform="translate(0,100)" d="M30,0h160" style="stroke: rgb(238, 238, 238); stroke-opacity: 1; stroke-width: 1px;"/><path class="ygrid crisp" transform="translate(0,44)" d="M30,0h160" style="stroke: rgb(238, 238, 238); stroke-opacity: 1; stroke-width: 1px;"/></g></g><g class="zerolinelayer"/><path class="xlines-below"/><path class="ylines-below"/><g class="overlines-below"/><g class="xaxislayer-below"/><g class="yaxislayer-below"/><g class="overaxes-below"/><g class="plot" transform="translate(30, 30)" clip-path="url('#clip22b117xyplot')"><g class="scatterlayer mlayer"><g class="trace scatter trace234190" style="stroke-miterlimit: 2; opacity: 1;"><g class="fills"/><g class="errorbars"/><g class="lines"><path class="js-line" d="M0,84.56L1.31,86.52L2.62,101.08L3.93,105.28L5.25,131.6L6.56,112.28L7.87,74.2L9.18,108.64L10.49,104.72L13.11,106.4L14.43,85.96L15.74,96.6L17.05,93.24L18.36,102.2L19.67,122.92L20.98,73.64L22.3,79.8L23.61,59.92L24.92,92.12L26.23,84.28L27.54,93.8L28.85,70.56L30.16,96.32L31.48,65.52L32.79,88.76L34.1,75.6L35.41,84L36.72,101.08L38.03,75.04L39.34,92.96L40.66,71.68L41.97,61.6L43.28,106.4L44.59,88.2L45.9,54.04L48.52,96.6L49.84,82.32L51.15,71.4L52.46,76.72L53.77,71.4L55.08,89.04L56.39,110.32L57.7,62.44L59.02,71.68L60.33,68.04L61.64,107.24L62.95,57.68L64.26,91.28L65.57,71.4L66.89,93.8L68.2,65.24L69.51,82.04L70.82,87.36L72.13,89.04L73.44,115.64L74.75,55.16L76.07,95.2L77.38,94.92L78.69,82.32L80,80.92L81.31,73.36L82.62,53.48L83.93,78.4L85.25,79.24L86.56,76.72L87.87,89.32L89.18,92.12L90.49,63L91.8,85.68L93.11,92.12L94.43,83.44L95.74,78.68L97.05,78.68L98.36,70L99.67,95.48L100.98,73.92L102.3,99.4L103.61,79.52L104.92,39.2L107.54,98.84L108.85,84L110.16,96.04L111.48,98L112.79,51.52L114.1,69.44L115.41,92.12L116.72,74.76L118.03,88.48L119.34,85.12L120.66,47.32L121.97,64.4L124.59,112.84L125.9,38.36L127.21,71.12L128.52,77.84L129.84,75.6L131.15,69.16L133.77,47.6L135.08,56.84L136.39,66.64L137.7,94.92L139.02,46.48L140.33,56L141.64,60.76L142.95,60.76L144.26,65.24L145.57,77.28L146.89,30.52L148.2,46.2L149.51,55.72L150.82,39.48L153.44,63L154.75,46.76L156.07,53.76L157.38,44.8L158.69,57.4L160,43.12" style="vector-effect: non-scaling-stroke; fill: none; stroke: rgb(196, 196, 196); stroke-opacity: 1; stroke-width: 2px; opacity: 1;"/></g><g class="points"/><g class="text"/></g><g class="trace scatter tracef2ceee" style="stroke-miterlimit: 2; opacity: 1;"><g class="fills"/><g class="errorbars"/><g class="lines"><path class="js-line" d="M0,97.81L160,58.95" style="vector-effect: non-scaling-stroke; fill: none; stroke: rgb(53, 155, 208); stroke-opacity: 1; stroke-width: 2px; opacity: 1;"/></g><g class="points"/><g class="text"/></g></g></g><g class="overplot"/><path class="xlines-above crisp" style="fill: none; stroke-width: 1px; stroke: rgb(196, 196, 196); stroke-opacity: 1;" d="M29,170.5H190"/><path class="ylines-above crisp" style="fill: none; stroke-width: 1px; stroke: rgb(196, 196, 196); stroke-opacity: 1;" d="M29.5,30V170"/><g class="overlines-above"/><g class="xaxislayer-above"><path class="xtick ticks crisp" d="M0,171v5" transform="translate(32.62,0)" style="stroke: rgb(196, 196, 196); stroke-opacity: 1; stroke-width: 1px;"/><path class="xtick ticks crisp" d="M0,171v5" transform="translate(98.2,0)" style="stroke: rgb(196, 196, 196); stroke-opacity: 1; stroke-width: 1px;"/><path class="xtick ticks crisp" d="M0,171v5" transform="translate(163.77,0)" style="stroke: rgb(196, 196, 196); stroke-opacity: 1; stroke-width: 1px;"/><g class="xtick"><text text-anchor="middle" x="0" y="190.4" transform="translate(32.62,0)" style="font-family: Menlo; font-size: 12px; fill: rgb(196, 196, 196); fill-opacity: 1; white-space: pre;">1900</text></g><g class="xtick"><text text-anchor="middle" x="0" y="190.4" transform="translate(98.2,0)" style="font-family: Menlo; font-size: 12px; fill: rgb(196, 196, 196); fill-opacity: 1; white-space: pre;">1950</text></g><g class="xtick"><text text-anchor="middle" x="0" y="190.4" transform="translate(163.77,0)" style="font-family: Menlo; font-size: 12px; fill: rgb(196, 196, 196); fill-opacity: 1; white-space: pre;">2000</text></g></g><g class="yaxislayer-above"><path class="ytick ticks crisp" d="M29,0h-5" transform="translate(0,156)" style="stroke: rgb(196, 196, 196); stroke-opacity: 1; stroke-width: 1px;"/><path class="ytick ticks crisp" d="M29,0h-5" transform="translate(0,100)" style="stroke: rgb(196, 196, 196); stroke-opacity: 1; stroke-width: 1px;"/><path class="ytick ticks crisp" d="M29,0h-5" transform="translate(0,44)" style="stroke: rgb(196, 196, 196); stroke-opacity: 1; stroke-width: 1px;"/><g class="ytick"><text text-anchor="end" x="21.6" y="4.199999999999999" transform="translate(0,156)" style="font-family: Menlo; font-size: 12px; fill: rgb(196, 196, 196); fill-opacity: 1; white-space: pre;">−2</text></g><g class="ytick"><text text-anchor="end" x="21.6" y="4.199999999999999" transform="translate(0,100)" style="font-family: Menlo; font-size: 12px; fill: rgb(196, 196, 196); fill-opacity: 1; white-space: pre;">0</text></g><g class="ytick"><text text-anchor="end" x="21.6" y="4.199999999999999" transform="translate(0,44)" style="font-family: Menlo; font-size: 12px; fill: rgb(196, 196, 196); fill-opacity: 1; white-space: pre;">2</text></g></g><g class="overaxes-above"/></g></g><g class="polarlayer"/><g class="ternarylayer"/><g class="geolayer"/><g class="funnelarealayer"/><g class="pielayer"/><g class="treemaplayer"/><g class="sunburstlayer"/><g class="glimages"/><defs id="topdefs-22b117"><g class="clips"/></defs><g class="layer-above"><g class="imagelayer"/><g class="shapelayer"/></g><g class="infolayer"><g class="g-gtitle"><text class="gtitle" x="0" y="4" text-anchor="start" dy="0.7em" style="font-family: Menlo; font-size: 10px; fill: rgb(35, 35, 35); opacity: 1; font-weight: normal; white-space: pre;">Summer(6-8)</text></g><g class="g-xtitle"/><g class="g-ytitle"/><g class="annotation" data-index="0" style="opacity: 1;"><g class="annotation-text-g" transform="rotate(0,86,37.5)"><g class="cursor-pointer" transform="translate(30, 30)"><rect class="bg" x="0.5" y="0.5" width="111" height="14" style="stroke-width: 1px; stroke: rgb(0, 0, 0); stroke-opacity: 0; fill: rgb(0, 0, 0); fill-opacity: 0;"/><text class="annotation-text" text-anchor="middle" x="56.1875" y="10.5" style="font-family: Menlo; font-size: 9px; fill: rgb(53, 155, 208); fill-opacity: 1; white-space: pre;">trend = 1.14ºC/100yr</text></g></g></g></g></svg>