<svg class="main-svg" xmlns="http://www.w3.org/2000/svg" xmlns:xlink="http://www.w3.org/1999/xlink" width="800" height="300" style="" viewBox="0 0 800 300"><rect x="0" y="0" width="800" height="300" style="fill: rgb(255, 255, 255); fill-opacity: 1;"/><defs id="defs-e3ba3d"><g class="clips"><clipPath id="clipe3ba3dxyplot" class="plotclip"><rect width="730" height="200"/></clipPath><clipPath class="axesclip" id="clipe3ba3dx"><rect x="50" y="0" width="730" height="300"/></clipPath><clipPath class="axesclip" id="clipe3ba3dy"><rect x="0" y="50" width="800" height="200"/></clipPath><clipPath class="axesclip" id="clipe3ba3dxy"><rect x="50" y="50" width="730" height="200"/></clipPath></g><g class="gradients"/></defs><g class="bglayer"/><g class="layer-below"><g class="imagelayer"/><g class="shapelayer"/></g><g class="cartesianlayer"><g class="subplot xy"><g class="layer-subplot"><g class="shapelayer"/><g class="imagelayer"/></g><g class="gridlayer"><g class="x"><path class="xgrid crisp" transform="translate(139.75,0)" d="M0,50v200" style="stroke: rgb(238, 238, 238); stroke-opacity: 1; stroke-width: 1px;"/><path class="xgrid crisp" transform="translate(231.22,0)" d="M0,50v200" style="stroke: rgb(238, 238, 238); stroke-opacity: 1; stroke-width: 1px;"/><path class="xgrid crisp" transform="translate(322.68,0)" d="M0,50v200" style="stroke: rgb(238, 238, 238); stroke-opacity: 1; stroke-width: 1px;"/><path class="xgrid crisp" transform="translate(414.14,0)" d="M0,50v200" style="stroke: rgb(238, 238, 238); stroke-opacity: 1; stroke-width: 1px;"/><path class="xgrid crisp" transform="translate(505.61,0)" d="M0,50v200" style="stroke: rgb(238, 238, 238); stroke-opacity: 1; stroke-width: 1px;"/><path class="xgrid crisp" transform="translate(597.07,0)" d="M0,50v200" style="stroke: rgb(238, 238, 238); stroke-opacity: 1; stroke-width: 1px;"/><path class="xgrid crisp" transform="translate(688.54,0)" d="M0,50v200" style="stroke: rgb(238, 238, 238); stroke-opacity: 1; stroke-width: 1px;"/></g><g class="y"><path class="ygrid crisp" transform="translate(0,207.87)" d="M50,0h730" style="stroke: rgb(238, 238, 238); stroke-opacity: 1; stroke-width: 1px;"/><path class="ygrid crisp" transform="translate(0,155.92000000000002)" d="M50,0h730" style="stroke: rgb(238, 238, 238); stroke-opacity: 1; stroke-width: 1px;"/><path class="ygrid crisp" transform="translate(0,52.01)" d="M50,0h730" style="stroke: rgb(238, 238, 238); stroke-opacity: 1; stroke-width: 1px;"/></g></g><g class="zerolinelayer"><path class="yzl zl crisp" transform="translate(0,103.97)" d="M50,0h730" style="stroke: rgb(68, 68, 68); stroke-opacity: 1; stroke-width: 1px;"/></g><path class="xlines-below"/><path class="ylines-below"/><g class="overlines-below"/><g class="xaxislayer-below"/><g class="yaxislayer-below"/><g class="overaxes-below"/><g class="plot" transform="translate(50, 50)" clip-path="url('#clipe3ba3dxyplot')"><g class="scatterlayer mlayer"><g class="trace scatter tracec6dea8" style="stroke-miterlimit: 2; opacity: 1;"><g class="fills"/><g class="errorbars"/><g class="lines"><path class="js-line" d="M0,143.55L2.42,148.33L4.55,147L4.53,150.16L5.85,141.37L5.8,145.64L9.43,120.04L9.34,124.52L10.4,110.94L9.31,127.28L10.98,107.67L13.7,88.52L14.54,84.25L15.6,79.81L17.73,79.44L20.14,95.39L21.24,99.06L22.47,102.56L22.95,106.53L24.83,114L26.59,116.7L29.93,126.68L31.99,126.81L33.74,125.64L34.24,129.35L35.91,146.63L37.12,148.64L41.57,145.57L40.99,148.68L45.52,137.84L47.34,134.12L48.36,130.28L50.43,126.4L49.65,130.81L52.8,123.6L54.73,121.17L56.69,117.36L57.76,113.24L59.63,113.55L61.51,114.11L62.14,117.16L63.34,126.36L65.12,121.4L66.97,131.52L68.69,134.52L69.91,144.84L69.71,133.78L70.89,147.46L73.1,145.03L74.07,140.77L75.4,145.29L76.09,141.26L77.4,139.36L78.77,144.04L79.43,139.06L82.3,120.14L83.99,116.1L85.54,106.46L85.89,102.47L87.38,96.12L88.57,92.88L89.15,97.33L90.54,89.56L89.67,93.09L92.68,87.05L94.81,77.34L96.85,76.1L98.99,77.03L99.71,80.2L101.25,78.96L101.62,83.4L103.6,91.11L103.4,85.18L104.9,100.07L104.82,90.27L106.55,106.84L106.56,100.72L107.15,114.9L107.85,118.41L110.21,132.84L111.84,124.45L112.24,139.85L114.47,130.67L114.63,133.32L116.86,128.97L116.09,133.35L118.61,130.1L119.74,140.6L120.87,143.44L121.47,138.86L122.59,147.37L122.71,143.95L124.83,147.9L125.1,144.7L126.9,148.91L126.92,152.42L129.12,148.09L131.37,149.34L133.07,147.34L134.22,153.74L136.45,152.21L138.58,151.65L139.36,156.41L140.84,152.95L141.81,157.04L142.73,165.17L144.49,164.15L146.71,176.12L148.19,176.53L149.89,186.67L150.87,178.57L150.26,190L151.07,182.65L152.47,174.78L154.17,168.15L153.84,171.64L154.53,164.21L154.48,173.47L155.81,169.61L157.54,155.22L158.45,151.81L159.68,134.11L160.21,130.43L163.45,99.34L163.78,93.78L165.57,71.9L166.58,67.49L167.14,60.54L168.28,67.95L168.55,77.48L169,83.24L170.03,90.71L171.61,92.81L172.45,96.08L174.1,97.67L175.43,99.45L176.38,103.02L178.57,109.35L178.76,112.82L180.64,97.8L181.53,100.91L183.71,91.32L184.08,86.96L183.98,83.48L185.66,92.21L185.56,96.86L186.69,88.96L188.52,90.23L189.58,94.26L191.04,96.14L192.16,99.71L192.76,108.23L193.35,112.19L195.63,111.33L195.54,114.93L197.79,99.06L197.24,109.87L196.76,113.43L199.71,95.25L200.68,90.99L201.71,80.16L203.23,76.1L204.16,71.73L205.1,76.48L206.06,88.01L207,91.58L207.46,94.5L209.74,95.8L211.23,99.75L210.95,95.92L213.06,106.69L214.53,106.46L215.35,113.26L216.09,116.4L220.85,130.39L222.04,134.91L222.48,140.53L222.22,129.54L224.45,140.04L226.76,150.34L228.02,145.64L228.55,141.91L230.1,146.99L230.95,149.03L232.38,143.5L234.55,142.41L236.47,138.26L238.17,129.57L240.37,126.47L243.18,114.17L244.31,120.05L244.69,123.22L245.4,117.01L246.47,120.12L247.6,114.7L249.45,113.46L249.09,116.54L251.7,104.32L252.98,108.88L255.86,123.81L257.28,127.17L259.48,126.43L260.04,121.63L261.09,117.63L263.34,116.86L264.88,113.07L265.39,108.8L266.23,116.82L266.99,114.49L269.34,116L270.22,111.13L271.55,102.04L270.49,115.69L272.77,99.73L274.4,101.92L278.28,92.46L278.82,88.49L277.8,97.23L281.08,88.85L280.5,91.82L282.88,83.69L282.94,87.63L284.62,85.6L287.07,102.05L288.9,99.73L289.7,111.17L290.04,114.73L290.6,123.32L292.46,122.35L295.08,104.96L296.64,109.09L297.14,105.18L297.68,114.16L298.02,108.91L298.17,130.53L298.2,134.25L299.87,148.21L300.88,151.33L303.04,137.87L303.85,134.45L306.73,145.33L306.74,140.37L307.76,148.75L309.25,143.75L311.39,143.52L311.47,146.72L313,137.65L312.61,143.38L314.42,137.31L316.29,143.49L316.62,147.05L318.46,159.86L319.36,163.04L320.89,159.49L321.52,155.53L321.84,163.5L322.88,160.33L323.62,164.42L324.97,159.77L326.88,171.49L328.19,169.83L330.26,180.11L331.86,178.81L333.36,183.61L334.9,174.55L334.33,182.65L336.19,170.06L337.3,162.59L338.83,167.55L341.55,133.81L340.69,137.17L342.46,116.07L342.15,120.92L342.99,108.07L342.43,111.17L343.6,101.68L343.23,105.15L343.97,94.73L343.85,98.18L343.94,89.98L345.18,102.13L345.16,96.48L346.02,116.86L347.38,120.31L347.96,111.88L347.82,125.44L347.46,129.5L348.23,115.85L347.8,132.61L347.54,134.91L349.81,107.22L350.07,103.17L350,128.41L350.44,115.85L351.49,120.5L351.23,128.41L353.23,82.35L352.78,90.27L355.16,74.08L355.37,66.77L354.75,87.65L357.8,70.24L358.18,73.53L359.34,62.35L358.98,67.38L360.46,58.38L361.24,47.36L362.2,42.9L363.69,46.07L364.33,42.61L365.43,46.76L365.36,50.71L365.83,58.11L366.17,61.33L367.48,71.52L368.38,75.54L369.67,79.58L370.16,83.65L373.06,90.27L374.08,94.96L375.65,98.06L376.71,102.01L377.14,106.13L378.41,108.91L380.25,110.93L381.33,114.12L383.84,120.98L385.82,123.36L389.69,123.32L390.48,126.82L392.47,125.64L393.73,129.33L394.64,125.98L396.02,130.22L395.65,135.75L398.07,128.34L398.28,131.04L400,130.76L401.74,137.17L402.86,133.78L404.4,141.34L404.56,145.04L406.09,142.53L406.34,147.87L406.91,151.89L407.87,148.47L408.93,152.45L411.06,150.7L412.98,153.34L413.35,157.06L414.91,144.85L414.87,149.27L414.64,153.69L417.1,147.05L418.36,150.57L422.56,100.27L423.08,96.62L424.96,81.73L425.87,77.62L426.98,69.32L427.53,64.79L428.48,62.01L430.42,62.53L430.28,65.69L431.68,57.94L432.5,54.75L433.86,58.09L435.45,57.6L435.73,61.78L437.37,78.76L438.65,81.63L439.89,89.88L441.16,83.34L442.32,90.45L443.85,86.42L445.95,83.8L447.62,85.83L449.24,93.23L449.75,97.28L451.76,110.82L453.17,115.21L455.65,133.73L457.74,133.4L458.35,134.2L459.81,129.78L462.16,121.7L463.04,116.82L463.55,111.83L464.79,107.89L466.57,103.01L465.99,107.22L468.8,103.54L470.07,105.37L472.11,104.02L472.08,107.26L473.84,104.62L474.47,107.67L476.5,115.46L478.27,115.13L478.33,118.17L479.33,121.38L480.56,125.16L481.25,130.1L483.04,145.73L484.7,145.81L485.53,143.56L487.63,142.66L488.13,146.17L487.69,149.32L489.68,129.58L489.22,144.09L491.43,133.53L491.78,127.96L491.75,130.67L493.24,136.35L495.04,136.08L495.47,140.27L496.4,144.44L498.26,145.84L500.41,151.7L502.61,150.3L504.33,144.76L504.1,149.17L507.55,112.67L508.14,104.52L507.89,108.72L508.69,96.85L507.73,100.44L509.38,91.71L510.33,80.12L511.64,75.07L513.06,80.15L513.51,75.69L514.43,86.28L514.57,80.38L514.65,90.83L515.44,103.6L515.77,107.1L516.76,110.22L518.51,112.84L518.63,115.98L520.15,108.46L521.55,113.59L521.66,108.72L522.26,129.26L523.06,133.53L524.9,137.28L525.37,142.31L527.13,130.39L526.51,138.77L526.48,141.97L529.11,108.72L528.8,113.57L529.47,101.43L528.71,104.39L530.02,96.39L530.43,92.24L531.12,84.95L532.51,81.16L534.66,81.22L536.25,84.36L538.14,83.08L540.45,82.43L541.7,80.38L543.2,81.32L545.04,75.48L547.39,76.42L548.98,80.47L548.73,75.01L550.5,82.85L551.15,78.96L552.21,71.86L552.8,69.81L555.47,83L555.79,88.29L557.12,96.2L558.07,99.02L559.11,106.37L559.12,110.47L561.45,132.4L562.85,136.42L563.38,139.19L565.23,139L565.47,142.11L567.69,139.29L569.89,137.43L570,140.56L571.95,135.15L574.39,133.61L575.88,137.49L575.79,133.21L576.64,140.73L578.6,140.39L580.59,139.14L580.92,142.91L581.21,146.65L582.9,150.41L583.92,154.8L585.23,156.94L586.44,151.86L588.03,151.69L588.99,154.2L590.51,154.49L592.42,165.75L593.5,169.09L594.71,176.94L595.72,168.13L594.68,179.26L596.71,170.15L598.49,162.23L600.42,163.89L601.86,169.54L603.87,169.89L605.31,176.33L606.75,170.93L608.13,167.52L608.6,160.33L608.3,164.01L612.08,118.8L613.54,106.62L613.38,117.25L614.07,94.03L613.72,102.13L616.03,74.1L616.5,69.44L617.86,47.26L617.02,50.15L618.53,38.47L618.38,42.66L618.46,35.45L620.6,39.73L620.43,44.47L621.39,36.73L621.79,46.38L621.88,61.16L621.91,64.7L621.91,40.54L622.36,68.11L623.12,72.04L624.42,87.72L626.2,80.12L627.9,88.05L627.4,80.09L629.24,98.84L630.14,101.14L632.21,101.28L631.58,104.11L634.5,91.52L636.63,89.55L637.66,87.16L638.87,91.92L641.51,97.46L642.39,92.67L644.42,92.81L644.39,95.92L645.91,97.61L646.08,92.34L647.3,109.79L649.07,109.56L650.31,112.02L652.37,108.65L654.62,109.35L654.54,112.73L656.62,97.46L655.9,106.37L658.58,96.09L661.82,117.74L663.35,118.92L665.16,117.59L665.94,121.3L669.93,145.8L670.91,147.62L672.41,140.84L671.97,144.98L672.07,147.62L674.48,140.66L675.93,139.14L677.56,144.23L678.56,137.23L679.35,132.33L678.4,141.4L680.83,134.43L681.75,128.38L682.84,134.3L682.94,129.82L684.32,143.21L684.86,148.36L686.6,143.06L688.89,143.48L691.97,148.13L693.29,145.27L696.98,152.37L697.31,149.6L697.86,155.2L699.32,151.1L699.91,155.07L701.55,149.37L702.13,153.41L701.11,155.81L703.72,153.18L704.06,156.55L706.7,168.53L708.59,171.27L710.72,171.82L710.5,175.38L712.06,178.79L712.92,173.05L713.6,184.54L714.3,178.24L716.78,144.18L717.23,138.2L716.38,141.12L717.59,131.16L716.82,133.78L718.04,122.93L717.82,126.43L720.25,95.51L721.06,88.22L720.75,92.24L723.71,54.85L725.42,60.16L725.47,63.38L726.93,64.87L728.45,53.94L729.82,52.41" style="vector-effect: non-scaling-stroke; fill: none; stroke: rgb(196, 196, 196); stroke-opacity: 1; stroke-width: 2px; opacity: 1;"/></g><g class="points"/><g class="text"/></g><g class="trace scatter trace45cac4" style="stroke-miterlimit: 2; opacity: 1;"><g class="fills"/><g class="errorbars"/><g class="lines"><path class="js-line" d="M0,120.36L94.81,119.61L96.85,119.59L322.88,117.79L323.62,117.78L729.82,114.55" style="vector-effect: non-scaling-stroke; fill: none; stroke: rgb(53, 155, 208); stroke-opacity: 1; stroke-width: 2px; opacity: 1;"/></g><g class="points"/><g class="text"/></g></g></g><g class="overplot"/><path class="xlines-above crisp" style="fill: none; stroke-width: 1px; stroke: rgb(196, 196, 196); stroke-opacity: 1;" d="M49,250.5H780"/><path class="ylines-above crisp" style="fill: none; stroke-width: 1px; stroke: rgb(196, 196, 196); stroke-opacity: 1;" d="M49.5,50V250"/><g class="overlines-above"/><g class="xaxislayer-above"><path class="xtick ticks crisp" d="M0,251v5" transform="translate(139.75,0)" style="stroke: rgb(196, 196, 196); stroke-opacity: 1; stroke-width: 1px;"/><path class="xtick ticks crisp" d="M0,251v5" transform="translate(231.22,0)" style="stroke: rgb(196, 196, 196); stroke-opacity: 1; stroke-width: 1px;"/><path class="xtick ticks crisp" d="M0,251v5" transform="translate(322.68,0)" style="stroke: rgb(196, 196, 196); stroke-opacity: 1; stroke-width: 1px;"/><path class="xtick ticks crisp" d="M0,251v5" transform="translate(414.14,0)" style="stroke: rgb(196, 196, 196); stroke-opacity: 1; stroke-width: 1px;"/><path class="xtick ticks crisp" d="M0,251v5" transform="translate(505.61,0)" style="stroke: rgb(196, 196, 196); stroke-opacity: 1; stroke-width: 1px;"/><path class="xtick ticks crisp" d="M0,251v5" transform="translate(597.07,0)" style="stroke: rgb(196, 196, 196); stroke-opacity: 1; stroke-width: 1px;"/><path class="xtick ticks crisp" d="M0,251v5" transform="translate(688.54,0)" style="stroke: rgb(196, 196, 196); stroke-opacity: 1; stroke-width: 1px;"/><path class="xtick ticks crisp" d="M0,251v5" transform="translate(780,0)" style="stroke: rgb(196, 196, 196); stroke-opacity: 1; stroke-width: 1px;"/><g class="xtick"><text text-anchor="middle" x="0" y="270.4" transform="translate(139.75,0)" style="font-family: Menlo; font-size: 12px; fill: rgb(196, 196, 196); fill-opacity: 1; white-space: pre;">−700k</text></g><g class="xtick"><text text-anchor="middle" x="0" y="270.4" transform="translate(231.22,0)" style="font-family: Menlo; font-size: 12px; fill: rgb(196, 196, 196); fill-opacity: 1; white-space: pre;">−600k</text></g><g class="xtick"><text text-anchor="middle" x="0" y="270.4" transform="translate(322.68,0)" style="font-family: Menlo; font-size: 12px; fill: rgb(196, 196, 196); fill-opacity: 1; white-space: pre;">−500k</text></g><g class="xtick"><text text-anchor="middle" x="0" y="270.4" transform="translate(414.14,0)" style="font-family: Menlo; font-size: 12px; fill: rgb(196, 196, 196); fill-opacity: 1; white-space: pre;">−400k</text></g><g class="xtick"><text text-anchor="middle" x="0" y="270.4" transform="translate(505.61,0)" style="font-family: Menlo; font-size: 12px; fill: rgb(196, 196, 196); fill-opacity: 1; white-space: pre;">−300k</text></g><g class="xtick"><text text-anchor="middle" x="0" y="270.4" transform="translate(597.07,0)" style="font-family: Menlo; font-size: 12px; fill: rgb(196, 196, 196); fill-opacity: 1; white-space: pre;">−200k</text></g><g class="xtick"><text text-anchor="middle" x="0" y="270.4" transform="translate(688.54,0)" style="font-family: Menlo; font-size: 12px; fill: rgb(196, 196, 196); fill-opacity: 1; white-space: pre;">−100k</text></g><g class="xtick"><text text-anchor="middle" x="0" y="270.4" transform="translate(780,0)" style="font-family: Menlo; font-size: 12px; fill: rgb(196, 196, 196); fill-opacity: 1; white-space: pre;">0</text></g></g><g class="yaxislayer-above"><path class="ytick ticks crisp" d="M49,0h-5" transform="translate(0,207.87)" style="stroke: rgb(196, 196, 196); stroke-opacity: 1; stroke-width: 1px;"/><path class="ytick ticks crisp" d="M49,0h-5" transform="translate(0,155.92000000000002)" style="stroke: rgb(196, 196, 196); stroke-opacity: 1; stroke-width: 1px;"/><path class="ytick ticks crisp" d="M49,0h-5" transform="translate(0,103.97)" style="stroke: rgb(196, 196, 196); stroke-opacity: 1; stroke-width: 1px;"/><path class="ytick ticks crisp" d="M49,0h-5" transform="translate(0,52.01)" style="stroke: rgb(196, 196, 196); stroke-opacity: 1; stroke-width: 1px;"/><g class="ytick"><text text-anchor="end" x="41.6" y="4.199999999999999" transform="translate(0,207.87)" style="font-family: Menlo; font-size: 12px; fill: rgb(196, 196, 196); fill-opacity: 1; white-space: pre;">−4</text></g><g class="ytick"><text text-anchor="end" x="41.6" y="4.199999999999999" transform="translate(0,155.92000000000002)" style="font-family: Menlo; font-size: 12px; fill: rgb(196, 196, 196); fill-opacity: 1; white-space: pre;">−2</text></g><g class="ytick"><text text-anchor="end" x="41.6" y="4.199999999999999" transform="translate(0,103.97)" style="font-family: Menlo; font-size: 12px; fill: rgb(196, 196, 196); fill-opacity: 1; white-space: pre;">0</text></g><g class="ytick"><text text-anchor="end" x="41.6" y="4.199999999999999" transform="translate(0,52.01)" style="font-family: Menlo; font-size: 12px; fill: rgb(196, 196, 196); fill-opacity: 1; white-space: pre;">2</text></g></g><g class="overaxes-above"/></g></g><g class="polarlayer"/><g class="ternarylayer"/><g class="geolayer"/><g class="funnelarealayer"/><g class="pielayer"/><g class="treemaplayer"/><g class="sunburstlayer"/><g class="glimages"/><defs id="topdefs-e3ba3d"><g class="clips"/></defs><g class="layer-above"><g class="imagelayer"/><g class="shapelayer"><path data-index="0" fill-rule="evenodd" d="M50,65L780,65" clip-path="url('#clipe3ba3dy')" style="opacity: 1; stroke: rgb(199, 71, 63); stroke-opacity: 1; fill: rgb(0, 0, 0); fill-opacity: 0; stroke-dasharray: 3px, 3px; stroke-width: 1px;"/><path data-index="1" fill-rule="evenodd" d="M139.75,250H231.22V50H139.75Z" clip-path="url('#clipe3ba3dx')" style="opacity: 0.25; stroke: rgb(0, 0, 0); stroke-opacity: 0; fill: rgb(96, 195, 155); fill-opacity: 1; stroke-width: 0px;"/><path data-index="2" fill-rule="evenodd" d="M322.68,250H414.14V50H322.68Z" clip-path="url('#clipe3ba3dx')" style="opacity: 0.25; stroke: rgb(0, 0, 0); stroke-opacity: 0; fill: rgb(96, 195, 155); fill-opacity: 1; stroke-width: 0px;"/><path data-index="3" fill-rule="evenodd" d="M505.61,250H597.07V50H505.61Z" clip-path="url('#clipe3ba3dx')" style="opacity: 0.25; stroke: rgb(0, 0, 0); stroke-opacity: 0; fill: rgb(96, 195, 155); fill-opacity: 1; stroke-width: 0px;"/><path data-index="4" fill-rule="evenodd" d="M688.54,250H780V50H688.54Z" clip-path="url('#clipe3ba3dx')" style="opacity: 0.25; stroke: rgb(0, 0, 0); stroke-opacity: 0; fill: rgb(96, 195, 155); fill-opacity: 1; stroke-width: 0px;"/></g></g><g class="infolayer"><g class="g-gtitle"><text class="gtitle" x="0" y="6" text-anchor="start" dy="0.7em" style="font-family: Menlo; font-size: 10px; fill: rgb(35, 35, 35); opacity: 1; font-weight: normal; white-space: pre;">Last 800 Thousand Years | Global Temperature Relative to Peak Holocene Temperature</text></g><g class="g-xtitle"><text class="xtitle" x="415" y="290" text-anchor="middle" style="font-family: Menlo; font-size: 10px; fill: rgb(196, 196, 196); opacity: 1; font-weight: normal; white-space: pre;">Time (Thousand of Years Before Present)</text></g><g class="g-ytitle"><text class="ytitle" transform="rotate(-90,20,150)" x="20" y="150" text-anchor="middle" style="font-family: Menlo; font-size: 10px; fill: rgb(196, 196, 196); opacity: 1; font-weight: normal; white-space: pre;">Temperature (ºC)</text></g><g class="annotation" data-index="0" style="opacity: 1;"><g class="annotation-text-g" transform="rotate(0,415,57.5)"><g class="cursor-pointer" transform="translate(400, 50)"><rect class="bg" x="0.5" y="0.5" width="30" height="14" style="stroke-width: 1px; stroke: rgb(0, 0, 0); stroke-opacity: 0; fill: rgb(0, 0, 0); fill-opacity: 0;"/><text class="annotation-text" text-anchor="middle" x="15.546875" y="10.5" style="font-family: Menlo; font-size: 9px; fill: rgb(199, 71, 63); fill-opacity: 1; white-space: pre;">1.5ºC</text></g></g></g><g class="annotation" data-index="1" style="opacity: 1;"><g class="annotation-text-g" transform="rotate(0,229.22,52)"><g class="cursor-pointer" transform="translate(227, 50)"><rect class="bg" x="0.5" y="0.5" width="3" height="3" style="stroke-width: 1px; stroke: rgb(0, 0, 0); stroke-opacity: 0; fill: rgb(0, 0, 0); fill-opacity: 0;"/><text class="annotation-text" text-anchor="middle" x="2" y="2" style="font-family: Menlo; font-size: 9px; fill: rgb(35, 35, 35); fill-opacity: 1; white-space: pre;"></text></g></g></g><g class="annotation" data-index="2" style="opacity: 1;"><g class="annotation-text-g" transform="rotate(0,412.14,52)"><g class="cursor-pointer" transform="translate(410, 50)"><rect class="bg" x="0.5" y="0.5" width="3" height="3" style="stroke-width: 1px; stroke: rgb(0, 0, 0); stroke-opacity: 0; fill: rgb(0, 0, 0); fill-opacity: 0;"/><text class="annotation-text" text-anchor="middle" x="2" y="2" style="font-family: Menlo; font-size: 9px; fill: rgb(35, 35, 35); fill-opacity: 1; white-space: pre;"></text></g></g></g><g class="annotation" data-index="3" style="opacity: 1;"><g class="annotation-text-g" transform="rotate(0,595.07,52)"><g class="cursor-pointer" transform="translate(593, 50)"><rect class="bg" x="0.5" y="0.5" width="3" height="3" style="stroke-width: 1px; stroke: rgb(0, 0, 0); stroke-opacity: 0; fill: rgb(0, 0, 0); fill-opacity: 0;"/><text class="annotation-text" text-anchor="middle" x="2" y="2" style="font-family: Menlo; font-size: 9px; fill: rgb(35, 35, 35); fill-opacity: 1; white-space: pre;"></text></g></g></g><g class="annotation" data-index="4" style="opacity: 1;"><g class="annotation-text-g" transform="rotate(0,778,52)"><g class="cursor-pointer" transform="translate(776, 50)"><rect class="bg" x="0.5" y="0.5" width="3" height="3" style="stroke-width: 1px; stroke: rgb(0, 0, 0); stroke-opacity: 0; fill: rgb(0, 0, 0); fill-opacity: 0;"/><text class="annotation-text" text-anchor="middle" x="2" y="2" style="font-family: Menlo; font-size: 9px; fill: rgb(35, 35, 35); fill-opacity: 1; white-space: pre;"></text></g></g></g><g class="annotation" data-index="5" style="opacity: 1;"><g class="annotation-text-g" transform="rotate(0,103.5,57.5)"><g class="cursor-pointer" transform="translate(50, 50)"><rect class="bg" x="0.5" y="0.5" width="106" height="14" style="stroke-width: 1px; stroke: rgb(0, 0, 0); stroke-opacity: 0; fill: rgb(0, 0, 0); fill-opacity: 0;"/><text class="annotation-text" text-anchor="middle" x="53.484375" y="10.5" style="font-family: Menlo; font-size: 9px; fill: rgb(53, 155, 208); fill-opacity: 1; white-space: pre;">trend = 0.03/100kyr</text></g></g></g></g></svg>