<svg class="main-svg" xmlns="http://www.w3.org/2000/svg" xmlns:xlink="http://www.w3.org/1999/xlink" width="800" height="300" style="" viewBox="0 0 800 300"><rect x="0" y="0" width="800" height="300" style="fill: rgb(255, 255, 255); fill-opacity: 1;"/><defs id="defs-665deb"><g class="clips"><clipPath id="clip665debxyplot" class="plotclip"><rect width="686.1999999999999" height="200"/></clipPath><clipPath id="clip665debxy2plot" class="plotclip"><rect width="686.1999999999999" height="200"/></clipPath><clipPath class="axesclip" id="clip665debx"><rect x="50" y="0" width="686.1999999999999" height="300"/></clipPath><clipPath class="axesclip" id="clip665deby"><rect x="0" y="50" width="800" height="200"/></clipPath><clipPath class="axesclip" id="clip665debxy"><rect x="50" y="50" width="686.1999999999999" height="200"/></clipPath><clipPath class="axesclip" id="clip665deby2"><rect x="0" y="50" width="800" height="200"/></clipPath><clipPath class="axesclip" id="clip665debxy2"><rect x="50" y="50" width="686.1999999999999" height="200"/></clipPath></g><g class="gradients"/></defs><g class="bglayer"/><g class="layer-below"><g class="imagelayer"/><g class="shapelayer"/></g><g class="cartesianlayer"><g class="subplot xy"><g class="layer-subplot"><g class="shapelayer"/><g class="imagelayer"/></g><g class="gridlayer"><g class="x"><path class="xgrid crisp" transform="translate(134.37,0)" d="M0,50v200" style="stroke: rgb(238, 238, 238); stroke-opacity: 1; stroke-width: 1px;"/><path class="xgrid crisp" transform="translate(220.34,0)" d="M0,50v200" style="stroke: rgb(238, 238, 238); stroke-opacity: 1; stroke-width: 1px;"/><path class="xgrid crisp" transform="translate(306.32,0)" d="M0,50v200" style="stroke: rgb(238, 238, 238); stroke-opacity: 1; stroke-width: 1px;"/><path class="xgrid crisp" transform="translate(392.29,0)" d="M0,50v200" style="stroke: rgb(238, 238, 238); stroke-opacity: 1; stroke-width: 1px;"/><path class="xgrid crisp" transform="translate(478.27,0)" d="M0,50v200" style="stroke: rgb(238, 238, 238); stroke-opacity: 1; stroke-width: 1px;"/><path class="xgrid crisp" transform="translate(564.25,0)" d="M0,50v200" style="stroke: rgb(238, 238, 238); stroke-opacity: 1; stroke-width: 1px;"/><path class="xgrid crisp" transform="translate(650.22,0)" d="M0,50v200" style="stroke: rgb(238, 238, 238); stroke-opacity: 1; stroke-width: 1px;"/></g><g class="y"><path class="ygrid crisp" transform="translate(0,200)" d="M50,0h686.1999999999999" style="stroke: rgb(238, 238, 238); stroke-opacity: 1; stroke-width: 1px;"/><path class="ygrid crisp" transform="translate(0,150)" d="M50,0h686.1999999999999" style="stroke: rgb(238, 238, 238); stroke-opacity: 1; stroke-width: 1px;"/><path class="ygrid crisp" transform="translate(0,100)" d="M50,0h686.1999999999999" style="stroke: rgb(238, 238, 238); stroke-opacity: 1; stroke-width: 1px;"/></g><g class="y2"><path class="y2grid crisp" transform="translate(0,205.56)" d="M50,0h686.1999999999999" style="stroke: rgb(238, 238, 238); stroke-opacity: 1; stroke-width: 1px;"/><path class="y2grid crisp" transform="translate(0,161.11)" d="M50,0h686.1999999999999" style="stroke: rgb(238, 238, 238); stroke-opacity: 1; stroke-width: 1px;"/><path class="y2grid crisp" transform="translate(0,116.67)" d="M50,0h686.1999999999999" style="stroke: rgb(238, 238, 238); stroke-opacity: 1; stroke-width: 1px;"/><path class="y2grid crisp" transform="translate(0,72.22)" d="M50,0h686.1999999999999" style="stroke: rgb(238, 238, 238); stroke-opacity: 1; stroke-width: 1px;"/></g></g><g class="zerolinelayer"/><path class="xlines-below"/><path class="ylines-below"/><g class="overlines-below"><path class="xy2-x"/><path class="xy2-y"/></g><g class="xaxislayer-below"/><g class="yaxislayer-below"/><g class="overaxes-below"><g class="xy2-x"/><g class="xy2-y"/></g><g class="plot" transform="translate(50, 50)" clip-path="url('#clip665debxyplot')"><g class="scatterlayer mlayer"><g class="trace scatter trace90ac24" style="stroke-miterlimit: 2; opacity: 1;"><g class="fills"/><g class="errorbars"/><g class="lines"><path class="js-line" d="M0,136.22L2.28,140.81L4.28,139.54L4.26,142.58L5.5,134.12L5.46,138.23L8.86,113.59L8.78,117.9L9.77,104.83L8.75,120.55L10.33,101.68L12.88,83.26L13.67,79.15L14.67,74.87L16.66,74.51L18.94,89.86L19.96,93.4L21.12,96.76L21.58,100.59L23.34,107.77L25,110.38L28.13,119.98L30.07,120.1L31.71,118.98L32.19,122.55L33.75,139.18L34.89,141.12L39.08,138.16L38.53,141.15L45.46,123.44L47.41,119.71L46.67,123.95L49.64,117.02L51.44,114.68L53.29,111.01L54.29,107.05L56.06,107.34L57.82,107.88L58.41,110.82L59.54,119.67L61.21,114.9L62.95,124.63L64.57,127.52L65.72,137.46L65.53,126.81L66.64,139.98L68.72,137.64L69.62,133.54L70.88,137.89L71.53,134.01L72.76,132.19L74.04,136.69L74.67,131.89L77.36,113.69L78.95,109.8L80.74,96.68L81.23,93L83.25,87.45L83.81,91.73L85.11,84.25L84.29,87.65L87.12,81.84L89.12,72.49L91.04,71.3L93.05,72.2L93.73,75.25L95.17,74.06L95.52,78.33L97.39,85.75L97.19,80.04L98.61,94.37L98.53,84.93L100.16,100.89L100.16,94.99L100.29,104.92L102.36,118.32L103.21,121.67L103.6,125.91L105.13,117.83L105.51,132.65L107.6,123.82L107.75,126.37L109.85,122.19L109.12,126.4L111.49,123.27L112.56,133.37L113.62,136.11L114.18,131.7L115.23,139.89L115.34,136.6L117.34,140.4L117.59,137.32L119.28,141.38L119.31,144.75L121.37,140.58L123.49,141.79L125.09,139.86L126.17,146.02L128.26,144.55L130.26,144.01L131,148.59L132.39,145.26L133.3,149.19L134.17,157.02L135.82,156.04L137.91,167.55L139.29,167.96L140.9,177.71L141.82,169.92L141.25,180.92L142.01,173.85L143.32,166.27L144.92,159.89L144.61,163.24L145.26,156.1L145.22,165.01L146.47,161.29L148.09,147.44L148.95,144.16L150.1,127.13L150.6,123.59L153.95,88.31L154.45,80.49L154.1,84.75L155.63,67.26L156.59,63.01L157.11,56.33L158.19,63.45L158.44,72.63L158.86,78.17L159.82,85.36L161.31,87.38L162.1,90.53L163.66,92.06L164.9,93.77L165.8,97.21L167.86,103.3L168.04,106.64L169.8,92.18L170.64,95.18L172.69,85.95L173.03,81.75L172.94,78.41L174.52,86.81L174.43,91.28L175.49,83.68L177.21,84.9L178.21,88.77L179.58,90.59L180.63,94.02L181.75,106.03L183.89,105.21L183.8,108.67L185.34,98.61L185.92,93.4L184.96,107.23L187.73,89.73L188.64,85.63L188.99,80.51L189.61,75.21L191.03,71.3L191.91,67.1L192.8,71.67L193.69,82.76L194.58,86.2L195.02,89.01L197.16,90.26L198.56,94.06L198.3,90.37L200.27,100.74L201.66,100.52L202.43,107.07L203.13,110.09L207.6,123.54L208.72,127.9L209.13,133.31L208.89,122.73L210.99,132.83L213.16,142.75L214.34,138.23L214.84,134.64L216.29,139.53L217.1,141.49L218.44,136.17L220.47,135.11L222.28,131.12L223.88,122.76L225.95,119.77L228.59,107.94L229.65,113.6L230.01,116.65L230.67,110.67L231.68,113.67L232.74,108.45L234.49,107.26L234.14,110.22L236.6,98.46L237.8,102.85L240.51,117.21L241.84,120.45L243.91,119.74L245.42,111.27L247.54,110.52L248.99,106.88L249.47,102.77L250.26,110.49L250.97,108.25L253.18,109.7L255.25,96.26L254.26,109.41L256.4,94.04L257.94,96.15L261.58,87.04L262.09,83.23L261.13,91.64L264.22,83.57L263.67,86.43L265.91,78.61L265.96,82.4L267.54,80.45L268.08,84.03L269.84,96.27L271.57,94.04L272.32,105.06L272.63,108.48L273.17,116.75L274.91,115.81L277.37,99.07L278.84,103.05L279.31,99.29L279.82,107.93L280.14,102.88L280.3,127.26L280.56,130.75L281.88,140.7L282.83,143.7L284.86,130.75L285.62,127.46L288.32,137.93L288.33,133.15L289.29,141.22L290.69,136.41L292.7,136.19L292.78,139.26L294.22,130.53L293.85,136.05L295.55,130.21L297.31,136.16L297.63,139.59L300.2,154.97L301.63,151.55L302.22,147.74L302.53,155.41L303.51,152.37L304.2,156.3L305.48,151.82L306.12,156.85L307.27,163.11L308.5,161.5L310.44,171.4L311.95,170.15L313.36,174.77L314.81,166.05L314.27,173.85L316.02,161.73L317.06,154.54L318.5,159.32L321.05,126.84L320.25,130.07L321.92,109.77L321.62,114.44L322.41,102.06L321.89,105.06L322.98,95.92L322.64,99.25L323.34,89.24L323.22,92.55L323.3,84.66L324.47,96.35L324.45,90.92L325.25,110.53L326.54,113.85L327.08,105.73L326.61,122.69L327.34,109.56L326.93,125.68L326.68,127.9L328.82,101.25L329.07,97.35L329,121.64L329.42,109.56L330.4,114.03L330.15,121.64L332.04,77.32L331.62,84.93L333.85,69.35L334.05,62.33L333.46,82.42L336.33,65.66L336.69,68.83L337.78,58.07L337.44,62.91L338.83,54.25L339.57,43.64L340.47,39.35L341.87,42.4L342.47,39.07L343.51,43.06L343.43,46.87L344.2,57.09L344.51,60.3L346.27,70.76L347.49,74.65L347.95,78.56L349.3,81.83L350.68,84.93L351.63,89.45L353.11,92.43L354.11,96.24L354.51,100.21L355.7,102.88L357.44,104.82L358.45,107.89L360.81,114.49L362.67,116.78L366.31,116.75L367.05,120.11L368.92,118.98L370.11,122.53L370.96,119.3L372.26,123.39L371.91,128.71L374.19,121.57L374.38,124.18L376,123.91L377.63,130.07L378.69,126.81L380.13,134.09L380.29,137.64L381.72,135.24L381.96,140.37L382.5,144.24L383.4,140.95L384.4,144.78L386.4,143.09L388.2,145.64L388.55,149.21L390.02,137.47L389.97,141.72L389.76,145.98L392.08,139.59L393.25,142.97L397.2,94.56L397.7,91.05L399.46,76.72L400.32,72.77L401.36,64.77L401.87,60.42L402.77,57.74L404.59,58.24L404.47,61.28L405.78,53.82L406.55,50.75L407.83,53.97L409.33,53.5L409.59,57.52L411.12,73.86L412.33,76.62L413.5,84.56L414.69,78.27L415.78,85.12L417.22,81.23L419.2,78.71L420.76,80.66L422.28,87.79L422.76,91.69L424.66,104.72L425.98,108.94L428.31,126.76L430.27,126.45L430.84,127.22L432.22,122.96L434.43,115.18L435.26,110.49L435.74,105.69L436.9,101.89L438.58,97.19L438.03,101.25L440.67,97.71L441.86,99.47L443.78,98.17L443.75,101.29L445.41,98.75L446,101.68L447.91,109.18L449.57,108.86L449.63,111.78L450.57,114.88L451.73,118.51L452.37,123.27L454.06,138.31L455.62,138.39L456.4,136.22L458.38,135.36L458.85,138.74L458.43,141.76L460.3,122.77L459.86,136.73L461.95,126.57L462.27,121.21L462.25,123.82L463.65,129.28L465.34,129.02L465.74,133.06L466.62,137.07L468.36,138.42L470.39,144.05L472.46,142.71L474.07,137.38L473.85,141.63L477.1,106.49L477.65,98.65L477.42,102.7L478.17,91.27L477.27,94.72L478.82,86.33L479.71,75.17L480.94,70.31L482.28,75.2L482.7,70.9L483.56,81.1L483.7,75.42L483.77,85.48L484.51,97.77L484.83,101.14L485.75,104.14L487.4,106.66L487.51,109.68L488.94,102.44L490.26,107.39L490.36,102.7L490.92,122.46L491.68,126.57L493.41,130.18L493.85,135.03L495.5,123.54L494.92,131.61L494.89,134.69L499.25,79.82L500.56,76.17L502.58,76.23L504.07,79.25L508.03,77.39L509.2,75.42L510.61,76.32L511.62,72.92L512.34,70.7L514.55,71.61L516.05,75.51L515.81,70.25L517.47,77.8L518.08,74.06L519.64,65.25L520.61,69.53L524.59,93.36L525.37,96.74L526.85,122.09L527.76,125.49L529.58,132.02L531.31,131.84L531.54,134.83L533.63,132.11L535.7,130.32L535.8,133.33L537.64,128.13L539.93,126.65L541.33,130.38L541.25,126.26L542.04,133.5L543.88,133.17L545.75,131.97L546.06,135.6L546.34,139.2L547.93,142.82L550.12,149.1L551.26,144.21L552.75,144.05L553.65,146.46L555.08,146.75L555.56,150.19L558.54,164.53L559.02,168.35L559.97,159.87L559,170.58L560.91,161.82L562.58,154.19L564.4,155.78L565.75,161.23L567.64,161.57L568.99,167.76L570.35,162.56L571.64,159.28L572.08,152.37L571.8,155.9L575.35,112.4L576.72,100.67L576.58,110.9L577.23,88.56L576.9,96.35L581.42,35.08L581.28,39.12L581.35,32.18L583.36,36.3L583.2,40.86L584.11,33.41L584.48,42.7L584.57,56.93L584.59,60.33L584.59,37.08L585.02,63.62L585.73,67.4L586.96,82.49L588.63,75.17L590.23,82.8L589.76,75.15L591.49,93.18L592.33,95.4L594.28,95.54L593.69,98.26L596.43,86.14L598.43,84.24L599.4,81.94L600.54,86.53L603.02,91.86L603.85,87.25L605.75,87.38L605.72,90.37L607.15,92L607.32,86.93L608.46,103.73L610.12,103.5L611.29,105.87L613.23,102.63L615.35,103.3L615.27,106.55L617.23,91.86L616.54,100.43L619.07,90.54L622.11,111.38L623.55,112.51L625.25,111.23L625.99,114.8L629.73,138.38L630.65,140.13L632.06,133.61L631.65,137.59L631.74,140.13L634.02,133.43L635.38,131.97L636.91,136.87L637.85,130.13L638.59,125.42L637.69,134.15L639.98,127.43L640.84,121.62L641.87,127.31L641.97,123L643.26,135.89L643.77,140.85L645.4,135.74L647.55,136.14L650.45,140.62L651.7,137.87L655.16,144.7L655.47,142.03L655.99,147.43L657.36,143.48L657.92,147.3L659.45,141.82L660,145.71L659.05,148.02L661.5,145.48L661.81,148.72L664.3,160.25L666.07,162.89L668.08,163.42L667.87,166.85L669.34,170.13L670.15,164.6L670.79,175.66L671.44,169.6L673.77,136.82L674.2,131.07L673.4,133.88L674.53,124.29L673.81,126.81L674.96,116.37L674.75,119.74L677.51,86.84L678.11,78.08L679.98,55.57L679.51,59.92L680.29,50.86L681.9,55.96L681.94,59.06L683.31,60.5L683.83,55.45L684.75,49.98L686.03,48.5" style="vector-effect: non-scaling-stroke; fill: none; stroke: rgb(53, 155, 208); stroke-opacity: 1; stroke-width: 2px; opacity: 1;"/></g><g class="points"/><g class="text"/></g></g></g><g class="overplot"><g class="xy2" transform="translate(50, 50)" clip-path="url('#clip665debxy2plot')"><g class="scatterlayer mlayer"><g class="trace scatter tracecb9128" style="stroke-miterlimit: 2;"><g class="fills"><g><path class="js-fill" d="M686.11,200L1.35,200L1.35,115.11L3.1,115.87L4.19,113.24L5.86,107.11L6.13,109.33L6.87,108.84L7.38,104.27L9.62,98L10.35,89.82L10.55,89.73L11.18,85.82L11.6,84.31L12.28,86.49L13.7,90.27L14.46,87.96L15.49,90.58L15.94,89.47L16.74,92.09L17.03,89.56L17.81,91.6L18.29,90.76L19.07,90.62L19.36,90.53L20.15,91.6L20.67,93.87L21.52,93.11L23.24,97.78L24.07,97.38L24.39,98L24.78,94.36L25.24,94.13L26.68,101.6L27.02,101.16L27.8,103.24L28.36,105.11L29.2,104.13L29.53,103.64L30.3,101.07L30.8,100.4L31.07,101.6L31.29,99.69L31.6,104.44L31.99,104L32.68,105.78L33.21,108.4L34.03,108.04L35.42,103.16L35.77,103.29L35.95,104.31L36.21,102.58L36.55,104.44L37.15,106.36L39.63,114.89L40.49,112.67L40.81,116.44L41.48,115.51L41.94,117.24L44.69,119.82L44.98,119.64L45.54,119.64L45.94,118.62L46.63,119.91L47.49,119.11L48.57,119.82L48.87,119.24L49.45,118.98L49.87,120.93L50.53,121.51L50.77,120.62L51.41,120.49L51.79,117.78L53.47,106.4L54,106.09L55.02,109.29L55.56,110.53L55.81,110.36L56.29,107.82L57.45,109.38L58.06,108.49L58.41,109.42L59.11,108.93L59.99,109.33L61.18,108.71L62.66,109.11L63.41,107.51L64.5,108.31L65.03,106.53L66.15,105.16L67.09,106.09L68.56,113.24L69.02,116.53L69.9,118.09L70.51,114.27L72.5,101.29L72.99,103.24L74.14,101.2L75.01,102.89L77.72,102.36L80.53,98.62L81.39,98.44L81.77,96.04L82.66,97.24L83.13,96.53L84,97.64L84.19,98.09L85.71,98.36L86.12,99.56L86.81,98.8L87.01,99.38L89.81,94.4L90.01,94.8L90.39,94.71L91.69,95.96L92.07,95.64L92.26,96.49L92.63,95.16L92.87,95.33L93.2,94.84L93.41,95.29L93.78,96L93.98,93.33L94.39,95.64L94.59,95.29L94.98,93.38L95.24,95.2L95.6,95.6L95.8,95.2L96.19,96.44L97.45,98.98L97.71,100.31L98.32,100.67L98.75,102.36L100.43,102.8L100.86,101.64L101.13,101.07L101.65,102.36L102.45,103.91L102.72,102.93L104.17,97.42L104.71,97.78L106.23,104.89L106.53,103.38L107.03,102.22L107.95,105.02L109.78,113.42L110.18,114.44L110.73,113.51L111.05,114.4L111.68,115.87L113.93,123.73L114.42,123.24L116.83,115.96L117.68,116L118.14,116.53L119.01,115.64L120.84,118.93L121.75,115.91L123.63,111.82L124.56,114.13L125.18,114.98L126.07,117.64L126.62,117.42L127.69,114.67L128.26,116.53L129.38,113.42L129.94,114.62L131.1,115.33L131.85,116.18L132.93,113.51L133.62,113.73L134.87,115.38L136.97,115.96L137.76,116.58L139.24,113.64L140.24,114.22L141.51,113.82L142.28,114.62L144.51,111.33L145.97,111.16L146.7,111.69L147.95,108.89L150.79,94.53L152.06,93.96L154.53,90.93L155.72,89.82L156.94,87.87L158.07,87.82L159.19,87.78L160.23,86.22L162.29,84.62L163.3,85.47L164.34,84.8L165.39,86.84L168.86,93.73L170.06,94.27L173.02,99.56L173.77,102.67L174.22,103.87L175.02,103.82L177.29,94.18L177.68,96.36L178.66,99.69L179.85,94.49L181.28,88.8L181.72,90.53L183.71,100.44L186.28,106.4L186.61,108.13L187.16,106.71L190.2,87.6L190.67,89.29L191.59,88.31L192.03,88.31L192.89,87.78L193.29,89.38L194.07,88.04L194.46,88.09L195.56,89.91L195.93,90.53L196.64,88.18L196.99,89.07L197.34,88.09L198.05,88.31L198.39,88.89L200.06,87.16L200.38,87.47L201.38,86.98L201.71,87.24L202.04,88.27L202.37,87.73L202.7,87.82L203.39,89.96L203.73,90.76L204.1,90.8L204.46,92.31L206.87,98.53L207.33,97.64L207.97,97.91L208.23,95.78L209.54,88.67L209.73,91.56L209.99,89.29L210.16,92L210.41,92.89L211.89,100.31L212.46,100.62L213.07,102.09L213.31,101.29L213.76,99.42L214.46,101.47L215.15,102.27L217.09,107.2L217.58,110L218.48,109.07L219.47,106.8L221.45,106.53L222.45,107.51L223.47,109.51L224.5,108.89L226.51,105.38L227.49,108.27L228.45,108.89L229.41,111.38L230.38,111.2L230.77,115.33L232.51,109.16L232.98,106.04L233.7,101.91L234.39,102.09L235.07,101.69L237.01,98.76L237.65,97.64L240.03,92.49L241.69,91.78L242.77,89.91L243.32,90.98L245,90.13L245.59,92L247.45,94.13L248.09,92.44L248.74,95.47L249.39,94.93L250.04,96.27L250.71,93.2L251.36,94.67L251.97,94.13L252.59,95.11L254.48,95.96L255.09,96.8L257.02,97.42L257.68,98.58L260.26,94.89L260.91,94.93L262.89,94.09L263.58,93.73L264.24,93.47L264.91,91.69L265.57,90.36L266.21,91.87L266.83,92.18L267.04,89.2L267.46,87.64L267.72,92.93L268.08,92.44L268.71,94.62L269.33,97.2L269.99,96.49L270.65,96.44L271.35,97.24L272.78,97.16L273.53,98.98L274.3,100.71L275.1,100.53L275.93,102.76L276.29,101.87L276.8,97.2L277.63,93.73L278.42,94.84L279.3,96.53L280.21,96.4L281.99,90.84L282.27,91.6L282.89,91.69L283.27,96.58L283.84,98.13L284.24,102.8L284.81,104.22L285.23,108.22L287,109.6L288.2,109.16L290.55,106.67L290.94,108.8L292.88,113.6L294.06,115.24L296.44,110.04L297.52,107.42L299.61,114.44L300.59,114.09L303.58,108.93L304.57,110.58L305.58,110.36L306.52,107.51L308.53,110.62L309.95,111.51L310.99,110.22L312.03,110.53L313.03,110.36L314.05,110.98L315.94,106.76L316.94,107.73L318.29,99.02L319.03,102.36L322.27,80L322.61,79.64L323.54,81.02L324.5,79.73L324.99,81.6L325.5,80.62L326.48,78.31L326.94,79.47L327.41,78.36L328.28,77.96L328.76,79.2L329.19,78.49L330.05,79.24L330.46,77.16L331.11,79.29L331.98,82.27L332.83,77.82L334.45,74L335.2,74.4L335.9,77.91L336.58,73.56L337.87,73.07L338.5,75.73L339.74,75.33L340.38,77.11L341.62,77.47L342.25,74.18L343.54,74.13L344.21,76.84L345.62,77.2L348.65,84.13L349.49,78.4L350.38,84.67L350.94,81.64L352.62,88.84L355.88,84.8L356.53,82.4L358.87,90.76L360.19,90.31L361.43,93.73L362.8,93.33L364.12,99.11L367.49,97.96L368.83,100.18L370.24,104.58L371.61,111.16L373,110.27L375.45,108.31L377.54,110.58L379.47,117.42L381.03,117.29L385,107.02L386.16,106.93L388.42,101.73L390.42,102.09L392.74,108.98L394.01,108.8L395.17,110.8L396.16,88.84L397.8,95.91L398.37,93.51L399.07,92.49L399.61,86.36L400.81,72.98L401.25,76.4L401.65,67.29L402.19,71.51L402.48,74.49L403.52,78.84L403.98,79.24L404.61,82.22L405.68,77.73L407.83,82.67L408.48,81.69L409.72,84.31L410.37,84.27L412.44,89.24L413.2,86.31L413.99,96.27L414.7,91.02L415.42,88.18L416.02,78.84L416.56,90.31L417.17,85.73L417.79,85.91L418.41,88.18L419.74,93.78L420.48,94.31L421.88,99.47L422.43,98.76L423.5,99.64L424.32,91.2L425.73,88.8L426.31,93.02L427.17,93.24L427.99,95.11L428.74,93.78L429.54,95.07L431.74,103.51L433.45,105.29L434.62,105.47L435.3,108.13L435.92,108.44L436.48,107.73L437.92,102.04L438.41,95.6L440.66,97.6L441.09,97.16L441.87,99.38L442.52,98.67L443.89,97.2L445.63,100.58L450.3,114.13L451.14,111.82L452.89,113.82L453.75,115.38L454.66,117.91L455.55,111.64L457.3,116.8L457.94,116.13L458.9,105.91L459.48,111.16L460.46,98.62L461.82,104.62L463.55,108.58L464.03,106.84L465.49,109.38L466.83,109.33L469.81,113.16L470.58,112.58L471.33,113.16L472.07,104.93L472.82,111.02L474.93,104.58L476.86,102.49L477.35,97.6L478.59,87.87L478.89,82.8L479.52,75.47L479.81,76L480.36,83.02L483.37,93.73L483.86,91.96L484.34,90.04L484.87,92.71L485.42,87.96L485.99,91.02L489.21,92.62L489.77,96.04L490.63,96.71L492.04,100.22L492.96,95.78L493.65,95.33L495.06,109.64L496.98,108.62L498.09,107.2L498.68,107.96L499.49,103.96L500.14,104.84L503.2,88.4L503.49,88.13L504.51,93.2L504.99,92.71L505.73,88.36L506.63,91.82L507.19,85.6L507.48,93.56L507.81,90.27L508.19,88L508.83,91.6L508.99,91.29L509.44,92.36L509.8,93.11L510.07,97.78L510.81,94.18L511.31,97.16L512.07,99.42L512.63,98.4L513.07,96.8L513.45,96.93L513.85,91.38L514.92,89.96L515.99,93.73L516.81,88.49L519.21,92.18L519.64,92.8L520.21,99.38L521.53,102.22L522.02,99.33L524.22,103.11L525.32,102.09L525.87,97.16L527.36,97.2L529.09,106.36L531.36,109.6L533.88,111.96L534.68,103.24L537.15,107.69L538.8,115.51L539.62,115.42L540.56,112.89L542.15,112.13L544.14,112.09L546.5,112.62L547.14,118.31L550.36,112.67L550.69,109.2L554.27,117.56L555.06,116L557.69,110.84L558.98,116.04L559.92,109.78L562.9,112.49L565.74,115.38L566.68,112.71L566.74,113.07L567.84,112.67L568.13,114.53L569.07,115.47L569.84,113.64L570.39,110.62L570.46,112.98L570.73,110.04L571.05,110.36L571.29,112L571.63,112L571.71,110.93L572.56,107.16L573.16,106.4L573.47,100.49L573.96,100.67L574.62,98.27L574.96,91.11L576.33,84.89L576.41,85.38L576.67,82.93L576.84,82.62L577.51,72.4L577.53,78.22L577.91,77.51L578.15,77.64L578.57,83.29L578.78,83.33L579.03,81.29L580.03,76.84L580.18,78.67L580.34,75.69L580.59,81.64L581.04,81.51L581.08,80.58L582.07,77.16L582.69,79.07L583.83,76.62L584.38,82.13L584.99,79.16L585.87,78.36L586.64,81.07L587.71,83.33L588.9,78.58L589.35,78L589.78,83.82L590.5,81.64L591.7,85.91L594.89,90.84L595.38,94.13L597.05,97.51L597.86,94.71L598.92,98.62L600.4,94.71L602.03,99.64L606.76,96.89L609.42,98.53L610.19,100.36L612.29,107.56L613.78,103.56L614.78,104.8L615.64,98.67L617.02,92.84L618.57,97.38L621.55,103.51L624.92,98.18L626.79,98.98L631.18,113.38L632.04,114.93L633.83,113.2L638.31,106.49L638.79,101.47L642.84,115.38L644.32,104.13L645.15,106.62L645.87,116.27L647.18,115.87L650.48,107.07L655.66,107.07L657.78,108.76L662.89,116.22L665.53,114.84L668.25,115.91L668.95,118.04L669.81,117.11L670.04,116.93L670.25,116.53L670.51,113.33L670.69,116.44L671.24,116.13L671.61,116.31L671.65,114.53L672.16,116.89L672.45,115.91L672.77,116.22L672.94,115.11L673.17,113.82L673.55,110.76L673.73,109.82L675.37,98.49L675.58,98.44L676.23,93.69L676.49,94.4L676.62,94.27L676.91,94.09L677.01,95.91L677.13,94.4L677.6,90.4L677.71,90.98L677.79,88.58L677.87,89.02L678.08,86.49L678.13,84.09L678.18,84.98L678.57,82.09L678.74,82.31L678.83,81.07L679.44,82.93L679.68,82.49L679.87,82.76L680.16,82.13L680.76,84.89L680.84,83.64L681.76,85.16L681.83,84.13L681.91,83.11L682.1,85.51L682.49,83.96L682.61,83.91L683.01,84.13L683.57,80.09L683.69,80.62L683.78,80.31L684.12,80.4L684.68,77.6L684.76,79.33L685.7,76.04L685.78,78.27L685.87,76.49L686.11,77.02" style="fill: rgb(196, 196, 196); fill-opacity: 0.5; stroke-width: 0;"/></g></g><g class="errorbars"/><g class="lines"><path class="js-line" d="M1.35,115.11L3.1,115.87L4.19,113.24L5.86,107.11L6.13,109.33L6.87,108.84L7.38,104.27L9.62,98L10.35,89.82L10.55,89.73L11.18,85.82L11.6,84.31L12.28,86.49L13.7,90.27L14.46,87.96L15.49,90.58L15.94,89.47L16.74,92.09L17.03,89.56L17.81,91.6L18.29,90.76L19.07,90.62L19.36,90.53L20.15,91.6L20.67,93.87L21.52,93.11L23.24,97.78L24.07,97.38L24.39,98L24.78,94.36L25.24,94.13L26.68,101.6L27.02,101.16L27.8,103.24L28.36,105.11L29.2,104.13L29.53,103.64L30.3,101.07L30.8,100.4L31.07,101.6L31.29,99.69L31.6,104.44L31.99,104L32.68,105.78L33.21,108.4L34.03,108.04L35.42,103.16L35.77,103.29L35.95,104.31L36.21,102.58L36.55,104.44L37.15,106.36L39.63,114.89L40.49,112.67L40.81,116.44L41.48,115.51L41.94,117.24L44.69,119.82L44.98,119.64L45.54,119.64L45.94,118.62L46.63,119.91L47.49,119.11L48.57,119.82L48.87,119.24L49.45,118.98L49.87,120.93L50.53,121.51L50.77,120.62L51.41,120.49L51.79,117.78L53.47,106.4L54,106.09L55.02,109.29L55.56,110.53L55.81,110.36L56.29,107.82L57.45,109.38L58.06,108.49L58.41,109.42L59.11,108.93L59.99,109.33L61.18,108.71L62.66,109.11L63.41,107.51L64.5,108.31L65.03,106.53L66.15,105.16L67.09,106.09L68.56,113.24L69.02,116.53L69.9,118.09L70.51,114.27L72.5,101.29L72.99,103.24L74.14,101.2L75.01,102.89L77.72,102.36L80.53,98.62L81.39,98.44L81.77,96.04L82.66,97.24L83.13,96.53L84,97.64L84.19,98.09L85.71,98.36L86.12,99.56L86.81,98.8L87.01,99.38L89.81,94.4L90.01,94.8L90.39,94.71L91.69,95.96L92.07,95.64L92.26,96.49L92.63,95.16L92.87,95.33L93.2,94.84L93.41,95.29L93.78,96L93.98,93.33L94.39,95.64L94.59,95.29L94.98,93.38L95.24,95.2L95.6,95.6L95.8,95.2L96.19,96.44L97.45,98.98L97.71,100.31L98.32,100.67L98.75,102.36L100.43,102.8L100.86,101.64L101.13,101.07L101.65,102.36L102.45,103.91L102.72,102.93L104.17,97.42L104.71,97.78L106.23,104.89L106.53,103.38L107.03,102.22L107.95,105.02L109.78,113.42L110.18,114.44L110.73,113.51L111.05,114.4L111.68,115.87L113.93,123.73L114.42,123.24L116.83,115.96L117.68,116L118.14,116.53L119.01,115.64L120.84,118.93L121.75,115.91L123.63,111.82L124.56,114.13L125.18,114.98L126.07,117.64L126.62,117.42L127.69,114.67L128.26,116.53L129.38,113.42L129.94,114.62L131.1,115.33L131.85,116.18L132.93,113.51L133.62,113.73L134.87,115.38L136.97,115.96L137.76,116.58L139.24,113.64L140.24,114.22L141.51,113.82L142.28,114.62L144.51,111.33L145.97,111.16L146.7,111.69L147.95,108.89L150.79,94.53L152.06,93.96L154.53,90.93L155.72,89.82L156.94,87.87L158.07,87.82L159.19,87.78L160.23,86.22L162.29,84.62L163.3,85.47L164.34,84.8L165.39,86.84L168.86,93.73L170.06,94.27L173.02,99.56L173.77,102.67L174.22,103.87L175.02,103.82L177.29,94.18L177.68,96.36L178.66,99.69L179.85,94.49L181.28,88.8L181.72,90.53L183.71,100.44L186.28,106.4L186.61,108.13L187.16,106.71L190.2,87.6L190.67,89.29L191.59,88.31L192.03,88.31L192.89,87.78L193.29,89.38L194.07,88.04L194.46,88.09L195.56,89.91L195.93,90.53L196.64,88.18L196.99,89.07L197.34,88.09L198.05,88.31L198.39,88.89L200.06,87.16L200.38,87.47L201.38,86.98L201.71,87.24L202.04,88.27L202.37,87.73L202.7,87.82L203.39,89.96L203.73,90.76L204.1,90.8L204.46,92.31L206.87,98.53L207.33,97.64L207.97,97.91L208.23,95.78L209.54,88.67L209.73,91.56L209.99,89.29L210.16,92L210.41,92.89L211.89,100.31L212.46,100.62L213.07,102.09L213.31,101.29L213.76,99.42L214.46,101.47L215.15,102.27L217.09,107.2L217.58,110L218.48,109.07L219.47,106.8L221.45,106.53L222.45,107.51L223.47,109.51L224.5,108.89L226.51,105.38L227.49,108.27L228.45,108.89L229.41,111.38L230.38,111.2L230.77,115.33L232.51,109.16L232.98,106.04L233.7,101.91L234.39,102.09L235.07,101.69L237.01,98.76L237.65,97.64L240.03,92.49L241.69,91.78L242.77,89.91L243.32,90.98L245,90.13L245.59,92L247.45,94.13L248.09,92.44L248.74,95.47L249.39,94.93L250.04,96.27L250.71,93.2L251.36,94.67L251.97,94.13L252.59,95.11L254.48,95.96L255.09,96.8L257.02,97.42L257.68,98.58L260.26,94.89L260.91,94.93L262.89,94.09L263.58,93.73L264.24,93.47L264.91,91.69L265.57,90.36L266.21,91.87L266.83,92.18L267.04,89.2L267.46,87.64L267.72,92.93L268.08,92.44L268.71,94.62L269.33,97.2L269.99,96.49L270.65,96.44L271.35,97.24L272.78,97.16L273.53,98.98L274.3,100.71L275.1,100.53L275.93,102.76L276.29,101.87L276.8,97.2L277.63,93.73L278.42,94.84L279.3,96.53L280.21,96.4L281.99,90.84L282.27,91.6L282.89,91.69L283.27,96.58L283.84,98.13L284.24,102.8L284.81,104.22L285.23,108.22L287,109.6L288.2,109.16L290.55,106.67L290.94,108.8L292.88,113.6L294.06,115.24L296.44,110.04L297.52,107.42L299.61,114.44L300.59,114.09L303.58,108.93L304.57,110.58L305.58,110.36L306.52,107.51L308.53,110.62L309.95,111.51L310.99,110.22L312.03,110.53L313.03,110.36L314.05,110.98L315.94,106.76L316.94,107.73L318.29,99.02L319.03,102.36L322.27,80L322.61,79.64L323.54,81.02L324.5,79.73L324.99,81.6L325.5,80.62L326.48,78.31L326.94,79.47L327.41,78.36L328.28,77.96L328.76,79.2L329.19,78.49L330.05,79.24L330.46,77.16L331.11,79.29L331.98,82.27L332.83,77.82L334.45,74L335.2,74.4L335.9,77.91L336.58,73.56L337.87,73.07L338.5,75.73L339.74,75.33L340.38,77.11L341.62,77.47L342.25,74.18L343.54,74.13L344.21,76.84L345.62,77.2L348.65,84.13L349.49,78.4L350.38,84.67L350.94,81.64L352.62,88.84L355.88,84.8L356.53,82.4L358.87,90.76L360.19,90.31L361.43,93.73L362.8,93.33L364.12,99.11L367.49,97.96L368.83,100.18L370.24,104.58L371.61,111.16L373,110.27L375.45,108.31L377.54,110.58L379.47,117.42L381.03,117.29L385,107.02L386.16,106.93L388.42,101.73L390.42,102.09L392.74,108.98L394.01,108.8L395.17,110.8L396.16,88.84L397.8,95.91L398.37,93.51L399.07,92.49L399.61,86.36L400.81,72.98L401.25,76.4L401.65,67.29L402.19,71.51L402.48,74.49L403.52,78.84L403.98,79.24L404.61,82.22L405.68,77.73L407.83,82.67L408.48,81.69L409.72,84.31L410.37,84.27L412.44,89.24L413.2,86.31L413.99,96.27L414.7,91.02L415.42,88.18L416.02,78.84L416.56,90.31L417.17,85.73L417.79,85.91L418.41,88.18L419.74,93.78L420.48,94.31L421.88,99.47L422.43,98.76L423.5,99.64L424.32,91.2L425.73,88.8L426.31,93.02L427.17,93.24L427.99,95.11L428.74,93.78L429.54,95.07L431.74,103.51L433.45,105.29L434.62,105.47L435.3,108.13L435.92,108.44L436.48,107.73L437.92,102.04L438.41,95.6L440.66,97.6L441.09,97.16L441.87,99.38L442.52,98.67L443.89,97.2L445.63,100.58L450.3,114.13L451.14,111.82L452.89,113.82L453.75,115.38L454.66,117.91L455.55,111.64L457.3,116.8L457.94,116.13L458.9,105.91L459.48,111.16L460.46,98.62L461.82,104.62L463.55,108.58L464.03,106.84L465.49,109.38L466.83,109.33L469.81,113.16L470.58,112.58L471.33,113.16L472.07,104.93L472.82,111.02L474.93,104.58L476.86,102.49L477.35,97.6L478.59,87.87L478.89,82.8L479.52,75.47L479.81,76L480.36,83.02L483.37,93.73L483.86,91.96L484.34,90.04L484.87,92.71L485.42,87.96L485.99,91.02L489.21,92.62L489.77,96.04L490.63,96.71L492.04,100.22L492.96,95.78L493.65,95.33L495.06,109.64L496.98,108.62L498.09,107.2L498.68,107.96L499.49,103.96L500.14,104.84L503.2,88.4L503.49,88.13L504.51,93.2L504.99,92.71L505.73,88.36L506.63,91.82L507.19,85.6L507.48,93.56L507.81,90.27L508.19,88L508.83,91.6L508.99,91.29L509.44,92.36L509.8,93.11L510.07,97.78L510.81,94.18L511.31,97.16L512.07,99.42L512.63,98.4L513.07,96.8L513.45,96.93L513.85,91.38L514.92,89.96L515.99,93.73L516.81,88.49L519.21,92.18L519.64,92.8L520.21,99.38L521.53,102.22L522.02,99.33L524.22,103.11L525.32,102.09L525.87,97.16L527.36,97.2L529.09,106.36L531.36,109.6L533.88,111.96L534.68,103.24L537.15,107.69L538.8,115.51L539.62,115.42L540.56,112.89L542.15,112.13L544.14,112.09L546.5,112.62L547.14,118.31L550.36,112.67L550.69,109.2L554.27,117.56L555.06,116L557.69,110.84L558.98,116.04L559.92,109.78L562.9,112.49L565.74,115.38L566.68,112.71L566.74,113.07L567.84,112.67L568.13,114.53L569.07,115.47L569.84,113.64L570.39,110.62L570.46,112.98L570.73,110.04L571.05,110.36L571.29,112L571.63,112L571.71,110.93L572.56,107.16L573.16,106.4L573.47,100.49L573.96,100.67L574.62,98.27L574.96,91.11L576.33,84.89L576.41,85.38L576.67,82.93L576.84,82.62L577.51,72.4L577.53,78.22L577.91,77.51L578.15,77.64L578.57,83.29L578.78,83.33L579.03,81.29L580.03,76.84L580.18,78.67L580.34,75.69L580.59,81.64L581.04,81.51L581.08,80.58L582.07,77.16L582.69,79.07L583.83,76.62L584.38,82.13L584.99,79.16L585.87,78.36L586.64,81.07L587.71,83.33L588.9,78.58L589.35,78L589.78,83.82L590.5,81.64L591.7,85.91L594.89,90.84L595.38,94.13L597.05,97.51L597.86,94.71L598.92,98.62L600.4,94.71L602.03,99.64L606.76,96.89L609.42,98.53L610.19,100.36L612.29,107.56L613.78,103.56L614.78,104.8L615.64,98.67L617.02,92.84L618.57,97.38L621.55,103.51L624.92,98.18L626.79,98.98L631.18,113.38L632.04,114.93L633.83,113.2L638.31,106.49L638.79,101.47L642.84,115.38L644.32,104.13L645.15,106.62L645.87,116.27L647.18,115.87L650.48,107.07L655.66,107.07L657.78,108.76L662.89,116.22L665.53,114.84L668.25,115.91L668.95,118.04L669.81,117.11L670.04,116.93L670.25,116.53L670.51,113.33L670.69,116.44L671.24,116.13L671.61,116.31L671.65,114.53L672.16,116.89L672.45,115.91L672.77,116.22L672.94,115.11L673.17,113.82L673.55,110.76L673.73,109.82L675.37,98.49L675.58,98.44L676.23,93.69L676.49,94.4L676.62,94.27L676.91,94.09L677.01,95.91L677.13,94.4L677.6,90.4L677.71,90.98L677.79,88.58L677.87,89.02L678.08,86.49L678.13,84.09L678.18,84.98L678.57,82.09L678.74,82.31L678.83,81.07L679.44,82.93L679.68,82.49L679.87,82.76L680.16,82.13L680.76,84.89L680.84,83.64L681.76,85.16L681.83,84.13L681.91,83.11L682.1,85.51L682.49,83.96L682.61,83.91L683.01,84.13L683.57,80.09L683.69,80.62L683.78,80.31L684.12,80.4L684.68,77.6L684.76,79.33L685.7,76.04L685.78,78.27L685.87,76.49L686.11,77.02" style="vector-effect: non-scaling-stroke; fill: none; stroke: rgb(196, 196, 196); stroke-opacity: 1; stroke-width: 2px; opacity: 1;"/></g><g class="points"/><g class="text"/></g></g></g></g><path class="xlines-above crisp" d="M49,250.5H737.1999999999999" style="fill: none; stroke-width: 1px; stroke: rgb(196, 196, 196); stroke-opacity: 1;"/><path class="ylines-above crisp" d="M49.5,50V250" style="fill: none; stroke-width: 1px; stroke: rgb(196, 196, 196); stroke-opacity: 1;"/><g class="overlines-above"><path class="xy2-x crisp" d="M0,0" style="fill: none;"/><path class="xy2-y crisp" d="M736.6999999999999,50V250" style="fill: none; stroke-width: 1px; stroke: rgb(196, 196, 196); stroke-opacity: 1;"/></g><g class="xaxislayer-above"><path class="xtick ticks crisp" d="M0,251v5" transform="translate(134.37,0)" style="stroke: rgb(196, 196, 196); stroke-opacity: 1; stroke-width: 1px;"/><path class="xtick ticks crisp" d="M0,251v5" transform="translate(220.34,0)" style="stroke: rgb(196, 196, 196); stroke-opacity: 1; stroke-width: 1px;"/><path class="xtick ticks crisp" d="M0,251v5" transform="translate(306.32,0)" style="stroke: rgb(196, 196, 196); stroke-opacity: 1; stroke-width: 1px;"/><path class="xtick ticks crisp" d="M0,251v5" transform="translate(392.29,0)" style="stroke: rgb(196, 196, 196); stroke-opacity: 1; stroke-width: 1px;"/><path class="xtick ticks crisp" d="M0,251v5" transform="translate(478.27,0)" style="stroke: rgb(196, 196, 196); stroke-opacity: 1; stroke-width: 1px;"/><path class="xtick ticks crisp" d="M0,251v5" transform="translate(564.25,0)" style="stroke: rgb(196, 196, 196); stroke-opacity: 1; stroke-width: 1px;"/><path class="xtick ticks crisp" d="M0,251v5" transform="translate(650.22,0)" style="stroke: rgb(196, 196, 196); stroke-opacity: 1; stroke-width: 1px;"/><path class="xtick ticks crisp" d="M0,251v5" transform="translate(736.2,0)" style="stroke: rgb(196, 196, 196); stroke-opacity: 1; stroke-width: 1px;"/><g class="xtick"><text text-anchor="middle" x="0" y="270.4" transform="translate(134.37,0)" style="font-family: Menlo; font-size: 12px; fill: rgb(196, 196, 196); fill-opacity: 1; white-space: pre;">−700k</text></g><g class="xtick"><text text-anchor="middle" x="0" y="270.4" transform="translate(220.34,0)" style="font-family: Menlo; font-size: 12px; fill: rgb(196, 196, 196); fill-opacity: 1; white-space: pre;">−600k</text></g><g class="xtick"><text text-anchor="middle" x="0" y="270.4" transform="translate(306.32,0)" style="font-family: Menlo; font-size: 12px; fill: rgb(196, 196, 196); fill-opacity: 1; white-space: pre;">−500k</text></g><g class="xtick"><text text-anchor="middle" x="0" y="270.4" transform="translate(392.29,0)" style="font-family: Menlo; font-size: 12px; fill: rgb(196, 196, 196); fill-opacity: 1; white-space: pre;">−400k</text></g><g class="xtick"><text text-anchor="middle" x="0" y="270.4" transform="translate(478.27,0)" style="font-family: Menlo; font-size: 12px; fill: rgb(196, 196, 196); fill-opacity: 1; white-space: pre;">−300k</text></g><g class="xtick"><text text-anchor="middle" x="0" y="270.4" transform="translate(564.25,0)" style="font-family: Menlo; font-size: 12px; fill: rgb(196, 196, 196); fill-opacity: 1; white-space: pre;">−200k</text></g><g class="xtick"><text text-anchor="middle" x="0" y="270.4" transform="translate(650.22,0)" style="font-family: Menlo; font-size: 12px; fill: rgb(196, 196, 196); fill-opacity: 1; white-space: pre;">−100k</text></g><g class="xtick"><text text-anchor="middle" x="0" y="270.4" transform="translate(736.2,0)" style="font-family: Menlo; font-size: 12px; fill: rgb(196, 196, 196); fill-opacity: 1; white-space: pre;">0</text></g></g><g class="yaxislayer-above"><path class="ytick ticks crisp" d="M49,0h-5" transform="translate(0,250)" style="stroke: rgb(196, 196, 196); stroke-opacity: 1; stroke-width: 1px;"/><path class="ytick ticks crisp" d="M49,0h-5" transform="translate(0,200)" style="stroke: rgb(196, 196, 196); stroke-opacity: 1; stroke-width: 1px;"/><path class="ytick ticks crisp" d="M49,0h-5" transform="translate(0,150)" style="stroke: rgb(196, 196, 196); stroke-opacity: 1; stroke-width: 1px;"/><path class="ytick ticks crisp" d="M49,0h-5" transform="translate(0,100)" style="stroke: rgb(196, 196, 196); stroke-opacity: 1; stroke-width: 1px;"/><path class="ytick ticks crisp" d="M49,0h-5" transform="translate(0,50)" style="stroke: rgb(196, 196, 196); stroke-opacity: 1; stroke-width: 1px;"/><g class="ytick"><text text-anchor="end" x="41.6" y="4.199999999999999" transform="translate(0,250)" style="font-family: Menlo; font-size: 12px; fill: rgb(196, 196, 196); fill-opacity: 1; white-space: pre;">−6</text></g><g class="ytick"><text text-anchor="end" x="41.6" y="4.199999999999999" transform="translate(0,200)" style="font-family: Menlo; font-size: 12px; fill: rgb(196, 196, 196); fill-opacity: 1; white-space: pre;">−4</text></g><g class="ytick"><text text-anchor="end" x="41.6" y="4.199999999999999" transform="translate(0,150)" style="font-family: Menlo; font-size: 12px; fill: rgb(196, 196, 196); fill-opacity: 1; white-space: pre;">−2</text></g><g class="ytick"><text text-anchor="end" x="41.6" y="4.199999999999999" transform="translate(0,100)" style="font-family: Menlo; font-size: 12px; fill: rgb(196, 196, 196); fill-opacity: 1; white-space: pre;">0</text></g><g class="ytick"><text text-anchor="end" x="41.6" y="4.199999999999999" transform="translate(0,50)" style="font-family: Menlo; font-size: 12px; fill: rgb(196, 196, 196); fill-opacity: 1; white-space: pre;">2</text></g></g><g class="overaxes-above"><g class="xy2-x"/><g class="xy2-y"><path class="y2tick ticks crisp" d="M737.1999999999999,0h5" transform="translate(0,250)" style="stroke: rgb(196, 196, 196); stroke-opacity: 1; stroke-width: 1px;"/><path class="y2tick ticks crisp" d="M737.1999999999999,0h5" transform="translate(0,205.56)" style="stroke: rgb(196, 196, 196); stroke-opacity: 1; stroke-width: 1px;"/><path class="y2tick ticks crisp" d="M737.1999999999999,0h5" transform="translate(0,161.11)" style="stroke: rgb(196, 196, 196); stroke-opacity: 1; stroke-width: 1px;"/><path class="y2tick ticks crisp" d="M737.1999999999999,0h5" transform="translate(0,116.67)" style="stroke: rgb(196, 196, 196); stroke-opacity: 1; stroke-width: 1px;"/><path class="y2tick ticks crisp" d="M737.1999999999999,0h5" transform="translate(0,72.22)" style="stroke: rgb(196, 196, 196); stroke-opacity: 1; stroke-width: 1px;"/><g class="y2tick"><text text-anchor="start" x="744.5999999999999" y="4.199999999999999" transform="translate(0,250)" style="font-family: Menlo; font-size: 12px; fill: rgb(196, 196, 196); fill-opacity: 1; white-space: pre;">0</text></g><g class="y2tick"><text text-anchor="start" x="744.5999999999999" y="4.199999999999999" transform="translate(0,205.56)" style="font-family: Menlo; font-size: 12px; fill: rgb(196, 196, 196); fill-opacity: 1; white-space: pre;">100</text></g><g class="y2tick"><text text-anchor="start" x="744.5999999999999" y="4.199999999999999" transform="translate(0,161.11)" style="font-family: Menlo; font-size: 12px; fill: rgb(196, 196, 196); fill-opacity: 1; white-space: pre;">200</text></g><g class="y2tick"><text text-anchor="start" x="744.5999999999999" y="4.199999999999999" transform="translate(0,116.67)" style="font-family: Menlo; font-size: 12px; fill: rgb(196, 196, 196); fill-opacity: 1; white-space: pre;">300</text></g><g class="y2tick"><text text-anchor="start" x="744.5999999999999" y="4.199999999999999" transform="translate(0,72.22)" style="font-family: Menlo; font-size: 12px; fill: rgb(196, 196, 196); fill-opacity: 1; white-space: pre;">400</text></g></g></g></g><g class="subplot xy2"/></g><g class="polarlayer"/><g class="ternarylayer"/><g class="geolayer"/><g class="funnelarealayer"/><g class="pielayer"/><g class="treemaplayer"/><g class="sunburstlayer"/><g class="glimages"/><defs id="topdefs-665deb"><g class="clips"/></defs><g class="layer-above"><g class="imagelayer"/><g class="shapelayer"><path data-index="0" fill-rule="evenodd" d="M731.9,250H736.2V50H731.9Z" clip-path="url('#clip665debx')" style="opacity: 0.25; stroke: rgb(0, 0, 0); stroke-opacity: 0; fill: rgb(96, 195, 155); fill-opacity: 1; stroke-width: 0px;"/></g></g><g class="infolayer"><g class="g-gtitle"><text class="gtitle" x="0" y="6" text-anchor="start" dy="0.7em" style="font-family: Menlo; font-size: 10px; fill: rgb(35, 35, 35); opacity: 1; font-weight: normal; white-space: pre;">Last 800,000 Years | Global Temperature and CO2</text></g><g class="g-xtitle"><text class="xtitle" x="393.09999999999997" y="290" text-anchor="middle" style="font-family: Menlo; font-size: 10px; fill: rgb(196, 196, 196); opacity: 1; font-weight: normal; white-space: pre;">Time (Thousand of Years Before Present)</text></g><g class="g-ytitle"><text class="ytitle" transform="rotate(-90,20,150)" x="20" y="150" text-anchor="middle" style="font-family: Menlo; font-size: 10px; fill: rgb(53, 155, 208); opacity: 1; font-weight: normal; white-space: pre;">Temperature (ºC)</text></g><g class="g-y2title" transform="translate(6.5810546875,0)"><text class="y2title" transform="rotate(-90,771.1999999999999,150)" x="771.1999999999999" y="150" text-anchor="middle" style="font-family: Menlo; font-size: 10px; fill: rgb(196, 196, 196); opacity: 1; font-weight: normal; white-space: pre;">CO2 (ppm)</text></g><g class="annotation" data-index="0" style="opacity: 1;"><g class="annotation-text-g" transform="rotate(0,690.7,57.5)"><g class="cursor-pointer" transform="translate(645, 50)"><rect class="bg" x="0.5" y="0.5" width="90" height="14" style="stroke-width: 1px; stroke: rgb(0, 0, 0); stroke-opacity: 0; fill: rgb(0, 0, 0); fill-opacity: 0;"/><text class="annotation-text" text-anchor="middle" x="45.359375" y="10.5" style="font-family: Menlo; font-size: 9px; fill: rgb(35, 35, 35); fill-opacity: 1; white-space: pre;">Last 5,000 Years</text></g></g></g></g></svg>