<svg class="main-svg" xmlns="http://www.w3.org/2000/svg" xmlns:xlink="http://www.w3.org/1999/xlink" width="800" height="300" style="" viewBox="0 0 800 300"><rect x="0" y="0" width="800" height="300" style="fill: rgb(255, 255, 255); fill-opacity: 1;"/><defs id="defs-d8fb40"><g class="clips"><clipPath id="clipd8fb40xyplot" class="plotclip"><rect width="700" height="200"/></clipPath><clipPath class="axesclip" id="clipd8fb40x"><rect x="50" y="0" width="700" height="300"/></clipPath><clipPath class="axesclip" id="clipd8fb40y"><rect x="0" y="50" width="800" height="200"/></clipPath><clipPath class="axesclip" id="clipd8fb40xy"><rect x="50" y="50" width="700" height="200"/></clipPath></g><g class="gradients"/></defs><g class="bglayer"/><g class="layer-below"><g class="imagelayer"/><g class="shapelayer"/></g><g class="cartesianlayer"><g class="subplot xy"><g class="layer-subplot"><g class="shapelayer"/><g class="imagelayer"/></g><g class="gridlayer"><g class="x"><path class="xgrid crisp" transform="translate(181.81,0)" d="M0,50v200" style="stroke: rgb(238, 238, 238); stroke-opacity: 1; stroke-width: 1px;"/><path class="xgrid crisp" transform="translate(320.56,0)" d="M0,50v200" style="stroke: rgb(238, 238, 238); stroke-opacity: 1; stroke-width: 1px;"/><path class="xgrid crisp" transform="translate(459.32,0)" d="M0,50v200" style="stroke: rgb(238, 238, 238); stroke-opacity: 1; stroke-width: 1px;"/><path class="xgrid crisp" transform="translate(598.07,0)" d="M0,50v200" style="stroke: rgb(238, 238, 238); stroke-opacity: 1; stroke-width: 1px;"/><path class="xgrid crisp" transform="translate(736.82,0)" d="M0,50v200" style="stroke: rgb(238, 238, 238); stroke-opacity: 1; stroke-width: 1px;"/></g><g class="y"><path class="ygrid crisp" transform="translate(0,210)" d="M50,0h700" style="stroke: rgb(238, 238, 238); stroke-opacity: 1; stroke-width: 1px;"/><path class="ygrid crisp" transform="translate(0,170)" d="M50,0h700" style="stroke: rgb(238, 238, 238); stroke-opacity: 1; stroke-width: 1px;"/><path class="ygrid crisp" transform="translate(0,130)" d="M50,0h700" style="stroke: rgb(238, 238, 238); stroke-opacity: 1; stroke-width: 1px;"/><path class="ygrid crisp" transform="translate(0,90)" d="M50,0h700" style="stroke: rgb(238, 238, 238); stroke-opacity: 1; stroke-width: 1px;"/></g></g><g class="zerolinelayer"/><path class="xlines-below"/><path class="ylines-below"/><g class="overlines-below"/><g class="xaxislayer-below"/><g class="yaxislayer-below"/><g class="overaxes-below"/><g class="plot" transform="translate(50, 50)" clip-path="url('#clipd8fb40xyplot')"><g class="scatterlayer mlayer"><g class="trace scatter trace848735" style="stroke-miterlimit: 2;"><g class="fills"><g><path class="js-fill" d="M700,360L0,360L0,136.4L52.03,134.48L55.5,134.32L104.06,132.8L107.53,132.72L138.75,133.44L142.22,133.6L173.44,134.4L176.91,134.32L225.47,133.68L228.94,133.84L267.1,135.76L270.56,135.76L312.19,135.52L315.66,135.52L329.53,134.96L333,134.72L360.75,133.44L364.22,133.44L385.03,134.56L388.5,135.04L416.25,139.6L419.72,139.76L437.07,139.12L440.54,138.96L496.04,138.4L499.5,138.4L516.85,138.24L520.32,137.92L534.19,135.92L537.66,135.36L551.54,133.28L555,132.96L589.69,130.96L593.16,130.24L603.57,127.36L607.04,126.16L627.85,118.8L631.32,117.44L645.19,112.56L648.66,111.6L655.6,108.72L659.07,106.48L666.01,100.24L669.47,96.48L676.41,83.1L677.11,82.06L680.57,75.51L681.27,74.84L682.66,72.94L683.35,71.34L693.06,50.06L693.76,48.08L696.53,41.09L697.22,39.34L700,30.86" style="fill: rgb(196, 196, 196); fill-opacity: 0.5; stroke-width: 0;"/></g></g><g class="errorbars"/><g class="lines"><path class="js-line" d="M0,136.4L52.03,134.48L55.5,134.32L104.06,132.8L107.53,132.72L138.75,133.44L142.22,133.6L173.44,134.4L176.91,134.32L225.47,133.68L228.94,133.84L267.1,135.76L270.56,135.76L312.19,135.52L315.66,135.52L329.53,134.96L333,134.72L360.75,133.44L364.22,133.44L385.03,134.56L388.5,135.04L416.25,139.6L419.72,139.76L437.07,139.12L440.54,138.96L496.04,138.4L499.5,138.4L516.85,138.24L520.32,137.92L534.19,135.92L537.66,135.36L551.54,133.28L555,132.96L589.69,130.96L593.16,130.24L603.57,127.36L607.04,126.16L627.85,118.8L631.32,117.44L645.19,112.56L648.66,111.6L655.6,108.72L659.07,106.48L666.01,100.24L669.47,96.48L676.41,83.1L677.11,82.06L680.57,75.51L681.27,74.84L682.66,72.94L683.35,71.34L693.06,50.06L693.76,48.08L696.53,41.09L697.22,39.34L700,30.86" style="vector-effect: non-scaling-stroke; fill: none; stroke: rgb(196, 196, 196); stroke-opacity: 1; stroke-width: 2px; opacity: 1;"/></g><g class="points"/><g class="text"/></g><g class="trace scatter tracede7bfe" style="stroke-miterlimit: 2; opacity: 1;"><g class="fills"/><g class="errorbars"/><g class="lines"><path class="js-line" d="M0,153.22L700,96.22" style="vector-effect: non-scaling-stroke; fill: none; stroke: rgb(53, 155, 208); stroke-opacity: 1; stroke-width: 2px; opacity: 1;"/></g><g class="points"/><g class="text"/></g></g></g><g class="overplot"/><path class="xlines-above crisp" style="fill: none; stroke-width: 1px; stroke: rgb(196, 196, 196); stroke-opacity: 1;" d="M49,250.5H750"/><path class="ylines-above crisp" style="fill: none; stroke-width: 1px; stroke: rgb(196, 196, 196); stroke-opacity: 1;" d="M49.5,50V250"/><g class="overlines-above"/><g class="xaxislayer-above"><path class="xtick ticks crisp" d="M0,251v5" transform="translate(181.81,0)" style="stroke: rgb(196, 196, 196); stroke-opacity: 1; stroke-width: 1px;"/><path class="xtick ticks crisp" d="M0,251v5" transform="translate(320.56,0)" style="stroke: rgb(196, 196, 196); stroke-opacity: 1; stroke-width: 1px;"/><path class="xtick ticks crisp" d="M0,251v5" transform="translate(459.32,0)" style="stroke: rgb(196, 196, 196); stroke-opacity: 1; stroke-width: 1px;"/><path class="xtick ticks crisp" d="M0,251v5" transform="translate(598.07,0)" style="stroke: rgb(196, 196, 196); stroke-opacity: 1; stroke-width: 1px;"/><path class="xtick ticks crisp" d="M0,251v5" transform="translate(736.82,0)" style="stroke: rgb(196, 196, 196); stroke-opacity: 1; stroke-width: 1px;"/><g class="xtick"><text text-anchor="middle" x="0" y="270.4" transform="translate(181.81,0)" style="font-family: Menlo; font-size: 12px; fill: rgb(196, 196, 196); fill-opacity: 1; white-space: pre;">1200</text></g><g class="xtick"><text text-anchor="middle" x="0" y="270.4" transform="translate(320.56,0)" style="font-family: Menlo; font-size: 12px; fill: rgb(196, 196, 196); fill-opacity: 1; white-space: pre;">1400</text></g><g class="xtick"><text text-anchor="middle" x="0" y="270.4" transform="translate(459.32,0)" style="font-family: Menlo; font-size: 12px; fill: rgb(196, 196, 196); fill-opacity: 1; white-space: pre;">1600</text></g><g class="xtick"><text text-anchor="middle" x="0" y="270.4" transform="translate(598.07,0)" style="font-family: Menlo; font-size: 12px; fill: rgb(196, 196, 196); fill-opacity: 1; white-space: pre;">1800</text></g><g class="xtick"><text text-anchor="middle" x="0" y="270.4" transform="translate(736.82,0)" style="font-family: Menlo; font-size: 12px; fill: rgb(196, 196, 196); fill-opacity: 1; white-space: pre;">2000</text></g></g><g class="yaxislayer-above"><path class="ytick ticks crisp" d="M49,0h-5" transform="translate(0,250)" style="stroke: rgb(196, 196, 196); stroke-opacity: 1; stroke-width: 1px;"/><path class="ytick ticks crisp" d="M49,0h-5" transform="translate(0,210)" style="stroke: rgb(196, 196, 196); stroke-opacity: 1; stroke-width: 1px;"/><path class="ytick ticks crisp" d="M49,0h-5" transform="translate(0,170)" style="stroke: rgb(196, 196, 196); stroke-opacity: 1; stroke-width: 1px;"/><path class="ytick ticks crisp" d="M49,0h-5" transform="translate(0,130)" style="stroke: rgb(196, 196, 196); stroke-opacity: 1; stroke-width: 1px;"/><path class="ytick ticks crisp" d="M49,0h-5" transform="translate(0,90)" style="stroke: rgb(196, 196, 196); stroke-opacity: 1; stroke-width: 1px;"/><path class="ytick ticks crisp" d="M49,0h-5" transform="translate(0,50)" style="stroke: rgb(196, 196, 196); stroke-opacity: 1; stroke-width: 1px;"/><g class="ytick"><text text-anchor="end" x="41.6" y="4.199999999999999" transform="translate(0,250)" style="font-family: Menlo; font-size: 12px; fill: rgb(196, 196, 196); fill-opacity: 1; white-space: pre;">200</text></g><g class="ytick"><text text-anchor="end" x="41.6" y="4.199999999999999" transform="translate(0,210)" style="font-family: Menlo; font-size: 12px; fill: rgb(196, 196, 196); fill-opacity: 1; white-space: pre;">250</text></g><g class="ytick"><text text-anchor="end" x="41.6" y="4.199999999999999" transform="translate(0,170)" style="font-family: Menlo; font-size: 12px; fill: rgb(196, 196, 196); fill-opacity: 1; white-space: pre;">300</text></g><g class="ytick"><text text-anchor="end" x="41.6" y="4.199999999999999" transform="translate(0,130)" style="font-family: Menlo; font-size: 12px; fill: rgb(196, 196, 196); fill-opacity: 1; white-space: pre;">350</text></g><g class="ytick"><text text-anchor="end" x="41.6" y="4.199999999999999" transform="translate(0,90)" style="font-family: Menlo; font-size: 12px; fill: rgb(196, 196, 196); fill-opacity: 1; white-space: pre;">400</text></g><g class="ytick"><text text-anchor="end" x="41.6" y="4.199999999999999" transform="translate(0,50)" style="font-family: Menlo; font-size: 12px; fill: rgb(196, 196, 196); fill-opacity: 1; white-space: pre;">450</text></g></g><g class="overaxes-above"/></g></g><g class="polarlayer"/><g class="ternarylayer"/><g class="geolayer"/><g class="funnelarealayer"/><g class="pielayer"/><g class="treemaplayer"/><g class="sunburstlayer"/><g class="glimages"/><defs id="topdefs-d8fb40"><g class="clips"/></defs><g class="layer-above"><g class="imagelayer"/><g class="shapelayer"><path data-index="0" fill-rule="evenodd" d="M625.82,250H750V50H625.82Z" clip-path="url('#clipd8fb40x')" style="opacity: 0.25; stroke: rgb(0, 0, 0); stroke-opacity: 0; fill: rgb(96, 195, 155); fill-opacity: 1; stroke-width: 0px;"/><path data-index="1" fill-rule="evenodd" d="M50,226.11L750,226.11" clip-path="url('#clipd8fb40y')" style="opacity: 1; stroke: rgb(199, 71, 63); stroke-opacity: 1; fill: rgb(0, 0, 0); fill-opacity: 0; stroke-dasharray: 3px, 3px; stroke-width: 1px;"/></g></g><g class="infolayer"><g class="g-gtitle"><text class="gtitle" x="0" y="6" text-anchor="start" dy="0.7em" style="font-family: Menlo; font-size: 10px; fill: rgb(35, 35, 35); opacity: 1; font-weight: normal; white-space: pre;">Global CO2 1000-2019</text></g><g class="g-xtitle"><text class="xtitle" x="400" y="290" text-anchor="middle" style="font-family: Menlo; font-size: 10px; fill: rgb(196, 196, 196); opacity: 1; font-weight: normal; white-space: pre;">Year</text></g><g class="g-ytitle" transform="translate(-4.578125,0)"><text class="ytitle" transform="rotate(-90,20,150)" x="20" y="150" text-anchor="middle" style="font-family: Menlo; font-size: 10px; fill: rgb(196, 196, 196); opacity: 1; font-weight: normal; white-space: pre;">CO2 (ppm)</text></g><g class="annotation" data-index="0" style="opacity: 1;"><g class="annotation-text-g" transform="rotate(0,664,57.50000000000001)"><g class="cursor-pointer" transform="translate(578, 50)"><rect class="bg" x="0.5" y="0.5" width="171" height="14" style="stroke-width: 1px; stroke: rgb(0, 0, 0); stroke-opacity: 0; fill: rgb(0, 0, 0); fill-opacity: 0;"/><text class="annotation-text" text-anchor="middle" x="86" y="10.5" style="font-family: Menlo; font-size: 9px; fill: rgb(35, 35, 35); fill-opacity: 1; white-space: pre;">After The Industrial Revolution</text></g></g></g><g class="annotation" data-index="1" style="opacity: 1;"><g class="annotation-text-g" transform="rotate(0,176.5,233.61)"><g class="cursor-pointer" transform="translate(50, 226)"><rect class="bg" x="0.5" y="0.5" width="252" height="14" style="stroke-width: 1px; stroke: rgb(0, 0, 0); stroke-opacity: 0; fill: rgb(0, 0, 0); fill-opacity: 0;"/><text class="annotation-text" text-anchor="middle" x="126.625" y="10.5" style="font-family: Menlo; font-size: 9px; fill: rgb(199, 71, 63); fill-opacity: 1; white-space: pre;">Average Global CO2 Levels (Last 800,000 Years)</text></g></g></g><g class="annotation" data-index="2" style="opacity: 1;"><g class="annotation-text-g" transform="rotate(0,101,57.5)"><g class="cursor-pointer" transform="translate(50, 50)"><rect class="bg" x="0.5" y="0.5" width="101" height="14" style="stroke-width: 1px; stroke: rgb(0, 0, 0); stroke-opacity: 0; fill: rgb(0, 0, 0); fill-opacity: 0;"/><text class="annotation-text" text-anchor="middle" x="50.78125" y="10.5" style="font-family: Menlo; font-size: 9px; fill: rgb(53, 155, 208); fill-opacity: 1; white-space: pre;">trend = 7.06/100yr</text></g></g></g></g></svg>