<svg class="main-svg" xmlns="http://www.w3.org/2000/svg" xmlns:xlink="http://www.w3.org/1999/xlink" width="100" height="25" style="" viewBox="0 0 100 25"><rect x="0" y="0" width="100" height="25" style="fill: rgb(0, 0, 0); fill-opacity: 0;"/><defs id="defs-d9f3d6"><g class="clips"><clipPath id="clipd9f3d6xyplot" class="plotclip"><rect width="100" height="25"/></clipPath><clipPath class="axesclip" id="clipd9f3d6x"><rect x="0" y="0" width="100" height="25"/></clipPath><clipPath class="axesclip" id="clipd9f3d6y"><rect x="0" y="0" width="100" height="25"/></clipPath><clipPath class="axesclip" id="clipd9f3d6xy"><rect x="0" y="0" width="100" height="25"/></clipPath></g><g class="gradients"/></defs><g class="bglayer"><rect class="bg" x="0" y="0" width="100" height="25" style="fill: rgb(0, 0, 0); fill-opacity: 0; stroke-width: 0;"/></g><g class="layer-below"><g class="imagelayer"/><g class="shapelayer"/></g><g class="cartesianlayer"><g class="subplot xy"><g class="layer-subplot"><g class="shapelayer"/><g class="imagelayer"/></g><g class="gridlayer"><g class="x"/><g class="y"/></g><g class="zerolinelayer"/><path class="xlines-below"/><path class="ylines-below"/><g class="overlines-below"/><g class="xaxislayer-below"/><g class="yaxislayer-below"/><g class="overaxes-below"/><g class="plot" transform="translate(0, 0)" clip-path="url('#clipd9f3d6xyplot')"><g class="scatterlayer mlayer"><g class="trace scatter tracebc3a22" style="stroke-miterlimit: 2; opacity: 1;"><g class="fills"/><g class="errorbars"/><g class="lines"><path class="js-line" d="M0,19.14L2.15,18.14L3.23,16.19L4.3,21.06L5.38,16.84L6.45,18.18L7.53,21.41L8.6,19.76L9.68,19.6L10.75,17.91L11.83,17.76L12.9,16.53L13.98,18.41L15.05,19.41L16.13,16.53L19.36,23.75L20.43,15.96L21.5,20.95L22.58,13.77L23.66,17.26L24.73,13.92L26.88,17.65L27.96,17.57L30.11,12.58L31.18,17.53L33.33,15L34.41,12L35.49,13.38L36.56,11.42L38.71,14.65L39.79,14.73L40.86,16.19L41.94,14.3L43.01,13.31L44.09,14.42L46.24,16.03L47.31,16.11L48.39,12L49.46,13.27L50.54,18.11L51.61,13.11L52.69,16.76L53.76,14.57L54.84,13.42L55.91,8.97L56.99,16.84L58.06,18.07L59.14,13.58L60.21,15.65L61.29,19.68L62.37,14.3L63.44,17.38L64.51,13.31L65.59,16.49L66.67,10.96L67.74,6.86L68.82,11.66L70.97,14.96L72.04,9.04L74.19,14.69L75.27,11L76.34,10.96L77.42,8.43L78.5,9.81L79.57,13.27L80.64,10.81L81.72,13.73L82.8,9.31L83.87,13.42L84.95,12.69L86.02,9.31L87.1,11.08L88.17,9.85L89.25,8.47L90.32,9.81L91.4,11.23L92.47,11.12L93.55,10.43L94.62,6.55L95.7,7.09L96.77,9.97L97.85,6.93L98.92,6.86L100,1.25" style="vector-effect: non-scaling-stroke; fill: none; stroke: rgb(255, 255, 255); stroke-opacity: 1; stroke-width: 2px; opacity: 1;"/></g><g class="points"/><g class="text"/></g></g></g><g class="overplot"/><path class="xlines-above crisp" d="M0,0" style="fill: none;"/><path class="ylines-above crisp" d="M0,0" style="fill: none;"/><g class="overlines-above"/><g class="xaxislayer-above"/><g class="yaxislayer-above"/><g class="overaxes-above"/></g></g><g class="polarlayer"/><g class="ternarylayer"/><g class="geolayer"/><g class="funnelarealayer"/><g class="pielayer"/><g class="treemaplayer"/><g class="sunburstlayer"/><g class="glimages"/><defs id="topdefs-d9f3d6"><g class="clips"/></defs><g class="layer-above"><g class="imagelayer"/><g class="shapelayer"/></g><g class="infolayer"><g class="g-gtitle"/></g></svg>