<svg width="760" height="460" viewBox="0 0 760 460" fill="none" xmlns="http://www.w3.org/2000/svg">
<mask id="mask0" mask-type="alpha" maskUnits="userSpaceOnUse" x="0" y="0" width="760" height="460">
<rect width="760" height="460" fill="#C4C4C4"/>
</mask>
<g mask="url(#mask0)">
<path d="M747.13 -25H12.1602C-7.16981 -25 -22.8398 -9.32997 -22.8398 10V451C-22.8398 470.33 -7.16981 486 12.1602 486H747.13C766.46 486 782.13 470.33 782.13 451V10C782.13 -9.32997 766.46 -25 747.13 -25Z" fill="#CBE2FA"/>
</g>
<mask id="mask1" mask-type="alpha" maskUnits="userSpaceOnUse" x="0" y="0" width="760" height="460">
<rect width="760" height="460" fill="#C4C4C4"/>
</mask>
<g mask="url(#mask1)">
<path d="M-22.9468 491.99C55.5112 401.528 182.446 249.203 269.353 242.09C351.522 235.363 423.258 289.855 508.128 261.579C593.173 233.244 642.439 141.225 696.699 86.395C781.799 0.400017 953.984 16.7949 1132.13 26.6599L911.147 -616L-184.4 -440.346L-22.9468 491.99Z" fill="#FFB3B3"/>
<path opacity="0.388" d="M-87.7139 427.4C-21.1139 350.655 48.7329 307.858 122.524 301.832C192.29 296.132 253.208 342.38 325.264 318.4C397.471 294.37 427.13 214.087 473.191 167.573C545.438 94.62 661.008 67.3729 812.266 75.7649L667.339 -426.152L-262.84 -277.258L-87.7139 427.4Z" fill="#0CB2B2"/>
<path d="M-159.036 -293.877L667.339 -426.155L799.739 32.3921C764.016 41.2261 732.831 55.084 707.808 76.147C607.075 83.432 527.764 112.459 473.187 167.57C447.103 193.91 426.282 231.07 400.013 262.726C390.086 260.563 380.202 258.102 370.313 255.64C337.337 247.434 304.288 239.228 269.352 242.089C236.003 244.819 196.757 268.933 156.621 302.726C145.314 301.27 133.889 300.969 122.521 301.826C65.349 306.496 10.5442 333.239 -42.2158 380.741L-159.036 -293.877Z" fill="#0CB2B2"/>
</g>
</svg>
