<svg width="24" height="24" viewBox="0 0 24 24" fill="none" xmlns="http://www.w3.org/2000/svg">
<path d="M23.185 6.16302L20.091 9.26902C19.9043 9.466 19.628 9.55064 19.363 9.49202L15.963 8.71102C15.6764 8.64938 15.3794 8.75276 15.193 8.97902L11.25 13.5" stroke="black" stroke-width="1.5" stroke-linecap="round" stroke-linejoin="round"/>
<path fill-rule="evenodd" clip-rule="evenodd" d="M8.25 15.418V3.75C8.25 2.09315 6.90686 0.75 5.25 0.75C3.59315 0.75 2.25 2.09315 2.25 3.75V15.418C0.716812 16.799 0.321367 19.0468 1.29118 20.8681C2.261 22.6894 4.34672 23.6161 6.34837 23.1148C8.35002 22.6136 9.75295 20.8134 9.75 18.75C9.74728 17.4764 9.20166 16.2644 8.25 15.418V15.418Z" stroke="black" stroke-width="1.5" stroke-linecap="round" stroke-linejoin="round"/>
<path d="M5.25 3.75V17.25" stroke="black" stroke-width="1.5" stroke-linecap="round" stroke-linejoin="round"/>
<path fill-rule="evenodd" clip-rule="evenodd" d="M5.25 20.25C6.07843 20.25 6.75 19.5784 6.75 18.75C6.75 17.9216 6.07843 17.25 5.25 17.25C4.42157 17.25 3.75 17.9216 3.75 18.75C3.75 19.5784 4.42157 20.25 5.25 20.25Z" stroke="black" stroke-width="1.5" stroke-linecap="round" stroke-linejoin="round"/>
<path d="M12.75 18.75H14.25" stroke="black" stroke-width="1.5" stroke-linecap="round" stroke-linejoin="round"/>
<path d="M17.25 18.75H18.75" stroke="black" stroke-width="1.5" stroke-linecap="round" stroke-linejoin="round"/>
<path d="M21.75 18.75H23.25" stroke="black" stroke-width="1.5" stroke-linecap="round" stroke-linejoin="round"/>
</svg>
