<svg width="760" height="460" viewBox="0 0 760 460" fill="none" xmlns="http://www.w3.org/2000/svg">
<mask id="mask0" mask-type="alpha" maskUnits="userSpaceOnUse" x="0" y="0" width="760" height="460">
<rect width="760" height="460" fill="#C4C4C4"/>
</mask>
<g mask="url(#mask0)">
<path d="M747 -26H12C-7.32997 -26 -23 -10.33 -23 9V450C-23 469.33 -7.32997 485 12 485H747C766.33 485 782 469.33 782 450V9C782 -10.33 766.33 -26 747 -26Z" fill="#DDDDF0"/>
</g>
<mask id="mask1" mask-type="alpha" maskUnits="userSpaceOnUse" x="0" y="0" width="760" height="460">
<rect width="760" height="460" fill="#C4C4C4"/>
</mask>
<g mask="url(#mask1)">
<path d="M-177.816 312.89C-160.97 300.359 -142.036 304.971 -119.931 305.331C-59.713 306.313 1.62101 269.822 61.225 216.142C71.768 206.642 82.0779 198.788 92.7379 189.424C112.896 171.715 135.538 156.691 161.895 153.149C183.871 150.196 206.114 156.229 226.703 168.897C234.853 174.802 243.503 179.984 252.554 184.385C291.673 203.399 327.268 203.317 352.542 201.653C401.954 198.4 463.196 183.195 489.078 179.606C555.188 170.437 625.801 175.184 682.87 204.806C706.228 216.93 737.383 237.67 778.561 233.522C817.586 229.592 852.384 204.542 883.008 165.49V490.534C430.836 600.643 -79.782 675.447 -179.075 490.534C-206.021 440.349 -217.99 342.772 -177.816 312.89Z" fill="#F694C5"/>
<path d="M-145.098 150.369C-136.189 144.73 -120.721 132.461 -106.088 125.169C-88.3912 116.452 -69.1476 111.314 -49.4609 110.051C-4.39792 107.543 31.5951 131.371 72.5491 163.226C102.814 186.766 146.032 225.826 150.623 230.998C159.531 241.032 191.308 267.37 218.523 272.834C267.303 282.634 313.523 238.674 332.408 220.55C392.391 162.978 468.708 89.714 540.724 43.278C623.809 -10.295 699.377 -25.848 747.1 -26.014C775.475 -26.114 801.336 -24.2701 824.246 -18.6141C838.526 -15.0861 864.305 -7.44407 881.746 2.95793C982.102 62.8029 992.586 326.411 881.746 488.004C664.158 805.222 -47.335 764.72 -195.438 488.004C-257.375 372.278 -228.838 200.848 -166.495 162.96C-163.304 161.03 -152.29 154.923 -145.098 150.369Z" fill="#FF7568"/>
<path d="M-179.075 490.531C-206.021 440.349 -217.985 342.772 -177.816 312.89C-160.97 300.359 -142.037 304.972 -119.931 305.332C-59.7128 306.313 1.62122 269.822 61.2252 216.142C71.7682 206.648 82.0771 198.789 92.7391 189.424C94.6585 187.738 96.6001 186.079 98.5641 184.448C123.128 205.2 147.258 227.208 150.625 231C159.533 241.034 191.309 267.371 218.525 272.835C267.305 282.635 313.525 238.676 332.41 220.552C338.796 214.424 345.358 208.134 352.098 201.682L352.543 201.653C401.956 198.4 463.197 183.195 489.08 179.606C555.19 170.437 625.802 175.183 682.871 204.806C706.229 216.93 737.384 237.671 778.562 233.522C817.588 229.593 852.385 204.542 883.009 165.49C883.009 255.706 882.959 383.48 882.942 486.267C882.542 486.851 882.15 487.432 881.751 488.014C863.452 514.506 841.956 538.64 817.751 559.872C624.393 602.759 424.536 628.608 253.941 628.615C40.8703 628.62 -126.568 588.314 -179.075 490.531Z" fill="#E64976"/>
</g>
</svg>
